<svg width="26" height="26" viewBox="0 0 26 26" fill="none" xmlns="http://www.w3.org/2000/svg">
<rect width="2" height="2" fill="#16FF11"/>
<rect y="4" width="2" height="2" fill="#16FF11"/>
<rect y="8" width="2" height="2" fill="#16FF11"/>
<rect y="12" width="2" height="2" fill="#16FF11"/>
<rect y="16" width="2" height="2" fill="#16FF11"/>
<rect y="20" width="2" height="2" fill="#16FF11"/>
<rect y="24" width="2" height="2" fill="#16FF11"/>
<rect x="4" width="2" height="2" fill="#16FF11"/>
<rect x="4" y="4" width="2" height="2" fill="#16FF11"/>
<rect x="4" y="8" width="2" height="2" fill="#16FF11"/>
<rect x="4" y="12" width="2" height="2" fill="#16FF11"/>
<rect x="4" y="16" width="2" height="2" fill="#16FF11"/>
<rect x="4" y="20" width="2" height="2" fill="#16FF11"/>
<rect x="4" y="24" width="2" height="2" fill="#16FF11"/>
<rect x="8" width="2" height="2" fill="#16FF11"/>
<rect x="8" y="4" width="2" height="2" fill="#16FF11"/>
<rect x="8" y="8" width="2" height="2" fill="#16FF11"/>
<rect x="8" y="12" width="2" height="2" fill="#16FF11"/>
<rect x="8" y="16" width="2" height="2" fill="#16FF11"/>
<rect x="8" y="20" width="2" height="2" fill="#16FF11"/>
<rect x="8" y="24" width="2" height="2" fill="#16FF11"/>
<rect x="12" width="2" height="2" fill="#16FF11"/>
<rect x="12" y="4" width="2" height="2" fill="#16FF11"/>
<rect x="12" y="8" width="2" height="2" fill="#16FF11"/>
<rect x="12" y="12" width="2" height="2" fill="#16FF11"/>
<rect x="12" y="16" width="2" height="2" fill="#16FF11"/>
<rect x="12" y="20" width="2" height="2" fill="#16FF11"/>
<rect x="12" y="24" width="2" height="2" fill="#16FF11"/>
<rect x="16" width="2" height="2" fill="#16FF11"/>
<rect x="20" width="2" height="2" fill="#16FF11"/>
<rect x="24" width="2" height="2" fill="#16FF11"/>
<rect x="16" y="4" width="2" height="2" fill="#16FF11"/>
<rect x="20" y="4" width="2" height="2" fill="#16FF11"/>
<rect x="24" y="4" width="2" height="2" fill="#16FF11"/>
<rect x="16" y="8" width="2" height="2" fill="#16FF11"/>
<rect x="20" y="8" width="2" height="2" fill="#16FF11"/>
<rect x="24" y="8" width="2" height="2" fill="#16FF11"/>
<rect x="16" y="12" width="2" height="2" fill="#16FF11"/>
<rect x="20" y="12" width="2" height="2" fill="#16FF11"/>
<rect x="24" y="12" width="2" height="2" fill="#16FF11"/>
<rect opacity="0.1" x="16" y="16" width="2" height="2" fill="black"/>
<rect opacity="0.1" x="16" y="20" width="2" height="2" fill="black"/>
<rect opacity="0.1" x="16" y="24" width="2" height="2" fill="black"/>
<rect opacity="0.1" x="20" y="16" width="2" height="2" fill="black"/>
<rect opacity="0.1" x="24" y="16" width="2" height="2" fill="black"/>
<rect opacity="0.1" x="20" y="20" width="2" height="2" fill="black"/>
<rect opacity="0.1" x="24" y="20" width="2" height="2" fill="black"/>
<rect opacity="0.1" x="20" y="24" width="2" height="2" fill="black"/>
<rect opacity="0.1" x="24" y="24" width="2" height="2" fill="black"/>
</svg>
