<svg width="120" height="120" viewBox="0 0 120 120" fill="none" xmlns="http://www.w3.org/2000/svg">
<g filter="url(#filter0_f)">
<circle cx="60" cy="60" r="16" fill="#16FF11"/>
</g>
<rect x="38" y="41" width="46" height="8" fill="white"/>
<rect x="42" y="49" width="38" height="35" fill="white"/>
<rect x="57" y="38" width="8" height="9" fill="white"/>
<rect x="33.9998" y="74" width="30" height="9" fill="white"/>
<rect x="34.9998" y="68" width="30" height="9" fill="white"/>
<rect x="39.0234" y="71.3398" width="8" height="22" transform="rotate(25 39.0234 71.3398)" fill="white"/>
<rect x="38.7258" y="74.7207" width="8" height="22" transform="rotate(-25 38.7258 74.7207)" fill="white"/>
<path d="M81.8974 50.3893H39.4741C37.2892 50.3893 35.4685 48.5686 35.4685 46.3837V44.2898C35.4685 42.1049 37.2892 40.2842 39.4741 40.2842H56.7712C57.4995 40.2842 58.1367 40.9214 58.1367 41.6497C58.1367 42.378 57.4995 43.0153 56.7712 43.0153H39.4741C38.7458 43.0153 38.1086 43.6526 38.1086 44.3808V46.4747C38.1086 47.203 38.7458 47.8403 39.4741 47.8403H81.9884C82.7167 47.8403 83.354 47.203 83.354 46.4747V44.3808C83.354 43.6526 82.7167 43.0153 81.9884 43.0153H64.6914C63.9631 43.0153 63.3259 42.378 63.3259 41.6497C63.3259 40.9214 63.9631 40.2842 64.6914 40.2842H81.9884C84.1733 40.2842 85.9941 42.1049 85.9941 44.2898V46.3837C85.903 48.5686 84.0823 50.3893 81.8974 50.3893Z" fill="black"/>
<path fill-rule="evenodd" clip-rule="evenodd" d="M77.9832 50.3893V78.2467L77.9919 78.2469C77.9861 79.4674 77.9832 80.7415 77.9832 82.0702H51.7523L53.121 84.8013H79.3487C80.077 84.8013 80.7143 84.1641 80.7143 83.4358C80.7143 81.6669 80.7058 79.9656 80.6897 78.3369L80.7143 78.3377V49.0238C80.7143 48.2955 80.077 47.6582 79.3487 47.6582H71.796H42.0235C41.2952 47.6582 40.658 48.2955 40.658 49.0238V66.3208C40.658 67.0491 41.2952 67.6864 42.0235 67.6864C42.7518 67.6864 43.3891 67.0491 43.3891 66.3208V50.3893H71.796H77.9832Z" fill="black"/>
<path d="M60.6862 46.657C57.773 46.657 55.406 44.29 55.406 41.3768C55.406 38.4636 57.773 36.0967 60.6862 36.0967C63.5993 36.0967 65.9663 38.4636 65.9663 41.3768C65.9663 44.29 63.5993 46.657 60.6862 46.657ZM60.6862 38.7368C59.2296 38.7368 58.0461 39.9202 58.0461 41.3768C58.0461 42.8334 59.2296 44.0169 60.6862 44.0169C62.1427 44.0169 63.3262 42.8334 63.3262 41.3768C63.3262 39.9202 62.1427 38.7368 60.6862 38.7368Z" fill="black"/>
<path d="M71.0642 42.924C70.7 42.924 70.4269 42.833 70.1538 42.5598C69.6076 42.1047 69.5165 41.1943 70.0628 40.6481L71.6104 38.9184C71.8835 38.5542 72.0656 38.099 72.0656 37.6438C72.0656 37.0976 71.7925 36.5514 71.4283 36.1872C70.7 35.55 69.5165 35.55 68.7882 36.1872L64.7826 40.0108C64.2364 40.557 63.417 40.466 62.8708 39.9198C62.4156 39.4646 62.4156 38.6452 62.9619 38.099L66.9675 34.2755C68.6972 32.6368 71.4283 32.5458 73.2491 34.1844C74.2505 35.0948 74.7967 36.2783 74.7967 37.6438C74.7967 38.7363 74.3415 39.8287 73.6132 40.7391L72.0656 42.4688C71.7925 42.7419 71.4283 42.924 71.0642 42.924Z" fill="black"/>
<path d="M50.3077 42.9243C49.9436 42.9243 49.5794 42.7422 49.3063 42.4691L47.7587 40.7394C47.0304 39.9201 46.5752 38.8276 46.5752 37.6442C46.5752 36.3696 47.1214 35.0951 48.1228 34.1847C49.9436 32.6371 52.6747 32.6371 54.4044 34.2758L58.41 38.0993C58.9562 38.6456 58.9562 39.4649 58.5011 40.0111C57.9548 40.5573 57.1355 40.5573 56.5893 40.1022L52.5836 36.2786C51.8553 35.5503 50.6719 35.5503 49.9436 36.2786C49.4884 36.6427 49.3063 37.189 49.3063 37.7352C49.3063 38.1904 49.4884 38.6456 49.7615 39.0097L51.3091 40.7394C51.7643 41.2856 51.7643 42.105 51.2181 42.6512C50.945 42.8333 50.6719 42.9243 50.3077 42.9243Z" fill="black"/>
<path d="M51.6734 53.5761C51.4003 53.5761 51.1272 53.4851 50.8541 53.303C50.3079 52.8478 50.1258 52.0285 50.581 51.3912L56.7715 43.2889C57.2267 42.7427 58.046 42.5606 58.6833 43.0158C59.2295 43.471 59.4116 44.2903 58.9564 44.9276L52.7659 53.0299C52.4928 53.394 52.1286 53.5761 51.6734 53.5761Z" fill="black"/>
<path d="M69.6988 53.5753C69.3347 53.5753 68.8795 53.3932 68.6064 53.029L62.4158 44.9267C61.9607 44.3805 62.0517 43.4701 62.6889 43.015C63.2352 42.5598 64.1455 42.6508 64.6007 43.2881L70.7912 51.3904C71.2464 51.9366 71.1554 52.847 70.5181 53.3021C70.245 53.4842 69.9719 53.5753 69.6988 53.5753Z" fill="black"/>
<path d="M60.6859 84.8013C59.9576 84.8013 59.3203 84.1641 59.3203 83.4358V49.0238C59.3203 48.2955 59.9576 47.6582 60.6859 47.6582C61.4142 47.6582 62.0514 48.2955 62.0514 49.0238V83.5268C62.0514 84.2551 61.4142 84.8013 60.6859 84.8013Z" fill="black"/>
<path d="M43.0248 86.4393C41.8413 86.4393 40.931 85.711 40.2027 85.1648C39.8385 84.8917 39.5654 84.6185 39.2923 84.5275C39.0192 84.4365 38.564 84.3454 38.1999 84.3454C37.2895 84.2544 36.197 84.0723 35.3777 83.253C34.5584 82.4337 34.3763 81.3412 34.2853 80.4308C34.1942 79.9757 34.1942 79.6115 34.1032 79.3384C34.0121 79.0653 33.739 78.7922 33.4659 78.428C32.9197 77.6997 32.1914 76.7894 32.1914 75.6059C32.1914 74.4224 32.9197 73.512 33.4659 72.7837C33.739 72.4196 34.0121 72.1465 34.1032 71.8734C34.1942 71.6002 34.2853 71.1451 34.2853 70.7809C34.3763 69.8705 34.5584 68.7781 35.3777 67.9588C36.197 67.1394 37.2895 66.9574 38.1999 66.8663C38.655 66.7753 39.0192 66.7753 39.2923 66.6842C39.5654 66.5932 39.8385 66.3201 40.2027 66.047C40.931 65.5008 41.8413 64.7725 43.0248 64.7725C44.2083 64.7725 45.1187 65.5008 45.847 66.047C46.2111 66.3201 46.4842 66.5932 46.7573 66.6842C47.0304 66.7753 47.4856 66.8663 47.8498 66.8663C48.7602 66.9574 49.8526 67.1394 50.6719 67.9588C51.4913 68.7781 51.6733 69.8705 51.7644 70.7809C51.8554 71.2361 51.8554 71.6002 51.9465 71.8734C52.0375 72.1465 52.3106 72.4196 52.5837 72.7837C53.1299 73.512 53.8582 74.4224 53.8582 75.6059C53.8582 76.7894 53.1299 77.6997 52.5837 78.428C52.3106 78.7922 52.0375 79.0653 51.9465 79.3384C51.8554 79.6115 51.7644 80.0667 51.7644 80.4308C51.6733 81.3412 51.4913 82.4337 50.6719 83.253C49.8526 84.0723 48.7602 84.2544 47.8498 84.3454C47.3946 84.4365 47.0304 84.4365 46.7573 84.5275C46.4842 84.6185 46.2111 84.8917 45.847 85.1648C45.1187 85.802 44.2083 86.4393 43.0248 86.4393ZM43.0248 67.3215C42.7517 67.3215 42.2965 67.6856 41.8413 68.0498C41.3862 68.4139 40.931 68.7781 40.2937 69.0512C39.6564 69.3243 39.0192 69.4153 38.473 69.4153C38.0178 69.5064 37.3805 69.5974 37.1984 69.7795C37.0164 69.9616 36.9253 70.5988 36.8343 71.054C36.7433 71.6002 36.6522 72.2375 36.4701 72.8748C36.197 73.421 35.8329 73.9672 35.4687 74.4224C35.1046 74.8776 34.7404 75.3328 34.7404 75.6059C34.7404 75.879 35.1046 76.3342 35.4687 76.7894C35.8329 77.2445 36.197 77.6997 36.4701 78.337C36.7433 78.9742 36.8343 79.6115 36.8343 80.1577C36.9253 80.6129 37.0164 81.2502 37.1984 81.4322C37.3805 81.6143 38.0178 81.7054 38.473 81.7964C39.0192 81.8874 39.6564 81.9785 40.2937 82.1605C40.8399 82.4337 41.3862 82.7978 41.8413 83.1619C42.2965 83.5261 42.7517 83.8902 43.0248 83.8902C43.2979 83.8902 43.7531 83.5261 44.2083 83.1619C44.6635 82.7978 45.1187 82.4337 45.7559 82.1605C46.3932 81.8874 47.0304 81.7964 47.5767 81.7964C48.0319 81.7054 48.6691 81.6143 48.8512 81.4322C49.0333 81.2502 49.1243 80.6129 49.2153 80.1577C49.3064 79.6115 49.3974 78.9742 49.5795 78.337C49.8526 77.7908 50.2167 77.2445 50.5809 76.7894C50.945 76.3342 51.3092 75.879 51.3092 75.6059C51.3092 75.3328 50.945 74.8776 50.5809 74.4224C50.2167 73.9672 49.8526 73.512 49.5795 72.8748C49.3064 72.2375 49.2153 71.6002 49.2153 71.054C49.1243 70.5988 49.0333 69.9616 48.8512 69.7795C48.6691 69.5974 48.0319 69.5064 47.5767 69.4153C47.0304 69.3243 46.3932 69.2333 45.7559 69.0512C45.2097 68.7781 44.6635 68.4139 44.2083 68.0498C43.7531 67.6856 43.2979 67.3215 43.0248 67.3215Z" fill="black"/>
<path d="M43.0247 81.1593C39.9294 81.1593 37.4714 78.6102 37.4714 75.606C37.4714 72.5107 40.0205 70.0527 43.0247 70.0527C46.0289 70.0527 48.578 72.6018 48.578 75.606C48.578 78.6102 46.12 81.1593 43.0247 81.1593ZM43.0247 72.6018C41.386 72.6018 40.1115 73.8763 40.1115 75.515C40.1115 77.1536 41.386 78.4281 43.0247 78.4281C44.6634 78.4281 45.9379 77.1536 45.9379 75.515C45.9379 73.8763 44.6634 72.6018 43.0247 72.6018Z" fill="black"/>
<path d="M36.106 96.9993C35.6508 96.9993 35.1956 96.7262 34.9225 96.3621L33.1018 93.2668L29.5513 93.9951C29.0961 94.0861 28.5499 93.9041 28.2768 93.5399C28.0037 93.1758 27.9127 92.6295 28.0947 92.1744L34.1032 78.7009C34.3763 78.0636 35.1956 77.6995 35.8329 78.0636C36.4701 78.3367 36.8343 79.156 36.4701 79.7933L31.4631 90.8088L33.3749 90.4446C33.9211 90.3536 34.4673 90.6267 34.8315 91.0819L35.8329 92.8116L39.9295 83.7989C40.2027 83.1617 41.022 82.7975 41.6593 83.1617C42.2965 83.4348 42.6607 84.2541 42.2965 84.8914L37.1984 96.271C37.1074 96.7262 36.6522 96.9993 36.106 96.9993Z" fill="black"/>
<path d="M49.9437 96.9994C49.9437 96.9994 49.8526 96.9994 49.9437 96.9994C49.3974 96.9994 48.9422 96.6352 48.7602 96.1801L43.6621 84.8004C43.389 84.1632 43.6621 83.3438 44.2994 83.0707C44.9366 82.7976 45.7559 83.0707 46.0291 83.708L50.1257 92.7207L51.1271 90.9909C51.4002 90.5358 51.9465 90.2627 52.5837 90.3537L54.4955 90.7178L49.4885 79.7023C49.2154 79.0651 49.4885 78.2458 50.1257 77.9726C50.763 77.6995 51.5823 77.9726 51.8554 78.6099L57.8639 91.9924C58.046 92.4475 58.046 92.9938 57.6818 93.3579C57.4087 93.7221 56.8625 93.9041 56.4073 93.8131L52.8568 93.2669L51.0361 96.3621C50.854 96.8173 50.3988 96.9994 49.9437 96.9994Z" fill="black"/>
<defs>
<filter id="filter0_f" x="0" y="0" width="120" height="120" filterUnits="userSpaceOnUse" color-interpolation-filters="sRGB">
<feFlood flood-opacity="0" result="BackgroundImageFix"/>
<feBlend mode="normal" in="SourceGraphic" in2="BackgroundImageFix" result="shape"/>
<feGaussianBlur stdDeviation="22" result="effect1_foregroundBlur"/>
</filter>
</defs>
</svg>
