<svg width="54" height="16" viewBox="0 0 54 16" fill="none" xmlns="http://www.w3.org/2000/svg">
<g clip-path="url(#clip0)">
<path d="M38.7377 10.6928C38.4953 10.6928 38.2552 10.6451 38.0312 10.5525C37.8071 10.4599 37.6036 10.3242 37.4321 10.1531C37.2607 9.98195 37.1247 9.7788 37.0319 9.55522C36.9391 9.33164 36.8913 9.09201 36.8913 8.85001C36.8913 8.60801 36.9391 8.36837 37.0319 8.14479C37.1247 7.92121 37.2607 7.71807 37.4321 7.54694C37.6036 7.37582 37.8071 7.24008 38.0312 7.14747C38.2552 7.05486 38.4953 7.0072 38.7377 7.0072C39.2274 7.0072 39.6971 7.20135 40.0434 7.54694C40.3896 7.89254 40.5842 8.36126 40.5842 8.85001C40.5842 9.33875 40.3896 9.80747 40.0434 10.1531C39.6971 10.4987 39.2274 10.6928 38.7377 10.6928ZM42.1381 5.11078H41.0403C40.8002 5.11078 40.6598 5.27078 40.5811 5.46166C40.5524 5.52902 40.4742 5.56271 40.4061 5.52902C39.8864 5.2792 39.3149 5.13043 38.7377 5.13043C36.5457 5.13043 34.796 7.01955 35.0351 9.25674C35.2134 10.9241 36.5263 12.2855 38.1887 12.5241C38.9341 12.6308 39.64 12.5157 40.2587 12.2378H40.2616C40.4134 12.1648 40.4922 12.2181 40.5006 12.3276C40.4753 13.6581 39.7919 14.2504 38.5853 14.2504C37.9244 14.2504 37.4125 13.9534 37.1284 13.4953C37.102 13.453 37.0651 13.4181 37.0212 13.394C36.9774 13.3699 36.9281 13.3574 36.8781 13.3578H35.4378C35.2843 13.3578 35.167 13.501 35.2072 13.6483C35.5419 14.8988 36.8089 15.9568 38.6432 15.9568C41.3508 15.9568 42.419 14.1603 42.419 12.1884V5.38895C42.419 5.35222 42.4118 5.31584 42.3977 5.2819C42.3836 5.24796 42.3629 5.21713 42.3369 5.19116C42.3108 5.1652 42.2799 5.14461 42.2459 5.13058C42.2119 5.11654 42.1754 5.10934 42.1386 5.10938" fill="#FD6D6D"/>
<path d="M22.2442 10.6913C22.0017 10.6913 21.7616 10.6436 21.5376 10.551C21.3136 10.4584 21.11 10.3227 20.9386 10.1515C20.7671 9.98043 20.6311 9.77728 20.5383 9.5537C20.4455 9.33012 20.3978 9.09049 20.3978 8.84849C20.3978 8.60648 20.4455 8.36685 20.5383 8.14327C20.6311 7.91969 20.7671 7.71654 20.9386 7.54542C21.11 7.3743 21.3136 7.23856 21.5376 7.14595C21.7616 7.05334 22.0017 7.00568 22.2442 7.00568C22.7339 7.00568 23.2035 7.19983 23.5498 7.54542C23.8961 7.89102 24.0906 8.35974 24.0906 8.84849C24.0906 9.33723 23.8961 9.80595 23.5498 10.1515C23.2035 10.4971 22.7339 10.6913 22.2442 10.6913ZM22.7932 5.17101C22.0497 5.05989 21.2899 5.17738 20.6149 5.50785C20.553 5.53592 20.4808 5.49382 20.4808 5.42645V2.15375C20.4808 1.99936 20.3542 1.87305 20.1978 1.87305H18.8467C18.7716 1.87349 18.6997 1.90353 18.6466 1.95663C18.5936 2.00972 18.5637 2.08158 18.5635 2.15656V12.1678C18.5635 12.2422 18.5931 12.3136 18.6459 12.3663C18.6986 12.4189 18.7701 12.4485 18.8447 12.4485H20.0392C20.2079 12.4485 20.3528 12.3469 20.4161 12.2015C20.4207 12.1894 20.4279 12.1785 20.4371 12.1694C20.4463 12.1603 20.4573 12.1533 20.4694 12.1487C20.4815 12.1441 20.4944 12.1421 20.5073 12.1428C20.5202 12.1436 20.5328 12.147 20.5443 12.1529C21.0696 12.4244 21.6526 12.5659 22.2442 12.5655C24.4363 12.5655 26.1859 10.6759 25.9469 8.43978C25.7685 6.77242 24.4562 5.41101 22.7932 5.17101Z" fill="#FD6D6D"/>
<path fill-rule="evenodd" clip-rule="evenodd" d="M53.4957 6.45803C52.997 5.16596 51.5747 4.70364 50.286 4.95403C49.9336 5.0214 49.5914 5.14491 49.278 5.31894C49.2541 5.33298 49.2035 5.37227 49.1543 5.40596C49.1042 5.42842 49.0232 5.40596 49.0016 5.35543C48.9701 5.28162 48.9176 5.21862 48.8506 5.17423C48.7836 5.12984 48.7051 5.10598 48.6247 5.10561H48.6191C48.6135 5.10561 48.609 5.1028 48.603 5.1028L47.4325 5.10084C47.2761 5.10084 47.1493 5.22715 47.1493 5.38435V12.1689C47.1493 12.3205 47.273 12.444 47.4249 12.444H48.8227C48.8958 12.444 48.9659 12.415 49.0176 12.3634C49.0693 12.3118 49.0983 12.2419 49.0983 12.1689V8.15992C49.0983 7.32764 49.5961 6.67052 50.4455 6.67052C51.3821 6.67052 51.7786 7.29817 51.7786 8.10154V12.1633C51.7786 12.321 51.908 12.4479 52.0655 12.4479H53.4377C53.5952 12.4479 53.7226 12.3188 53.7226 12.1616V7.76694C53.7226 7.32287 53.6588 6.87347 53.4985 6.45803H53.4957ZM45.4952 5.1087H44.1115C43.9557 5.1087 43.8294 5.23445 43.8294 5.38996V12.1661C43.8294 12.3219 43.9551 12.4479 44.1106 12.4479H45.4933C45.6491 12.4479 45.7754 12.3216 45.7754 12.1664V5.39024C45.7754 5.23445 45.6488 5.10841 45.493 5.10841L45.4952 5.1087ZM32.0492 7.94631H28.8734C28.8008 7.94631 28.7429 7.88456 28.7541 7.81438C28.8503 7.22771 29.5782 6.67192 30.4613 6.67192C31.345 6.67192 32.0729 7.22771 32.1685 7.81438C32.1797 7.88175 32.1224 7.9435 32.0495 7.9435L32.0492 7.94631ZM30.4447 5.10841C28.2467 5.10841 26.6079 7.01999 26.7421 9.1421C26.8554 10.933 28.3204 12.3898 30.1283 12.5414V12.5442C32.7242 12.7323 33.71 11.1603 33.9882 10.4979C34.0015 10.4659 34.0066 10.431 34.003 10.3965C33.9995 10.3621 33.9874 10.329 33.9679 10.3003C33.9484 10.2716 33.922 10.2483 33.8912 10.2323C33.8604 10.2163 33.826 10.2082 33.7913 10.2088H32.2585C32.1691 10.2088 32.085 10.2453 32.018 10.3042C31.2305 11.0032 30.1505 10.8263 30.0099 10.7994L29.9958 10.7966C29.677 10.7236 29.3815 10.5725 29.1359 10.3568C28.8904 10.1412 28.7026 9.8678 28.5896 9.56147C28.5643 9.49129 28.6149 9.41831 28.688 9.41831H33.8208C34.0036 9.41831 34.1527 9.27234 34.1527 9.0941V8.73199C34.0599 6.79796 32.6452 5.10898 30.4486 5.10898L30.4447 5.10841ZM44.8034 1.87305C44.1931 1.87305 43.691 2.37354 43.691 2.99642C43.691 3.59206 44.1931 4.09284 44.8034 4.09284C45.4272 4.09284 45.9157 3.59319 45.9157 2.9981C45.9157 2.37494 45.4272 1.87445 44.8034 1.87445" fill="#FD6D6D"/>
<path fill-rule="evenodd" clip-rule="evenodd" d="M6.64517 2.93857V0.262358C6.64527 0.225739 6.63767 0.189505 6.62286 0.156001C6.60805 0.122498 6.58635 0.0924713 6.55918 0.0678644C6.53201 0.0432574 6.49996 0.0246183 6.46511 0.013153C6.43027 0.00168764 6.39339 -0.00234844 6.35689 0.00130585C4.97595 0.155692 3.71314 0.698288 2.67814 1.5171C2.5572 1.61338 2.55157 1.79499 2.66126 1.90446L4.56532 3.79696C4.65532 3.88678 4.79595 3.8952 4.90282 3.82334C5.36288 3.51055 5.88287 3.29627 6.43001 3.19401C6.49089 3.18408 6.54628 3.153 6.58643 3.10626C6.62657 3.05952 6.64887 3.00013 6.64939 2.93857" fill="#FF9E00"/>
<path fill-rule="evenodd" clip-rule="evenodd" d="M3.84378 9.39406C3.52931 8.93761 3.31377 8.42067 3.21097 7.87631C3.20056 7.81569 3.16914 7.76064 3.12221 7.72078C3.07528 7.68091 3.01581 7.65877 2.95419 7.6582H0.26431C0.109623 7.6582 -0.0158145 7.79182 0.00162296 7.94452C0.156873 9.31996 0.701936 10.5769 1.526 11.6049C1.62162 11.725 1.805 11.7312 1.91412 11.6226L3.81706 9.72782C3.90762 9.63799 3.91606 9.49764 3.84378 9.39098" fill="#FD7854"/>
<path fill-rule="evenodd" clip-rule="evenodd" d="M11.6665 1.51768C10.6076 0.677018 9.33251 0.151453 7.98778 0.00133416C7.95125 -0.00236207 7.91435 0.0016427 7.87947 0.013089C7.84459 0.0245353 7.81251 0.0431677 7.7853 0.0677791C7.7581 0.0923905 7.73638 0.122432 7.72155 0.155956C7.70672 0.189481 7.69911 0.225741 7.69922 0.262387V2.9386C7.69922 3.06604 7.79288 3.17074 7.91859 3.19404C8.46551 3.2959 8.98521 3.51022 9.44466 3.82337C9.49507 3.85892 9.55636 3.87575 9.6179 3.87093C9.67944 3.86611 9.73735 3.83995 9.7816 3.79698L11.6843 1.90421C11.7104 1.87862 11.7308 1.84782 11.7441 1.81383C11.7575 1.77984 11.7635 1.74341 11.7618 1.70693C11.7601 1.67046 11.7507 1.63475 11.7343 1.60214C11.7178 1.56953 11.6946 1.54075 11.6663 1.51768" fill="#FF9E00"/>
<path fill-rule="evenodd" clip-rule="evenodd" d="M6.98714 8.06057L2.65983 12.3657C2.63376 12.3912 2.61339 12.422 2.60003 12.4559C2.58667 12.4898 2.58063 12.5262 2.5823 12.5626C2.58398 12.5991 2.59332 12.6347 2.60973 12.6673C2.62614 12.6999 2.64925 12.7286 2.67754 12.7517C3.95461 13.7666 5.53943 14.3181 7.17192 14.3157C8.80441 14.3181 10.3892 13.7666 11.6663 12.7517C11.6946 12.7286 11.7177 12.6999 11.7342 12.6673C11.7506 12.6348 11.76 12.5991 11.7617 12.5627C11.7634 12.5263 11.7574 12.4899 11.744 12.456C11.7307 12.422 11.7103 12.3913 11.6843 12.3657L7.35698 8.06057C7.30786 8.01177 7.24137 7.98438 7.17206 7.98438C7.10275 7.98438 7.03626 8.01177 6.98714 8.06057Z" fill="#FD6D6D"/>
<path fill-rule="evenodd" clip-rule="evenodd" d="M3.81669 4.54016L1.91459 2.64739C1.80491 2.53876 1.62209 2.54522 1.52591 2.66536C0.682006 3.71743 0.153532 4.98631 0.00153118 6.32543C-0.0153438 6.47841 0.109531 6.6123 0.264219 6.6123H2.95297C3.07953 6.6123 3.18641 6.51911 3.20891 6.39392C3.31121 5.84932 3.52678 5.33219 3.84172 4.87588C3.87667 4.82542 3.89298 4.76441 3.88785 4.70327C3.88272 4.64214 3.85647 4.58468 3.81359 4.54073L3.81669 4.54016ZM11.3877 6.61174H14.0764C14.2311 6.61174 14.3548 6.47785 14.338 6.32487C14.1871 4.98591 13.6589 3.71709 12.8147 2.66564C12.7182 2.54494 12.5354 2.53876 12.4266 2.64767L10.5253 4.54016C10.482 4.58386 10.4554 4.64146 10.4504 4.70278C10.4454 4.7641 10.4623 4.82521 10.4981 4.87532C10.8121 5.3321 11.0276 5.84904 11.1309 6.39336C11.1409 6.45401 11.1721 6.50917 11.2189 6.54912C11.2658 6.58907 11.3252 6.61125 11.3868 6.61174" fill="#FE8D26"/>
<path fill-rule="evenodd" clip-rule="evenodd" d="M11.1328 7.87632C11.0305 8.42111 10.815 8.93844 10.5 9.39492C10.4644 9.44502 10.4476 9.50603 10.4525 9.56725C10.4574 9.62848 10.4838 9.68602 10.527 9.72979L12.4282 11.6226C12.5379 11.7292 12.7207 11.7236 12.8164 11.6029C13.6592 10.5501 14.1875 9.28146 14.3407 7.94257C14.3576 7.78818 14.231 7.65625 14.0764 7.65625H11.3876C11.2582 7.65625 11.1542 7.74888 11.1289 7.87239" fill="#FD7E5B"/>
</g>
<defs>
<clipPath id="clip0">
<rect width="54" height="16" fill="white"/>
</clipPath>
</defs>
</svg>
