<svg width="325" height="64" viewBox="0 0 325 64" fill="none" xmlns="http://www.w3.org/2000/svg">
<path d="M103.708 39.0252H105.825L104.938 46.9327C101.194 48.7387 97.0973 49.6246 92.9677 49.5212C82.4952 49.5212 76.668 42.1754 76.668 33.7274C76.668 23.2598 84.007 16.6963 93.2838 16.6963C98.6712 16.6963 102.121 18.2181 104.182 19.6118L104.423 26.6661H102.361C100.616 21.4252 97.5786 19.4127 92.8852 19.4127C85.2095 19.4127 82.4608 25.2794 82.4608 32.1345C82.4608 39.7647 85.8967 46.8189 93.7992 46.8189C99.4683 46.8189 101.887 44.1949 103.708 39.0252Z" fill="#5951FE"/>
<path d="M108.979 38.5709C108.979 31.3531 114.174 26.7949 120.475 26.7949C126.9 26.7949 131.222 31.4314 131.222 37.7531C131.222 44.9709 125.986 49.5291 119.685 49.5291C113.26 49.5291 108.979 44.8927 108.979 38.5709ZM126.158 39.1896C126.158 33.6927 123.746 29.426 119.383 29.426C115.692 29.426 114.029 32.6687 114.029 37.1345C114.016 42.6669 116.476 46.9336 120.791 46.9336C124.481 46.9336 126.144 43.698 126.144 39.1896H126.158Z" fill="#5951FE"/>
<path d="M149.577 45.5114C147.948 47.6091 145.454 49.5363 142.162 49.5363C138.355 49.5363 135.662 47.5665 135.662 42.7665V31.9291C135.662 30.5069 135.064 30.002 133.243 29.7531L132.556 29.6323V27.826L139.427 26.7949H140.616L140.417 31.0616V42.0625C140.417 44.9069 141.922 46.002 144.066 46.002C146.21 46.002 148.072 44.85 149.563 43.6625V31.9291C149.563 30.5069 148.965 30.002 147.144 29.7531L146.457 29.6323V27.826L153.329 26.7949H154.476L154.277 31.0616V44.1958C154.277 45.618 154.717 46.002 156.421 46.1656L157.452 46.2438V48.0927L150.154 49.5149H149.323L149.577 45.5114Z" fill="#5951FE"/>
<path d="M167.382 33.236C169.326 29.3818 171.113 26.7934 174.123 26.7934C174.816 26.7457 175.504 26.9493 176.068 27.3694V31.764H174.542C172 31.764 169.862 32.2974 167.361 35.1276V44.8485C167.361 46.8609 168.358 46.9818 171.168 47.3089V49.1151H159.617V47.3089C161.438 47.0671 162.627 46.8609 162.627 44.9694V31.5578L159.809 29.9578V28.8485L166.159 26.7578H167.581L167.382 33.236Z" fill="#5951FE"/>
<path d="M178.163 47.3956L177.929 41.9556H179.991C180.747 45.4471 182.568 47.2534 185.818 47.2534C188.436 47.2534 190.099 46.1014 190.099 43.8471C190.099 41.9556 188.793 41.2587 186.608 40.6472L183.756 39.7867C180.321 38.7983 178.163 37.1983 178.163 33.3014C178.163 29.2409 181.138 26.816 185.818 26.816C188.244 26.7454 190.642 27.3574 192.758 28.5867V33.5645H190.772C190.14 30.4072 188.436 29.0987 185.619 29.0987C183.598 29.0987 182.183 30.08 182.183 32.0498C182.183 33.6925 183.097 34.3894 185 34.9654L188.092 35.8685C191.899 36.9351 194.078 38.656 194.078 42.7165C194.078 47.0258 190.704 49.5289 185.749 49.5289C182.451 49.5289 179.833 48.6258 178.163 47.3956Z" fill="#5951FE"/>
<path d="M216.184 35.5545V36.7848H201.067C201.067 42.1608 203.485 45.4816 208.481 45.4816C211.005 45.5325 213.407 44.3656 214.982 42.3243L216.253 42.943C215.305 46.143 212.529 49.5065 206.894 49.5065C200.551 49.5065 196.627 44.9483 196.627 38.8399C196.627 31.615 201.225 26.751 207.334 26.751C213.133 26.7936 216.184 30.6123 216.184 35.5545ZM201.163 34.6514H211.305C211.305 31.7003 209.643 29.4034 206.351 29.4034C203.403 29.4248 201.554 31.6008 201.163 34.6728V34.6514Z" fill="#5951FE"/>
<path d="M251.856 34.0203H235.281V43.8692C235.281 46.5359 236.655 46.9839 239.603 47.1047V49.1172H225.771V47.1047C228.746 46.9839 230.093 46.5359 230.093 43.8692V22.3723C230.093 19.6985 228.718 19.2505 225.771 19.1296V17.1172H239.603V19.1296C236.628 19.2505 235.281 19.6985 235.281 22.3723V31.5599H251.856V22.3723C251.856 19.6985 250.481 19.2505 247.533 19.1296V17.1172H261.373V19.1296C258.397 19.2505 257.051 19.6985 257.051 22.3723V43.8692C257.051 46.5359 258.425 46.9839 261.373 47.1047V49.1172H247.533V47.1047C250.509 46.9839 251.856 46.5359 251.856 43.8692V34.0203Z" fill="#5951FE"/>
<path d="M282.427 35.5545V36.7848H267.309C267.309 42.1608 269.728 45.4816 274.724 45.4816C277.247 45.5314 279.649 44.3647 281.225 42.3243L282.489 42.943C281.541 46.143 278.765 49.5065 273.137 49.5065C266.794 49.5065 262.87 44.9483 262.87 38.8399C262.87 31.615 267.468 26.751 273.57 26.751C279.349 26.7936 282.427 30.6123 282.427 35.5545ZM267.378 34.6728H277.528C277.528 31.7216 275.865 29.4248 272.573 29.4248C269.639 29.4248 267.777 31.6008 267.378 34.6728Z" fill="#5951FE"/>
<path d="M292.406 33.236C294.344 29.3818 296.13 26.7934 299.14 26.7934C299.833 26.7457 300.521 26.9493 301.085 27.3694V31.764H299.607C297.072 31.764 294.928 32.2974 292.433 35.1276V44.8485C292.433 46.8609 293.423 46.9818 296.24 47.3089V49.1151H284.634V47.3089C286.455 47.0671 287.644 46.8609 287.644 44.9694V31.5578L284.826 29.9578V28.8485L291.176 26.7578H292.598L292.406 33.236Z" fill="#5951FE"/>
<path d="M302.081 38.5709C302.081 31.3531 307.276 26.7949 313.577 26.7949C320.003 26.7949 324.325 31.4314 324.325 37.7531C324.325 44.9709 319.089 49.5291 312.787 49.5291C306.362 49.5291 302.081 44.8927 302.081 38.5709ZM319.26 39.1896C319.26 33.6927 316.842 29.426 312.485 29.426C308.795 29.426 307.132 32.6687 307.132 37.1345C307.118 42.6669 309.578 46.9336 313.9 46.9336C317.584 46.9336 319.247 43.698 319.247 39.1896H319.26Z" fill="#5951FE"/>
<path d="M30.6066 9.024L0 0V52.9138L30.6066 64L61.2064 52.9138V0L30.6066 9.024ZM41.6014 49.1164L30.6066 42.0053L19.6462 49.1164L22.8004 36.1316L12.8707 27.5413L25.7827 26.6382L30.5929 14.208L35.4031 26.6382L48.315 27.5413L38.406 36.1316L41.6014 49.1164Z" fill="#5951FE"/>
</svg>
