<svg width="208" height="106" viewBox="0 0 208 106" fill="none" xmlns="http://www.w3.org/2000/svg">
<path d="M169.828 93.4309C171.148 93.4535 172.451 93.1308 173.608 92.4947C174.703 91.8839 175.603 90.9758 176.204 89.8755C176.839 88.7095 177.162 87.3992 177.141 86.0719C177.141 83.9386 176.459 82.1796 175.094 80.7949C173.73 79.4102 171.978 78.7179 169.838 78.7179C167.705 78.7179 165.952 79.4102 164.581 80.7949C163.21 82.1796 162.528 83.9386 162.535 86.0719C162.535 88.2051 163.217 89.9641 164.581 91.3488C165.946 92.7335 167.698 93.4258 169.838 93.4258L169.828 93.4309ZM178.42 94.4848C176.133 96.7136 173.269 97.828 169.828 97.828C166.386 97.828 163.526 96.7195 161.246 94.5027C158.961 92.2722 157.818 89.467 157.818 86.0872C157.792 83.971 158.333 81.8864 159.386 80.0506C160.405 78.2687 161.903 76.8077 163.709 75.8326C165.599 74.8362 167.703 74.3154 169.839 74.3154C171.975 74.3154 174.079 74.8362 175.969 75.8326C177.775 76.8077 179.273 78.2687 180.292 80.0506C181.34 81.8845 181.877 83.9652 181.85 86.077C181.841 89.4568 180.694 92.2654 178.409 94.5027L178.42 94.4848Z" fill="#191B1E"/>
<path d="M143.659 93.4335C144.979 93.4562 146.282 93.1335 147.439 92.4973C148.534 91.8864 149.434 90.9784 150.036 89.878C150.67 88.7119 150.991 87.4016 150.969 86.0744C150.969 83.9411 150.287 82.1822 148.923 80.7975C147.559 79.4128 145.807 78.7205 143.666 78.7205C141.533 78.7205 139.781 79.4128 138.41 80.7975C137.039 82.1822 136.357 83.9411 136.364 86.0744C136.364 88.2077 137.046 89.9667 138.41 91.3514C139.774 92.736 141.526 93.4284 143.666 93.4284L143.659 93.4335ZM152.248 94.4873C149.958 96.7161 147.095 97.8305 143.659 97.8305C140.223 97.8305 137.366 96.7221 135.087 94.5053C132.802 92.2748 131.66 89.4696 131.66 86.0898C131.632 83.978 132.17 81.8972 133.217 80.0634C134.232 78.2782 135.726 76.8127 137.53 75.8326C139.42 74.8362 141.524 74.3154 143.66 74.3154C145.796 74.3154 147.9 74.8362 149.79 75.8326C151.596 76.8077 153.094 78.2688 154.113 80.0506C155.16 81.8845 155.698 83.9652 155.671 86.077C155.669 89.4585 154.526 92.2679 152.241 94.5053L152.248 94.4873Z" fill="#191B1E"/>
<path d="M54.7422 79.3902C53.5034 79.3513 52.2903 79.7488 51.3146 80.5131C50.3547 81.3128 49.6894 82.4102 49.4243 83.6311H60.2698C60.03 82.7894 59.6199 82.0059 59.065 81.329C58.5508 80.7154 57.9046 80.2258 57.1748 79.8966C56.4091 79.5576 55.5795 79.3875 54.7422 79.3978V79.3902ZM66.3371 86.0049C66.336 86.6039 66.2941 87.2021 66.2118 87.7954H49.2581C49.507 89.3199 50.1099 90.4906 51.0665 91.3074C52.0232 92.1242 53.2492 92.5326 54.7448 92.5326C55.7166 92.5463 56.6758 92.3103 57.5303 91.8471C58.343 91.4085 59.0192 90.7545 59.4845 89.9568H65.8793C65.1227 92.3044 63.632 94.3468 61.6269 95.7832C59.6218 97.2195 57.2084 97.9738 54.7422 97.9349C51.4169 97.9349 48.6467 96.7992 46.4316 94.5278C44.2164 92.2564 43.108 89.4427 43.1063 86.0867C43.1008 84.7912 43.2896 83.5022 43.6665 82.2627C44.0189 81.0851 44.5662 79.9749 45.2857 78.9783C45.98 78.0214 46.8137 77.1738 47.7591 76.4639C48.728 75.74 49.8102 75.1816 50.9616 74.8115C52.1832 74.4195 53.4593 74.2235 54.7422 74.2309C56.8637 74.1983 58.9541 74.7439 60.7891 75.8091C62.5355 76.82 63.9612 78.3033 64.9022 80.0885C65.8639 81.9083 66.357 83.939 66.3371 85.9972V86.0049Z" fill="#191B1E"/>
<path d="M119.371 92.8498H129.091C129.717 92.8498 130.319 93.0988 130.762 93.5421C131.205 93.9853 131.454 94.5865 131.454 95.2133V97.2955H114.572V74.6836V68.207H116.987C117.613 68.2091 118.213 68.4587 118.656 68.9015C119.098 69.3443 119.348 69.9443 119.35 70.5705V74.6836L119.371 92.8498Z" fill="#191B1E"/>
<path d="M82.8617 74.3154C85.4094 74.3154 87.425 75.1681 88.9086 76.8733C90.3922 78.5786 91.1331 80.8577 91.1314 83.7106V97.3007H85.0641V84.6621C85.0641 81.3096 83.7621 79.6333 81.1582 79.6333C80.2159 79.611 79.2866 79.8558 78.4775 80.3393C77.7015 80.8282 77.093 81.542 76.733 82.3856C76.3123 83.3701 76.1073 84.4333 76.1319 85.5037V97.3058H70.062V74.5508H75.4336V77.6407C75.8485 77.1156 76.331 76.6477 76.8686 76.2492C77.4187 75.8419 78.0103 75.4938 78.6335 75.2107C79.2795 74.917 79.9553 74.694 80.6492 74.5456C81.3799 74.3911 82.1251 74.3148 82.872 74.318" fill="#191B1E"/>
<path d="M36.6371 74.8545L31.2758 89.8975L25.7482 74.8545H19.3074L28.4084 97.2949H34.0178L42.9526 74.8545H36.6371Z" fill="#191B1E"/>
<path d="M96.6844 74.8566H93.3157V79.7166H97.3878V89.2755C97.349 90.7655 97.6775 92.2423 98.3445 93.5753C98.9598 94.758 99.9244 95.7225 101.107 96.3378C102.427 97.0017 103.889 97.3303 105.366 97.2945H109.645V91.8948H106.903C105.795 91.8948 104.942 91.5972 104.345 91.0021C103.748 90.4069 103.451 89.5688 103.453 88.4876V79.7192H109.52V74.8592H103.33V73.9869V68.999H97.3878V73.9869V74.8592L96.6844 74.8566Z" fill="#191B1E"/>
<path d="M6.318 91.4353H17.9104V97.2955H0V68.207H17.4551V74.0237H6.318V79.7585H16.3731V85.4524H6.318V91.4353Z" fill="#191B1E"/>
<path d="M190.556 91.334C191.941 92.7323 193.693 93.4314 195.813 93.4314C197.932 93.4314 199.685 92.7323 201.069 91.334C202.454 89.9356 203.146 88.1835 203.146 86.0775C203.146 83.9715 202.457 82.2185 201.079 80.8184C199.695 79.4201 197.949 78.721 195.843 78.721C194.518 78.7001 193.21 79.0264 192.05 79.6674C190.938 80.2802 190.023 81.1955 189.41 82.3071C188.78 83.459 188.458 84.7543 188.477 86.0672C188.477 88.1732 189.169 89.9254 190.554 91.3237L190.556 91.334ZM196.163 74.306C198.257 74.2746 200.322 74.7979 202.149 75.8229C203.901 76.8129 205.341 78.2741 206.305 80.0408C207.314 81.8874 207.83 83.9631 207.802 86.0672C207.802 89.4471 206.7 92.2522 204.497 94.4827C202.294 96.7132 199.517 97.8285 196.166 97.8285C193.284 97.8285 190.804 96.9281 188.727 95.1273V105.359H186.476C185.851 105.357 185.252 105.107 184.809 104.665C184.367 104.223 184.118 103.624 184.115 102.998V74.5183H185.732C186.358 74.5204 186.957 74.7697 187.399 75.2121C187.842 75.6544 188.091 76.2537 188.093 76.8793V77.598C190.26 75.4102 192.951 74.3163 196.166 74.3163L196.163 74.306Z" fill="#191B1E"/>
<path d="M115.303 43.2106L124.637 27.0063L115.296 10.7994L105.934 27.0063L115.275 43.2131L115.303 43.2106ZM73.9907 25.6685H81.8102L96.6179 0.0179052H90.3613C89.8869 0.01196 89.4193 0.131062 89.0056 0.363223C88.6118 0.613789 88.2866 0.958366 88.0592 1.36592L74.0444 25.6506L73.9907 25.6685ZM84.8925 25.6685L88.7984 18.8952H107.471L103.565 25.6685H84.8925ZM103.565 28.339L112.907 44.5458H94.2339L84.8925 28.339H103.565ZM81.7514 28.339L92.2234 46.4693C92.3319 46.6974 92.5025 46.8904 92.7156 47.0261C92.9286 47.1618 93.1756 47.2348 93.4282 47.2367H114.515L116.598 50.8433L118.419 53.9998H90.4048C89.9304 54.0057 89.4628 53.8866 89.0491 53.6545C88.6556 53.4053 88.3338 53.058 88.1154 52.6467L74.1007 28.3594H81.9023L81.7514 28.339ZM90.2896 16.1966L94.2032 9.42586H112.876L108.962 16.1966H90.2896ZM95.7584 6.76308L99.6643 0H118.337L114.444 6.76308H95.7584ZM116.797 8.10854L120.703 1.33522L134.718 25.6199C134.963 26.026 135.092 26.4912 135.092 26.9654C135.092 27.4395 134.963 27.9047 134.718 28.3108L120.703 52.5955L116.797 45.8324L127.318 27.6176C127.435 27.4146 127.497 27.1844 127.497 26.95C127.497 26.7156 127.435 26.4854 127.318 26.2824L116.797 8.10854Z" fill="url(#paint0_linear)"/>
<defs>
<linearGradient id="paint0_linear" x1="114.011" y1="44.1892" x2="94.0009" y2="10.0051" gradientUnits="userSpaceOnUse">
<stop stop-color="#5951FE"/>
<stop offset="1" stop-color="#BB6BD9"/>
</linearGradient>
</defs>
</svg>
