<svg width="228" height="43" viewBox="0 0 228 43" fill="none" xmlns="http://www.w3.org/2000/svg">
<path d="M197.812 30.5507C198.861 30.5687 199.897 30.3121 200.817 29.8065C201.687 29.3209 202.403 28.5991 202.881 27.7243C203.386 26.7975 203.642 25.7559 203.625 24.7007C203.625 23.0048 203.083 21.6065 201.998 20.5058C200.914 19.4051 199.521 18.8547 197.82 18.8547C196.124 18.8547 194.731 19.4051 193.641 20.5058C192.551 21.6065 192.009 23.0048 192.014 24.7007C192.014 26.3965 192.557 27.7948 193.641 28.8955C194.726 29.9963 196.118 30.5467 197.82 30.5467L197.812 30.5507ZM204.642 31.3885C202.824 33.1602 200.547 34.0461 197.812 34.0461C195.076 34.0461 192.802 33.165 190.99 31.4027C189.173 29.6296 188.265 27.3997 188.265 24.7129C188.244 23.0306 188.674 21.3735 189.511 19.9141C190.322 18.4976 191.512 17.3362 192.948 16.561C194.45 15.7689 196.123 15.355 197.821 15.355C199.519 15.355 201.192 15.7689 202.694 16.561C204.13 17.3362 205.32 18.4976 206.13 19.9141C206.963 21.3719 207.39 23.026 207.369 24.7047C207.362 27.3915 206.45 29.6242 204.634 31.4027L204.642 31.3885Z" fill="#ABABAB"/>
<path d="M177.008 30.5513C178.058 30.5693 179.094 30.3128 180.013 29.8071C180.884 29.3215 181.599 28.5996 182.077 27.7249C182.581 26.7979 182.837 25.7563 182.82 24.7012C182.82 23.0054 182.277 21.6071 181.193 20.5064C180.108 19.4056 178.716 18.8553 177.014 18.8553C175.318 18.8553 173.926 19.4056 172.836 20.5064C171.746 21.6071 171.204 23.0054 171.209 24.7012C171.209 26.3971 171.751 27.7954 172.836 28.8961C173.92 29.9969 175.313 30.5472 177.014 30.5472L177.008 30.5513ZM183.836 31.389C182.016 33.1608 179.74 34.0467 177.008 34.0467C174.277 34.0467 172.005 33.1655 170.194 31.4033C168.378 29.6302 167.47 27.4002 167.47 24.7135C167.448 23.0347 167.875 21.3806 168.708 19.9228C169.514 18.5037 170.702 17.3387 172.136 16.5596C173.638 15.7675 175.311 15.3535 177.009 15.3535C178.707 15.3535 180.38 15.7675 181.882 16.5596C183.318 17.3347 184.508 18.4962 185.319 19.9126C186.151 21.3705 186.579 23.0245 186.557 24.7033C186.556 27.3914 185.647 29.6247 183.83 31.4033L183.836 31.389Z" fill="#ABABAB"/>
<path d="M106.326 19.3861C105.341 19.3553 104.377 19.6712 103.601 20.2788C102.838 20.9145 102.309 21.7869 102.098 22.7575H110.72C110.529 22.0883 110.203 21.4655 109.762 20.9274C109.353 20.4396 108.84 20.0504 108.259 19.7887C107.651 19.5192 106.991 19.384 106.326 19.3922V19.3861ZM115.543 24.6445C115.542 25.1206 115.509 25.5962 115.443 26.0678H101.966C102.164 27.2797 102.643 28.2103 103.404 28.8597C104.164 29.509 105.139 29.8336 106.328 29.8336C107.1 29.8445 107.863 29.6569 108.542 29.2887C109.188 28.94 109.726 28.4201 110.096 27.786H115.179C114.578 29.6522 113.393 31.2758 111.799 32.4176C110.205 33.5594 108.286 34.1591 106.326 34.1282C103.682 34.1282 101.48 33.2253 99.7192 31.4197C97.9583 29.614 97.0771 27.3773 97.0758 24.7095C97.0714 23.6797 97.2215 22.655 97.5211 21.6696C97.8012 20.7335 98.2363 19.851 98.8082 19.0587C99.3602 18.298 100.023 17.6243 100.775 17.0599C101.545 16.4844 102.405 16.0406 103.32 15.7464C104.291 15.4347 105.306 15.2789 106.326 15.2848C108.012 15.2589 109.674 15.6926 111.133 16.5394C112.521 17.343 113.654 18.5221 114.402 19.9412C115.167 21.3879 115.559 23.0022 115.543 24.6384V24.6445Z" fill="#ABABAB"/>
<path d="M157.701 30.0896H165.428C165.927 30.0896 166.404 30.2876 166.757 30.6399C167.109 30.9923 167.307 31.4702 167.307 31.9685V33.6236H153.887V15.6485V10.5H155.806C156.304 10.5016 156.781 10.7001 157.133 11.0521C157.485 11.4041 157.683 11.881 157.685 12.3788V15.6485L157.701 30.0896Z" fill="#ABABAB"/>
<path d="M128.678 15.3569C130.704 15.3569 132.306 16.0347 133.485 17.3903C134.665 18.7459 135.254 20.5577 135.252 22.8256V33.6289H130.429V23.582C130.429 20.9169 129.394 19.5843 127.324 19.5843C126.575 19.5666 125.836 19.7612 125.193 20.1456C124.576 20.5342 124.093 21.1017 123.806 21.7723C123.472 22.5549 123.309 23.4001 123.329 24.251V33.633H118.503V15.544H122.774V18.0003C123.103 17.5829 123.487 17.211 123.914 16.8942C124.352 16.5704 124.822 16.2936 125.317 16.0686C125.831 15.8352 126.368 15.6579 126.92 15.5399C127.501 15.4171 128.093 15.3564 128.687 15.359" fill="#ABABAB"/>
<path d="M91.931 15.7861L87.669 27.7445L83.2749 15.7861H78.1548L85.3896 33.625H89.8488L96.9514 15.7861H91.931Z" fill="#ABABAB"/>
<path d="M139.667 15.7858H136.989V19.6493H140.226V27.248C140.195 28.4325 140.456 29.6065 140.986 30.6661C141.476 31.6063 142.242 32.373 143.182 32.8622C144.231 33.39 145.394 33.6511 146.568 33.6227H149.97V29.3302H147.79C146.909 29.3302 146.231 29.0937 145.757 28.6206C145.282 28.1475 145.046 27.4812 145.047 26.6217V19.6513H149.87V15.7879H144.949V15.0945V11.1294H140.226V15.0945V15.7879L139.667 15.7858Z" fill="#ABABAB"/>
<path d="M67.8293 28.9652H77.0446V33.6236H62.8069V10.5H76.6827V15.1239H67.8293V19.6828H75.8226V24.2091H67.8293V28.9652Z" fill="#ABABAB"/>
<path d="M214.29 28.8835C215.391 29.9951 216.784 30.5509 218.469 30.5509C220.154 30.5509 221.546 29.9951 222.647 28.8835C223.748 27.7719 224.298 26.379 224.298 24.7049C224.298 23.0307 223.751 21.6372 222.655 20.5243C221.555 19.4127 220.167 18.8569 218.493 18.8569C217.439 18.8403 216.4 19.0997 215.477 19.6092C214.594 20.0964 213.866 20.824 213.379 21.7077C212.878 22.6233 212.622 23.6531 212.637 24.6968C212.637 26.3709 213.187 27.7638 214.288 28.8754L214.29 28.8835ZM218.747 15.3473C220.412 15.3223 222.053 15.7383 223.505 16.5531C224.898 17.3401 226.043 18.5017 226.81 19.9061C227.612 21.374 228.021 23.0241 227.999 24.6968C227.999 27.3835 227.123 29.6135 225.372 31.3866C223.62 33.1597 221.413 34.0463 218.749 34.0463C216.458 34.0463 214.487 33.3305 212.836 31.899V40.0325H211.047C210.549 40.0309 210.073 39.8327 209.721 39.4811C209.37 39.1294 209.172 38.653 209.17 38.1557V15.516H210.455C210.952 15.5176 211.429 15.7159 211.78 16.0675C212.132 16.4191 212.33 16.8956 212.332 17.3928V17.9642C214.055 16.225 216.194 15.3554 218.749 15.3554L218.747 15.3473Z" fill="#ABABAB"/>
<path d="M32.8412 34.3499L40.261 21.4685L32.8351 8.58495L25.3929 21.4685L32.8188 34.352L32.8412 34.3499ZM0 20.405H6.21606L17.9873 0.0142336H13.0137C12.6366 0.00950753 12.2649 0.104187 11.936 0.288742C11.623 0.487927 11.3644 0.761847 11.1836 1.08583L0.0427009 20.3908L0 20.405ZM8.66628 20.405L11.7713 15.0206H26.615L23.51 20.405H8.66628ZM23.51 22.5279L30.9359 35.4114H16.0922L8.66628 22.5279H23.51ZM6.16929 22.5279L14.494 36.9405C14.5802 37.1218 14.7158 37.2752 14.8852 37.3831C15.0546 37.491 15.2509 37.549 15.4517 37.5505H32.2149L33.8701 40.4176L35.3178 42.9268H13.0482C12.6711 42.9315 12.2994 42.8368 11.9705 42.6523C11.6577 42.4542 11.4019 42.1781 11.2283 41.8511L0.0874356 22.5441H6.28925L6.16929 22.5279ZM12.9567 12.8754L16.0678 7.49302H30.9115L27.8004 12.8754H12.9567ZM17.3041 5.37627L20.4091 0H35.2528L32.158 5.37627H17.3041ZM34.0287 6.44583L37.1337 1.06143L48.2746 20.3664C48.4691 20.6892 48.572 21.059 48.572 21.4359C48.572 21.8129 48.4691 22.1827 48.2746 22.5055L37.1337 41.8104L34.0287 36.4342L42.392 21.9544C42.4851 21.7931 42.5342 21.6101 42.5342 21.4237C42.5342 21.2374 42.4851 21.0544 42.392 20.893L34.0287 6.44583Z" fill="#ABABAB"/>
</svg>
