<svg width="208" height="38" viewBox="0 0 208 38" fill="none" xmlns="http://www.w3.org/2000/svg">
<path d="M169.828 25.4309C171.148 25.4535 172.451 25.1308 173.608 24.4947C174.703 23.8839 175.603 22.9758 176.204 21.8755C176.839 20.7095 177.162 19.3992 177.141 18.0719C177.141 15.9386 176.459 14.1796 175.094 12.7949C173.73 11.4102 171.978 10.7179 169.838 10.7179C167.705 10.7179 165.952 11.4102 164.581 12.7949C163.21 14.1796 162.528 15.9386 162.535 18.0719C162.535 20.2051 163.217 21.9641 164.581 23.3488C165.946 24.7335 167.698 25.4258 169.838 25.4258L169.828 25.4309ZM178.42 26.4848C176.133 28.7136 173.269 29.828 169.828 29.828C166.386 29.828 163.526 28.7195 161.246 26.5027C158.961 24.2722 157.818 21.467 157.818 18.0872C157.792 15.971 158.333 13.8864 159.386 12.0506C160.405 10.2687 161.903 8.80767 163.709 7.8326C165.599 6.83618 167.703 6.31543 169.839 6.31543C171.975 6.31543 174.079 6.83618 175.969 7.8326C177.775 8.80767 179.273 10.2687 180.292 12.0506C181.34 13.8845 181.877 15.9652 181.85 18.077C181.841 21.4568 180.694 24.2654 178.409 26.5027L178.42 26.4848Z" fill="#191B1E"/>
<path d="M143.659 25.4335C144.979 25.4562 146.282 25.1335 147.439 24.4973C148.534 23.8864 149.434 22.9784 150.036 21.878C150.67 20.7119 150.991 19.4016 150.969 18.0744C150.969 15.9411 150.287 14.1822 148.923 12.7975C147.559 11.4128 145.807 10.7205 143.666 10.7205C141.533 10.7205 139.781 11.4128 138.41 12.7975C137.039 14.1822 136.357 15.9411 136.364 18.0744C136.364 20.2077 137.046 21.9667 138.41 23.3514C139.774 24.736 141.526 25.4284 143.666 25.4284L143.659 25.4335ZM152.248 26.4873C149.958 28.7161 147.095 29.8305 143.659 29.8305C140.223 29.8305 137.366 28.7221 135.087 26.5053C132.802 24.2748 131.66 21.4696 131.66 18.0898C131.632 15.978 132.17 13.8972 133.217 12.0634C134.232 10.2782 135.726 8.81268 137.53 7.8326C139.42 6.83619 141.524 6.31543 143.66 6.31543C145.796 6.31543 147.9 6.83619 149.79 7.8326C151.596 8.80767 153.094 10.2688 154.113 12.0506C155.16 13.8845 155.698 15.9652 155.671 18.077C155.669 21.4585 154.526 24.2679 152.241 26.5053L152.248 26.4873Z" fill="#191B1E"/>
<path d="M54.7422 11.3902C53.5034 11.3513 52.2903 11.7488 51.3146 12.5131C50.3547 13.3128 49.6894 14.4102 49.4243 15.6311H60.2698C60.03 14.7894 59.6199 14.0059 59.065 13.329C58.5508 12.7154 57.9046 12.2258 57.1748 11.8966C56.4091 11.5576 55.5795 11.3875 54.7422 11.3978V11.3902ZM66.3371 18.0049C66.336 18.6039 66.2941 19.2021 66.2118 19.7954H49.2581C49.507 21.3199 50.1099 22.4906 51.0665 23.3074C52.0232 24.1242 53.2492 24.5326 54.7448 24.5326C55.7166 24.5463 56.6758 24.3103 57.5303 23.8471C58.343 23.4085 59.0192 22.7545 59.4845 21.9568H65.8793C65.1227 24.3044 63.632 26.3468 61.6269 27.7832C59.6218 29.2195 57.2084 29.9738 54.7422 29.9349C51.4169 29.9349 48.6467 28.7992 46.4316 26.5278C44.2164 24.2564 43.108 21.4427 43.1063 18.0867C43.1008 16.7912 43.2896 15.5022 43.6665 14.2627C44.0189 13.0851 44.5662 11.9749 45.2857 10.9783C45.98 10.0214 46.8137 9.17384 47.7591 8.46392C48.728 7.73996 49.8102 7.18159 50.9616 6.81151C52.1832 6.41949 53.4593 6.22352 54.7422 6.23087C56.8637 6.19829 58.9541 6.74387 60.7891 7.80909C62.5355 8.81999 63.9612 10.3033 64.9022 12.0885C65.8639 13.9083 66.357 15.939 66.3371 17.9972V18.0049Z" fill="#191B1E"/>
<path d="M119.371 24.8498H129.091C129.717 24.8498 130.319 25.0988 130.762 25.5421C131.205 25.9853 131.454 26.5865 131.454 27.2133V29.2955H114.572V6.68363V0.207031H116.987C117.613 0.209055 118.213 0.458715 118.656 0.901519C119.098 1.34432 119.348 1.94431 119.35 2.57053V6.68363L119.371 24.8498Z" fill="#191B1E"/>
<path d="M82.8617 6.31543C85.4094 6.31543 87.425 7.16806 88.9086 8.87333C90.3922 10.5786 91.1331 12.8577 91.1314 15.7106V29.3007H85.0641V16.6621C85.0641 13.3096 83.7621 11.6333 81.1582 11.6333C80.2159 11.611 79.2866 11.8558 78.4775 12.3393C77.7015 12.8282 77.093 13.542 76.733 14.3856C76.3123 15.3701 76.1073 16.4333 76.1319 17.5037V29.3058H70.062V6.55076H75.4336V9.6407C75.8485 9.11561 76.331 8.64771 76.8686 8.2492C77.4187 7.84185 78.0103 7.49375 78.6335 7.21069C79.2795 6.91702 79.9553 6.69404 80.6492 6.54564C81.3799 6.39108 82.1251 6.31477 82.872 6.31799" fill="#191B1E"/>
<path d="M36.6371 6.85449L31.2758 21.8975L25.7482 6.85449H19.3074L28.4084 29.2949H34.0178L42.9526 6.85449H36.6371Z" fill="#191B1E"/>
<path d="M96.6844 6.85661H93.3157V11.7166H97.3878V21.2755C97.349 22.7655 97.6775 24.2423 98.3445 25.5753C98.9598 26.758 99.9244 27.7225 101.107 28.3378C102.427 29.0017 103.889 29.3303 105.366 29.2945H109.645V23.8948H106.903C105.795 23.8948 104.942 23.5972 104.345 23.0021C103.748 22.4069 103.451 21.5688 103.453 20.4876V11.7192H109.52V6.85917H103.33V5.98692V0.999023H97.3878V5.98692V6.85917L96.6844 6.85661Z" fill="#191B1E"/>
<path d="M6.318 23.4353H17.9104V29.2955H0V0.207031H17.4551V6.02369H6.318V11.7585H16.3731V17.4524H6.318V23.4353Z" fill="#191B1E"/>
<path d="M190.556 23.334C191.941 24.7323 193.693 25.4314 195.813 25.4314C197.932 25.4314 199.685 24.7323 201.069 23.334C202.454 21.9356 203.146 20.1835 203.146 18.0775C203.146 15.9715 202.457 14.2185 201.079 12.8184C199.695 11.4201 197.949 10.721 195.843 10.721C194.518 10.7001 193.21 11.0264 192.05 11.6674C190.938 12.2802 190.023 13.1955 189.41 14.3071C188.78 15.459 188.458 16.7543 188.477 18.0672C188.477 20.1732 189.169 21.9254 190.554 23.3237L190.556 23.334ZM196.163 6.30603C198.257 6.27458 200.322 6.79791 202.149 7.82286C203.901 8.81289 205.341 10.2741 206.305 12.0408C207.314 13.8874 207.83 15.9631 207.802 18.0672C207.802 21.4471 206.7 24.2522 204.497 26.4827C202.294 28.7132 199.517 29.8285 196.166 29.8285C193.284 29.8285 190.804 28.9281 188.727 27.1273V37.3589H186.476C185.851 37.3569 185.252 37.1075 184.809 36.6652C184.367 36.2228 184.118 35.6235 184.115 34.998V6.51833H185.732C186.358 6.52036 186.957 6.76975 187.399 7.21207C187.842 7.65439 188.091 8.25374 188.093 8.87927V9.59804C190.26 7.41019 192.951 6.31626 196.166 6.31626L196.163 6.30603Z" fill="#191B1E"/>
</svg>
