<svg width="332" height="36" viewBox="0 0 332 36" fill="none" xmlns="http://www.w3.org/2000/svg">
<path d="M26.3219 1.14039V5.70244C26.3219 5.9999 26.1209 6.1983 25.8196 6.1983H5.97753V15.5208H22.3537C22.655 15.5208 22.856 15.7189 22.856 16.0164V20.5787C22.856 20.8762 22.655 21.0743 22.3537 21.0743H5.97753V34.8595C5.97753 35.1572 5.77682 35.3554 5.47521 35.3554H0.502044C0.200707 35.3554 0 35.1572 0 34.8595V1.14039C0 0.842929 0.200707 0.644531 0.502044 0.644531H25.8196C26.1209 0.644531 26.3219 0.842929 26.3219 1.14039Z" fill="#BB6BD9"/>
<path d="M56.284 20.6775C54.4508 15.6693 52.4164 10.661 50.3313 6.09896H49.1511C47.0664 10.661 45.0068 15.6693 43.1731 20.6775H56.284ZM66.8081 35.3554H61.3326C61.0313 35.3554 60.8303 35.2064 60.7551 34.9089C60.0264 32.0576 59.1478 29.0577 58.1429 26.0329H41.3396C40.3352 29.0577 39.4561 32.0576 38.7528 34.9089C38.6776 35.2064 38.4764 35.3554 38.175 35.3554H32.9008C32.5491 35.3554 32.3479 35.1572 32.4485 34.8098C35.6131 23.7522 40.4356 11.5534 45.3081 1.28912C45.5343 0.818095 45.8107 0.644531 46.2879 0.644531H53.4207C53.8979 0.644531 54.1744 0.818095 54.4005 1.28912C59.3233 11.5288 64.0704 23.7522 67.2601 34.8098C67.3607 35.1572 67.1598 35.3554 66.8081 35.3554Z" fill="#BB6BD9"/>
<path d="M75.7988 18.2976C75.7988 7.53692 82.982 0 93.2299 0H93.983C100.413 0 105.386 3.22294 108.023 7.88405C108.199 8.18178 108.149 8.42957 107.848 8.57858L103.427 10.7353C103.126 10.884 102.749 10.884 102.548 10.5123C100.689 7.3388 97.9015 5.65283 93.7823 5.65283H93.0287C86.574 5.65283 82.128 10.7107 82.128 18.0498C82.128 25.4134 86.4985 30.3472 93.0287 30.3472H93.7823C98.0021 30.3472 100.463 28.9338 102.347 26.7768C102.598 26.5039 102.875 26.4545 103.176 26.6033L107.722 28.7851C107.898 28.8842 107.973 29.0081 107.973 29.1322C107.973 29.2561 107.923 29.3555 107.823 29.5039C105.035 33.5207 100.011 36 93.8829 36H93.1293C82.7061 36 75.7988 28.9338 75.7988 18.2976Z" fill="#BB6BD9"/>
<path d="M148.032 30.2974V34.8595C148.032 35.1572 147.831 35.3554 147.53 35.3554H121.157C120.856 35.3554 120.655 35.1572 120.655 34.8595V1.14039C120.655 0.842929 120.856 0.644531 121.157 0.644531H147.078C147.379 0.644531 147.58 0.842929 147.58 1.14039V5.70244C147.58 5.9999 147.379 6.1983 147.078 6.1983H126.633V15.2228H143.26C143.561 15.2228 143.762 15.4215 143.762 15.7189V20.2313C143.762 20.5288 143.561 20.7272 143.26 20.7272H126.633V29.8016H147.53C147.831 29.8016 148.032 30 148.032 30.2974Z" fill="#BB6BD9"/>
<path d="M187.314 25.3138C187.314 22.0908 185.154 20.6278 180.407 20.6278H168.577V29.9503H180.407C185.23 29.9503 187.314 28.5618 187.314 25.3138ZM178.724 6.04957H168.577V15.3718H178.724C183.27 15.3718 185.355 13.9088 185.355 10.7107C185.355 7.51203 183.27 6.04957 178.724 6.04957ZM193.443 25.8347C193.443 31.9089 188.721 35.3554 180.382 35.3554H163.102C162.8 35.3554 162.6 35.1572 162.6 34.8595V1.14039C162.6 0.842929 162.8 0.644531 163.102 0.644531H178.85C186.963 0.644531 191.383 3.81807 191.383 9.61963C191.383 13.4378 189.424 15.9421 185.456 17.1072C191.031 18.2724 193.443 21.5701 193.443 25.8347Z" fill="#BB6BD9"/>
<path d="M222.801 30.3472C230.008 30.3472 234.556 25.4628 234.556 18.0001C234.556 10.5369 230.008 5.65283 222.801 5.65283H222.046C214.839 5.65283 210.293 10.5369 210.293 18.0001C210.293 25.4628 214.839 30.3472 222.046 30.3472H222.801ZM203.963 18.0001C203.963 7.53692 210.996 0 222.046 0H222.801C233.851 0 240.884 7.53692 240.884 18.0001C240.884 28.4628 233.851 36 222.801 36H222.046C210.996 36 203.963 28.4628 203.963 18.0001Z" fill="#BB6BD9"/>
<path d="M269.919 30.3472C277.129 30.3472 281.674 25.4628 281.674 18.0001C281.674 10.5369 277.129 5.65283 269.919 5.65283H269.167C261.957 5.65283 257.412 10.5369 257.412 18.0001C257.412 25.4628 261.957 30.3472 269.167 30.3472H269.919ZM251.081 18.0001C251.081 7.53692 258.114 0 269.167 0H269.919C280.971 0 288.004 7.53692 288.004 18.0001C288.004 28.4628 280.971 36 269.919 36H269.167C258.114 36 251.081 28.4628 251.081 18.0001Z" fill="#BB6BD9"/>
<path d="M331.328 35.3554H324.848C324.422 35.3554 324.245 35.256 323.969 34.9337C319.424 29.6529 314.049 24.3968 309.477 20.5288H306.563V34.8595C306.563 35.1572 306.361 35.3554 306.06 35.3554H301.086C300.785 35.3554 300.586 35.1572 300.586 34.8595V1.14039C300.586 0.842929 300.785 0.644531 301.086 0.644531H306.06C306.361 0.644531 306.563 0.842929 306.563 1.14039V14.8265H309.527C314.425 10.4626 318.945 5.75211 322.639 1.01622C322.888 0.693926 323.089 0.644531 323.391 0.644531H329.52C329.821 0.644531 329.973 0.793261 329.973 0.991659C329.973 1.09072 329.921 1.21462 329.796 1.36335C324.397 7.93366 319.045 13.3139 314.099 17.4791C320.328 22.6855 326.23 28.4873 331.604 34.7353C331.881 35.0576 331.732 35.3554 331.328 35.3554Z" fill="#BB6BD9"/>
</svg>
