<svg width="181" height="40" viewBox="0 0 181 40" fill="#191919" xmlns="http://www.w3.org/2000/svg">
<g style="mix-blend-mode:exclusion">
<path d="M20.2793 25.2452V0.0739746H28.4849V24.209C28.4849 25.9084 28.8578 26.3225 30.5982 26.3225H31.3026L32.2699 32.9809C31.648 33.0634 29.1069 33.2438 27.5726 33.2438C23.0557 33.2455 20.2793 31.6716 20.2793 25.2452ZM83.1429 9.86993L89.5256 9.37162L90.1476 11.2738C91.4327 10.071 93.6697 8.86989 98.4786 8.86989C106.768 8.86989 108.676 14.7155 108.676 21.2227C108.676 27.7728 106.562 33.5342 97.9821 33.5342C94.1696 33.5342 92.3862 32.663 91.3502 31.7094V40.0001H83.1429V9.86993ZM100.346 21.556C100.346 18.7792 99.848 16.3324 96.2846 16.3324C92.4721 16.3324 91.3519 18.2809 91.3519 21.556C91.3519 24.8311 92.1801 26.6129 96.2846 26.6129C99.7655 26.6146 100.346 24.3328 100.346 21.556ZM137.955 9.86993L144.338 9.37162L145.168 11.8563C146.204 10.4473 149.065 9.24447 152.463 9.12076V17.0214C146.991 17.0627 146.163 18.6968 146.163 21.9306V33.163H137.955V9.86993ZM154.753 9.1345H158.982L160.308 4.31299L166.649 2.94523V9.13622H171.831V17.0317H166.649V23.8791C166.649 25.496 166.899 26.3242 169.467 26.3242H171.829V33.163C170.586 33.2455 169.218 33.2867 167.684 33.2867C160.761 33.2867 158.482 31.0891 158.482 25.1214V17.03H154.752V9.1345H154.753Z" fill="#191919" fill-opacity="0.7"/>
<path d="M174.104 26.323H180.938V33.1583H174.104V26.323Z" fill="#191919" fill-opacity="0.7"/>
<path d="M0 9.40934H4.47565V8.95399C4.47565 2.98466 6.71434 0 14.4235 0C16.4542 0 16.8271 0.0429572 17.8219 0.125435V6.79926H15.5437C13.1813 6.79926 12.6847 7.38004 12.6847 8.91275V9.41106H17.8236V16.3753H12.683V33.1629H4.47565V16.3736H0V9.40934ZM50.1359 26.075C48.7786 26.8689 48.0776 27.0476 45.3699 27.0476C42.157 27.0476 40.9217 25.9049 40.5094 23.9684H56.2884C56.577 15.6038 55.8761 8.84746 45.3716 8.84746C34.8259 8.84746 32.601 14.657 32.601 21.1246C32.601 27.7589 34.8259 33.5977 45.3716 33.5977C49.5311 33.5977 52.1529 32.8279 54.9363 31.0185L50.1359 26.075ZM45.1242 15.6038C48.502 15.6038 48.7494 17.2104 48.8731 19.1469H40.4269C40.7585 16.8804 41.8289 15.6038 45.1242 15.6038Z" fill="#191919" fill-opacity="0.7"/>
<path d="M72.5601 33.1731L68.5363 27.4202L64.5125 33.1731H55.3379L63.9267 20.9354L56.1248 9.87825L65.3991 9.87138L68.5759 14.3836L71.7543 9.8731L81.13 9.87825L73.1821 20.8804L81.7966 33.1731H72.5601ZM110.374 21.2241C110.374 13.3492 113.98 8.87134 123.265 8.87134C132.549 8.87134 136.114 13.3492 136.114 21.2241C136.114 29.1007 132.549 33.6198 123.265 33.6198C113.98 33.6198 110.374 29.1007 110.374 21.2241ZM127.866 21.4733C127.866 18.4886 127.12 16.3321 123.265 16.3321C119.411 16.3321 118.664 18.4869 118.664 21.4733C118.664 24.4167 119.409 26.6144 123.265 26.6144C127.12 26.6144 127.866 24.4167 127.866 21.4733Z" fill="#191919" fill-opacity="0.7"/>
</g>
</svg>
