<svg width="11" height="11" viewBox="0 0 11 11" fill="none" xmlns="http://www.w3.org/2000/svg">
<path fill-rule="evenodd" clip-rule="evenodd" d="M5.50658 0.0207901C4.19957 0.0194308 2.93481 0.494382 1.93895 1.36053C0.943084 2.22668 0.281213 3.4274 0.0719451 4.74753C-0.137322 6.06766 0.119693 7.4209 0.796934 8.56474C1.47417 9.70858 2.52737 10.5682 3.76778 10.9897C4.04126 11.0415 4.14255 10.8653 4.14255 10.7168V9.7598C2.61309 10.1053 2.28896 9.00666 2.28896 9.00666C2.18808 8.66854 1.97567 8.37671 1.68798 8.18097C1.19166 7.83549 1.72849 7.83549 1.72849 7.83549C1.90224 7.86137 2.06806 7.92699 2.21361 8.02747C2.35916 8.12796 2.4807 8.26072 2.56919 8.41589C2.71949 8.69457 2.97165 8.90089 3.27039 8.98962C3.56912 9.07834 3.89005 9.04223 4.16281 8.88919C4.18221 8.60452 4.30222 8.3368 4.50044 8.13605C3.27822 7.99441 1.99522 7.51074 1.99522 5.37223C1.98543 4.81334 2.1875 4.27227 2.55906 3.8625C2.39244 3.37703 2.41174 2.84499 2.61309 2.37349C2.61309 2.37349 3.07564 2.22148 4.12567 2.95044C5.0275 2.69831 5.97891 2.69831 6.88073 2.95044C7.93077 2.22148 8.38994 2.37349 8.38994 2.37349C8.58493 2.83939 8.60299 3.36297 8.44059 3.84177C8.80945 4.25325 9.0111 4.79318 9.00443 5.35151C9.00443 7.51419 7.71806 7.9875 6.49246 8.11532C6.62316 8.25103 6.72416 8.41361 6.78877 8.5923C6.85339 8.77099 6.88013 8.96169 6.86723 9.15176V10.7099C6.86723 10.893 6.96514 11.0346 7.24538 10.9828C8.49167 10.5651 9.55122 9.70567 10.2331 8.55942C10.9151 7.41317 11.1745 6.05541 10.9648 4.73075C10.7551 3.40609 10.09 2.2016 9.08925 1.33427C8.08854 0.466945 6.81802 -0.00620419 5.50658 6.14395e-05V0.0207901Z" fill="#191717"/>
</svg>
