<svg width="120" height="120" viewBox="0 0 120 120" fill="none" xmlns="http://www.w3.org/2000/svg">
<g filter="url(#filter0_f)">
<circle cx="60" cy="60" r="16" fill="#16FF11"/>
</g>
<path d="M93.3699 87.5123L79.8736 74.0221C79.6702 73.8189 79.3944 73.7047 79.1069 73.7047C78.8193 73.7047 78.5435 73.8189 78.3401 74.0221L75.9593 76.4014L72.8211 73.2659C76.8811 68.8426 79.1319 63.0559 79.1276 57.0519C79.1276 43.7894 68.3326 33 55.0638 33C41.795 33 31 43.7894 31 57.0519C31 70.3143 41.7949 81.1037 55.0638 81.1037C61.0703 81.1083 66.8597 78.8585 71.2868 74.7993L74.4244 77.935L72.015 80.343C71.9142 80.4437 71.8342 80.5633 71.7797 80.695C71.7251 80.8266 71.6971 80.9677 71.6971 81.1102C71.6971 81.2527 71.7251 81.3938 71.7797 81.5254C71.8342 81.657 71.9142 81.7766 72.015 81.8774L85.5045 95.3597C85.5868 95.4435 85.6726 95.5255 85.7601 95.6037C86.8418 96.5615 88.2541 97.0602 89.6973 96.9942C91.1406 96.9282 92.5015 96.3027 93.4913 95.2502C94.481 94.1978 95.022 92.8012 94.9993 91.3567C94.9767 89.9121 94.3922 88.5332 93.3699 87.5123ZM55.0638 78.9335C42.9912 78.9335 33.1694 69.1173 33.1694 57.0519C33.1694 44.9865 42.9912 35.1693 55.0638 35.1693C67.1364 35.1693 76.9582 44.9853 76.9582 57.0519C76.9582 69.1185 67.1364 78.9335 55.0638 78.9335Z" fill="white"/>
<rect x="41" y="50" width="28" height="18" fill="white"/>
<ellipse opacity="0.8" cx="55" cy="57.5" rx="23" ry="22.5" fill="white"/>
<g clip-path="url(#clip0)">
<path fill-rule="evenodd" clip-rule="evenodd" d="M39.678 66.4914C39.678 67.2466 39.978 67.9708 40.512 68.5049C41.046 69.0389 41.7702 69.3389 42.5254 69.3389H67.2034C67.9586 69.3389 68.6829 69.0389 69.2169 68.5049C69.7509 67.9708 70.0509 67.2466 70.0509 66.4914V55.1016H68.1526V66.4914C68.1526 66.7431 68.0526 66.9845 67.8746 67.1625C67.6966 67.3405 67.4551 67.4405 67.2034 67.4405H42.5254C42.2737 67.4405 42.0323 67.3405 41.8543 67.1625C41.6763 66.9845 41.5763 66.7431 41.5763 66.4914V55.1016H39.678V66.4914Z" fill="black"/>
<path fill-rule="evenodd" clip-rule="evenodd" d="M39.678 51.3052C39.678 50.55 39.978 49.8257 40.512 49.2917C41.046 48.7577 41.7702 48.4577 42.5254 48.4577H67.2034C67.9586 48.4577 68.6829 48.7577 69.2169 49.2917C69.7509 49.8257 70.0509 50.55 70.0509 51.3052V55.8308L55.5972 59.6843C55.117 59.8122 54.6118 59.8122 54.1317 59.6843L39.678 55.8308V51.3052ZM42.5254 50.356C42.2737 50.356 42.0323 50.456 41.8543 50.634C41.6763 50.812 41.5763 51.0535 41.5763 51.3052V54.3729L54.6195 57.8506C54.78 57.8934 54.9489 57.8934 55.1093 57.8506L68.1526 54.3729V51.3052C68.1526 51.0535 68.0526 50.812 67.8746 50.634C67.6966 50.456 67.4551 50.356 67.2034 50.356H42.5254ZM49.1695 47.5086C49.1695 46.7534 49.4695 46.0291 50.0035 45.4951C50.5375 44.9611 51.2618 44.6611 52.017 44.6611H57.7119C58.4671 44.6611 59.1913 44.9611 59.7253 45.4951C60.2593 46.0291 60.5593 46.7534 60.5593 47.5086V48.4577H58.661V47.5086C58.661 47.2569 58.561 47.0154 58.383 46.8374C58.205 46.6594 57.9636 46.5594 57.7119 46.5594H52.017C51.7652 46.5594 51.5238 46.6594 51.3458 46.8374C51.1678 47.0154 51.0678 47.2569 51.0678 47.5086V48.4577H49.1695V47.5086Z" fill="black"/>
</g>
<path d="M93.3699 87.5123L79.8736 74.0221C79.6702 73.8189 79.3944 73.7047 79.1069 73.7047C78.8193 73.7047 78.5435 73.8189 78.3401 74.0221L75.9593 76.4014L72.8211 73.2659C76.8811 68.8426 79.1319 63.0559 79.1276 57.0519C79.1276 43.7894 68.3326 33 55.0638 33C41.795 33 31 43.7894 31 57.0519C31 70.3143 41.7949 81.1037 55.0638 81.1037C61.0703 81.1083 66.8597 78.8585 71.2868 74.7993L74.4244 77.935L72.015 80.343C71.9142 80.4437 71.8342 80.5633 71.7797 80.695C71.7251 80.8266 71.6971 80.9677 71.6971 81.1102C71.6971 81.2527 71.7251 81.3938 71.7797 81.5254C71.8342 81.657 71.9142 81.7766 72.015 81.8774L85.5045 95.3597C85.5868 95.4435 85.6726 95.5255 85.7601 95.6037C86.8418 96.5615 88.2541 97.0602 89.6973 96.9942C91.1406 96.9282 92.5015 96.3027 93.4913 95.2502C94.481 94.1978 95.022 92.8012 94.9993 91.3567C94.9767 89.9121 94.3922 88.5332 93.3699 87.5123ZM55.0638 78.9335C42.9912 78.9335 33.1694 69.1173 33.1694 57.0519C33.1694 44.9865 42.9912 35.1693 55.0638 35.1693C67.1364 35.1693 76.9582 44.9853 76.9582 57.0519C76.9582 69.1185 67.1364 78.9335 55.0638 78.9335ZM91.8279 93.8408C91.2193 94.4468 90.4031 94.7988 89.5447 94.8257C88.6863 94.8526 87.8497 94.5523 87.2044 93.9856C87.1524 93.9394 87.1012 93.8907 87.0446 93.8329L74.3154 81.1103L79.1062 76.3232L91.8288 89.0396C92.4641 89.6771 92.8207 90.5405 92.8205 91.4404C92.8203 92.3404 92.4634 93.2036 91.8279 93.8408Z" fill="black"/>
<defs>
<filter id="filter0_f" x="0" y="0" width="120" height="120" filterUnits="userSpaceOnUse" color-interpolation-filters="sRGB">
<feFlood flood-opacity="0" result="BackgroundImageFix"/>
<feBlend mode="normal" in="SourceGraphic" in2="BackgroundImageFix" result="shape"/>
<feGaussianBlur stdDeviation="22" result="effect1_foregroundBlur"/>
</filter>
<clipPath id="clip0">
<rect width="30.3729" height="30.3729" fill="white" transform="translate(39.678 42.7627)"/>
</clipPath>
</defs>
</svg>
