<svg width="120" height="120" viewBox="0 0 120 120" fill="none" xmlns="http://www.w3.org/2000/svg">
<g filter="url(#filter0_f)">
<circle cx="60" cy="60" r="16" fill="#16FF11"/>
</g>
<path d="M42.004 47L28 74H91L78.3219 47H42.004Z" fill="white"/>
<path d="M56.2395 34.7345H67.4368V31.3753C67.4368 31.0783 67.3189 30.7935 67.1089 30.5835C66.8989 30.3736 66.6141 30.2556 66.3171 30.2556H57.3592C57.0622 30.2556 56.7774 30.3736 56.5674 30.5835C56.3574 30.7935 56.2395 31.0783 56.2395 31.3753V34.7345Z" fill="white"/>
<path fill-rule="evenodd" clip-rule="evenodd" d="M93.1842 72.7895V75.029H60.7119V89.7605H68.55V92H50.6342V89.7605H58.4724V75.029H26V72.7895H27.534L40.9709 45.9158H71.9092V36.5772L69.6698 35.4575V36.9579H53.9934V31.3592C53.9934 30.4683 54.3474 29.6139 54.9773 28.9839C55.6073 28.3539 56.4617 28 57.3527 28H66.3106C67.2015 28 68.0559 28.3539 68.6859 28.9839C69.3158 29.6139 69.6698 30.4683 69.6698 31.3592V32.9828L74.1487 35.2223V45.9158H78.2022L91.639 72.7895H93.1842ZM56.2329 34.7184H67.4303V31.3592C67.4303 31.0622 67.3123 30.7774 67.1023 30.5674C66.8923 30.3574 66.6075 30.2395 66.3106 30.2395H57.3527C57.0557 30.2395 56.7709 30.3574 56.5609 30.5674C56.3509 30.7774 56.2329 31.0622 56.2329 31.3592V34.7184ZM71.9092 48.1553H42.3594L30.0423 72.7895H89.1308L76.8137 48.1553H74.1487V49.275H71.9092V48.1553ZM39.0561 66.0711L45.4386 52.6343H67.0607L72.4467 66.0711H39.0561ZM46.8495 54.8738L42.5945 63.8317H69.1322L65.5491 54.8738H46.8495Z" fill="black"/>
<defs>
<filter id="filter0_f" x="0" y="0" width="120" height="120" filterUnits="userSpaceOnUse" color-interpolation-filters="sRGB">
<feFlood flood-opacity="0" result="BackgroundImageFix"/>
<feBlend mode="normal" in="SourceGraphic" in2="BackgroundImageFix" result="shape"/>
<feGaussianBlur stdDeviation="22" result="effect1_foregroundBlur"/>
</filter>
</defs>
</svg>
