<svg width="11" height="10" viewBox="0 0 11 10" fill="none" xmlns="http://www.w3.org/2000/svg">
<path fill-rule="evenodd" clip-rule="evenodd" d="M11 10H8.56885V6.4846C8.56885 5.56445 8.18856 4.93629 7.35231 4.93629C6.71267 4.93629 6.35694 5.36019 6.19138 5.76871C6.12929 5.91535 6.13899 6.11961 6.13899 6.32388V10H3.73048C3.73048 10 3.76153 3.77281 3.73048 3.20676H6.13899V4.27291C6.28128 3.80675 7.05091 3.14145 8.2791 3.14145C9.80285 3.14145 11 4.11859 11 6.22271V10ZM1.2948 2.35705H1.27928C0.503176 2.35705 0 1.83774 0 1.17948C0 0.508418 0.51805 0 1.30968 0C2.10066 0 2.58702 0.507143 2.60254 1.17757C2.60254 1.83582 2.10066 2.35705 1.2948 2.35705ZM0.277451 3.20676H2.42145V10H0.277451V3.20676Z" fill="black"/>
</svg>
