<svg width="375" height="350" viewBox="0 0 375 350" fill="none" xmlns="http://www.w3.org/2000/svg">
<g filter="url(#filter0_d)">
<rect width="375" height="287" fill="#191919"/>
</g>
<mask id="mask0" mask-type="alpha" maskUnits="userSpaceOnUse" x="126" y="80" width="124" height="143">
<path d="M187.672 80L249.343 115.606V186.819L187.672 222.425L126 186.819V115.606L187.672 80Z" fill="white"/>
</mask>
<g mask="url(#mask0)">
<path d="M139.625 79.142H125.897V223.283H139.625V79.142Z" fill="white"/>
<path d="M167.08 79.142H153.353V223.283H167.08V79.142Z" fill="white"/>
<path d="M194.536 79.142H180.808V223.283H194.536V79.142Z" fill="white"/>
<path d="M189.17 94.5238L182.306 82.6353L57.4762 154.706L64.34 166.594L189.17 94.5238Z" fill="white"/>
<path d="M313.577 150.293L306.713 138.404L181.883 210.475L188.747 222.363L313.577 150.293Z" fill="white"/>
<path d="M221.991 79.142H208.263V223.283H221.991V79.142Z" fill="white"/>
<path d="M249.446 79.142H235.719V223.283H249.446V79.142Z" fill="white"/>
</g>
<path d="M105.436 304H85.006C82.0971 304 80 306.037 80 308.731V325.883C80 328.577 82.0971 330.614 85.006 330.614H100.904C101.851 330.614 102.189 331.074 102.189 331.863V341.26C102.189 342.114 101.851 342.574 100.904 342.574H89.5385C88.5914 342.574 88.2532 342.114 88.2532 341.26V336.594H80V345.269C80 347.897 82.0971 350 85.006 350H105.436C108.413 350 110.442 347.897 110.442 345.269V327.92C110.442 325.226 108.413 323.189 105.436 323.189H89.5385C88.5914 323.189 88.2532 322.729 88.2532 321.874V312.74C88.2532 311.886 88.5914 311.426 89.5385 311.426H100.904C101.851 311.426 102.189 311.886 102.189 312.74V316.814H110.442V308.731C110.442 306.037 108.413 304 105.436 304Z" fill="#191919"/>
<path d="M139.254 304V341.26C139.254 342.114 138.916 342.574 137.968 342.574H126.603C125.656 342.574 125.318 342.114 125.318 341.26V304H117.065V345.269C117.065 347.897 119.162 350 122.071 350H142.501C145.477 350 147.507 347.897 147.507 345.269V304H139.254Z" fill="#191919"/>
<path d="M195.728 304H184.16L174.824 331.534L165.488 304H154.259V350H162.512V318.851L171.306 344.217H178.409L187.474 317.931V350H195.728V304Z" fill="#191919"/>
<path d="M243.954 304H232.386L223.05 331.534L213.715 304H202.485V350H210.738V318.851L219.533 344.217H226.636L235.701 317.931V350H243.954V304Z" fill="#191919"/>
<path d="M250.914 350H259.168V304H250.914V350Z" fill="#191919"/>
<path d="M295 304H264.558V311.426H275.72V350H283.973V311.426H295V304Z" fill="#191919"/>
<path d="M101.596 263H95.5714L90.7098 277.636L85.8481 263H80V287.451H84.298V270.894L88.8778 284.377H92.5769L97.2977 270.405V287.451H101.596V263Z" fill="white"/>
<path d="M120.98 263H110.341C108.826 263 107.734 264.083 107.734 265.515V284.936C107.734 286.333 108.826 287.451 110.341 287.451H120.98C122.53 287.451 123.587 286.333 123.587 284.936V265.515C123.587 264.083 122.53 263 120.98 263ZM119.289 267.646V282.805C119.289 283.259 119.113 283.504 118.619 283.504H112.701C112.208 283.504 112.032 283.259 112.032 282.805V267.646C112.032 267.192 112.208 266.947 112.701 266.947H118.619C119.113 266.947 119.289 267.192 119.289 267.646Z" fill="white"/>
<path d="M142.971 263H129.725V287.451H142.971C144.521 287.451 145.578 286.333 145.578 284.936V265.515C145.578 264.083 144.521 263 142.971 263ZM141.28 267.646V282.805C141.28 283.259 141.104 283.504 140.611 283.504H134.023V266.947H140.611C141.104 266.947 141.28 267.192 141.28 267.646Z" fill="white"/>
<path d="M165.912 266.947V263H151.715V287.451H165.912V283.504H156.013V277.182H163.411V273.2H156.013V266.947H165.912Z" fill="white"/>
<path d="M185.094 263H171.812V287.451H176.11V277.845H182.628C183.156 277.845 183.403 278.125 183.403 278.649V287.451H187.701V278.09C187.701 276.972 187.102 276.134 185.869 275.889C187.102 275.575 187.701 274.771 187.701 273.654V265.515C187.701 264.083 186.609 263 185.094 263ZM183.403 267.646V273.095C183.403 273.619 183.156 273.898 182.628 273.898H176.11V266.947H182.734C183.227 266.947 183.403 267.192 183.403 267.646Z" fill="white"/>
<path d="M206.588 263V278.998L198.838 263H193.905V287.451H198.133V271.348L205.954 287.451H210.816V263H206.588Z" fill="white"/>
<path d="M249.357 263L246.785 280.43L243.297 266.074H239.387L235.899 280.43L233.327 263H228.571L232.764 287.451H238.435L241.36 275.121L244.248 287.451H249.92L254.113 263H249.357Z" fill="white"/>
<path d="M273.247 266.947V263H259.049V287.451H273.247V283.504H263.347V277.182H270.745V273.2H263.347V266.947H273.247Z" fill="white"/>
<path d="M292.393 263H279.147V287.451H292.393C293.943 287.451 295 286.333 295 284.936V277.321C295 276.204 294.436 275.365 293.168 275.121C294.436 274.841 295 274.003 295 272.885V265.515C295 264.083 293.943 263 292.393 263ZM290.702 267.646V272.326C290.702 272.885 290.455 273.13 289.927 273.13H283.445V266.947H290.033C290.526 266.947 290.702 267.192 290.702 267.646ZM290.702 277.88V282.805C290.702 283.259 290.526 283.504 290.033 283.504H283.445V277.112H289.927C290.455 277.112 290.702 277.356 290.702 277.88Z" fill="white"/>
<path d="M88.4118 23.212V19.6C88.4118 19.336 88.3638 19.072 88.2078 18.844C88.0518 18.652 87.5958 18.136 87.3318 17.98C87.1278 17.86 86.8278 17.752 86.5398 17.752H84.7158C84.4158 17.752 84.1278 17.86 83.9238 17.98C83.6598 18.136 83.1918 18.652 83.0478 18.844C82.8918 19.072 82.8438 19.336 82.8438 19.6V23.212C82.8438 23.464 82.8918 23.728 83.0478 23.956C83.1918 24.16 83.6598 24.676 83.9238 24.832C84.1278 24.952 84.4158 25.06 84.7158 25.06H86.5398C86.8278 25.06 87.1278 24.952 87.3318 24.832C87.5958 24.676 88.0518 24.16 88.2078 23.956C88.3638 23.728 88.4118 23.464 88.4118 23.212ZM86.9478 23.212C86.8158 23.38 86.5998 23.584 86.5038 23.656H84.7398C84.6438 23.596 84.4398 23.392 84.3078 23.212V19.612C84.4518 19.408 84.6558 19.228 84.7518 19.156H86.5158C86.6358 19.228 86.8638 19.456 86.9478 19.6V23.212ZM101.108 25V17.8H99.6445V22.096L97.3405 17.8H95.8405V25H97.3045V20.764L99.6325 25H101.108ZM113.258 25V23.584H110.066V17.8H108.602V25H113.258ZM121.751 25V17.8H120.275V25H121.751ZM134.554 25V17.8H133.09V22.096L130.786 17.8H129.286V25H130.75V20.764L133.078 25H134.554ZM146.776 25V23.596H143.512V22.084H146.668V20.68H143.512V19.204H146.776V17.8H142.048V25H146.776ZM168.806 22.732V21.388H167.018V23.356C166.934 23.512 166.73 23.644 166.682 23.644H164.87C164.846 23.644 164.654 23.488 164.558 23.344V22.42C164.654 22.276 164.846 22.108 164.87 22.108H166.178V20.752H164.87C164.822 20.752 164.642 20.584 164.558 20.416V19.492C164.654 19.336 164.846 19.156 164.87 19.156H165.902C166.034 19.216 166.25 19.252 166.454 19.66L167.786 19.288C167.714 19.096 167.618 18.94 167.51 18.772C167.258 18.376 166.718 17.752 165.938 17.752H164.87C164.522 17.752 164.21 17.896 163.97 18.064C163.802 18.184 163.454 18.52 163.334 18.7C163.19 18.916 163.094 19.228 163.094 19.492V20.404C163.094 20.884 163.298 21.16 163.526 21.412C163.31 21.64 163.094 21.964 163.094 22.42V23.344C163.094 23.632 163.178 23.908 163.334 24.124C163.442 24.292 163.79 24.652 163.97 24.784C164.21 24.952 164.57 25.06 164.87 25.06H166.682C166.982 25.06 167.354 24.952 167.594 24.784C167.774 24.664 168.122 24.292 168.242 24.124C168.386 23.908 168.482 23.62 168.482 23.344V22.732H168.806ZM193.072 17.8H191.512C191.2 19.252 190.888 20.776 190.576 22.24L189.532 17.8H188.044C187.708 19.252 187.336 20.776 187 22.24L186.052 17.8H184.54L186.184 25H187.756C188.092 23.608 188.452 22.18 188.788 20.788L189.832 25H191.404L193.072 17.8ZM205.482 23.212V19.6C205.482 19.336 205.434 19.072 205.278 18.844C205.122 18.652 204.666 18.136 204.402 17.98C204.198 17.86 203.898 17.752 203.61 17.752H201.786C201.486 17.752 201.198 17.86 200.994 17.98C200.73 18.136 200.262 18.652 200.118 18.844C199.962 19.072 199.914 19.336 199.914 19.6V23.212C199.914 23.464 199.962 23.728 200.118 23.956C200.262 24.16 200.73 24.676 200.994 24.832C201.198 24.952 201.486 25.06 201.786 25.06H203.61C203.898 25.06 204.198 24.952 204.402 24.832C204.666 24.676 205.122 24.16 205.278 23.956C205.434 23.728 205.482 23.464 205.482 23.212ZM204.018 23.212C203.886 23.38 203.67 23.584 203.574 23.656H201.81C201.714 23.596 201.51 23.392 201.378 23.212V19.612C201.522 19.408 201.726 19.228 201.822 19.156H203.586C203.706 19.228 203.934 19.456 204.018 19.6V23.212ZM218.191 20.548V19.528C218.191 19.264 218.119 18.952 217.963 18.736C217.843 18.58 217.483 18.208 217.315 18.076C217.087 17.908 216.715 17.8 216.415 17.8H212.911V25H214.375V22.252H215.527L216.955 25H218.587C218.587 25 217.615 23.224 217.027 22.144C217.123 22.096 217.219 22.048 217.315 21.976C217.483 21.856 217.855 21.496 217.963 21.328C218.119 21.1 218.191 20.836 218.191 20.548ZM216.727 20.56C216.655 20.68 216.451 20.848 216.415 20.848H214.375V19.204H216.415C216.535 19.264 216.667 19.396 216.727 19.492V20.56ZM230.352 25V23.584H227.16V17.8H225.696V25H230.352ZM242.661 23.188V19.636C242.661 19.384 242.625 19.132 242.457 18.892C242.313 18.7 241.869 18.184 241.605 18.016C241.377 17.872 241.065 17.8 240.813 17.8H237.321V25H240.813C241.089 25 241.377 24.88 241.581 24.772C241.845 24.616 242.301 24.16 242.469 23.92C242.613 23.692 242.661 23.404 242.661 23.188ZM241.197 23.14C241.077 23.368 240.921 23.5 240.753 23.596H238.785V19.204H240.753C240.933 19.312 241.089 19.432 241.197 19.696V23.14ZM258.134 17.8H256.574C256.262 19.252 255.95 20.776 255.638 22.24L254.594 17.8H253.106C252.77 19.252 252.398 20.776 252.062 22.24L251.114 17.8H249.602L251.246 25H252.818C253.154 23.608 253.514 22.18 253.85 20.788L254.894 25H256.466L258.134 17.8ZM266.525 25V17.8H265.049V25H266.525ZM279.399 23.188V19.636C279.399 19.384 279.363 19.132 279.195 18.892C279.051 18.7 278.607 18.184 278.343 18.016C278.115 17.872 277.803 17.8 277.551 17.8H274.059V25H277.551C277.827 25 278.115 24.88 278.319 24.772C278.583 24.616 279.039 24.16 279.207 23.92C279.351 23.692 279.399 23.404 279.399 23.188ZM277.935 23.14C277.815 23.368 277.659 23.5 277.491 23.596H275.523V19.204H277.491C277.671 19.312 277.827 19.432 277.935 19.696V23.14ZM291.561 25V23.596H288.297V22.084H291.453V20.68H288.297V19.204H291.561V17.8H286.833V25H291.561ZM135.951 40V32.8H134.367C133.839 33.868 133.311 34.984 132.783 36.064L131.175 32.8H129.579V40H131.043V35.68L132.279 38.284H133.239C133.647 37.42 134.079 36.544 134.487 35.668V40H135.951ZM149.489 40L147.005 32.8H145.385L142.889 40H144.449C144.605 39.556 144.785 39.064 144.941 38.62H147.449L147.929 40H149.489ZM147.005 37.216H145.385C145.649 36.448 145.925 35.668 146.189 34.9L147.005 37.216ZM161.706 35.548V34.528C161.706 34.264 161.634 33.952 161.478 33.736C161.358 33.58 160.998 33.208 160.83 33.076C160.602 32.908 160.23 32.8 159.93 32.8H156.426V40H157.89V37.252H159.042L160.47 40H162.102C162.102 40 161.13 38.224 160.542 37.144C160.638 37.096 160.734 37.048 160.83 36.976C160.998 36.856 161.37 36.496 161.478 36.328C161.634 36.1 161.706 35.836 161.706 35.548ZM160.242 35.56C160.17 35.68 159.966 35.848 159.93 35.848H157.89V34.204H159.93C160.05 34.264 160.182 34.396 160.242 34.492V35.56ZM174.624 34.528C174.528 34.276 174.408 34.024 174.216 33.76C173.928 33.364 173.376 32.752 172.644 32.752H171.072C170.784 32.752 170.484 32.872 170.292 32.98C170.016 33.148 169.548 33.652 169.404 33.844C169.248 34.072 169.2 34.324 169.2 34.588V38.224C169.2 38.464 169.26 38.74 169.404 38.968C169.572 39.196 170.028 39.676 170.28 39.832C170.484 39.952 170.784 40.06 171.072 40.06H172.644C173.376 40.06 173.94 39.448 174.228 39.04C174.384 38.824 174.528 38.572 174.636 38.272L173.268 37.936C173.1 38.236 172.908 38.488 172.656 38.656H171.132C170.844 38.488 170.664 38.224 170.664 38.212V34.636C170.772 34.468 171.012 34.24 171.132 34.156H172.632C172.968 34.384 173.112 34.588 173.268 34.912L174.624 34.528ZM187.196 40V32.8H185.732V35.692H183.332V32.8H181.868V40H183.332V37.096H185.732V40H187.196ZM205.323 34.156H206.679C206.715 34.156 206.883 34.3 206.967 34.456V35.2C206.967 35.248 206.943 35.296 206.895 35.32C206.091 35.716 205.251 36.124 204.447 36.52C203.931 36.772 203.511 37.252 203.511 37.876V40H208.335V38.596H204.975V37.912C204.975 37.852 205.023 37.84 205.083 37.804C205.887 37.408 206.703 37.012 207.507 36.616C207.999 36.376 208.431 35.896 208.431 35.236V34.48C208.431 34.372 208.407 33.952 208.215 33.7C208.083 33.532 207.735 33.16 207.555 33.04C207.315 32.872 206.979 32.752 206.679 32.752H205.299C204.567 32.752 204.003 33.364 203.715 33.748C203.607 33.892 203.511 34.072 203.415 34.3L204.819 34.648C204.903 34.444 205.191 34.228 205.323 34.156ZM220.691 38.212V34.6C220.691 34.336 220.643 34.072 220.487 33.844C220.343 33.652 219.887 33.148 219.599 32.98H219.611C219.407 32.86 219.119 32.752 218.831 32.752H217.415C217.115 32.752 216.827 32.86 216.623 32.98C216.359 33.136 215.891 33.652 215.747 33.844C215.591 34.072 215.543 34.336 215.543 34.6V38.212C215.543 38.464 215.591 38.728 215.747 38.956C215.891 39.16 216.359 39.676 216.623 39.832C216.827 39.952 217.115 40.06 217.415 40.06H218.831C219.119 40.06 219.407 39.952 219.611 39.832H219.599C219.887 39.664 220.343 39.16 220.487 38.956C220.643 38.728 220.691 38.464 220.691 38.212ZM219.227 38.212C219.095 38.404 218.891 38.596 218.795 38.656H217.439C217.331 38.596 217.127 38.392 217.007 38.212V34.612C217.151 34.408 217.355 34.228 217.451 34.156H218.807C218.927 34.228 219.143 34.444 219.227 34.6V38.212ZM229.698 34.156H231.054C231.09 34.156 231.258 34.3 231.342 34.456V35.2C231.342 35.248 231.318 35.296 231.27 35.32C230.466 35.716 229.626 36.124 228.822 36.52C228.306 36.772 227.886 37.252 227.886 37.876V40H232.71V38.596H229.35V37.912C229.35 37.852 229.398 37.84 229.458 37.804C230.262 37.408 231.078 37.012 231.882 36.616C232.374 36.376 232.806 35.896 232.806 35.236V34.48C232.806 34.372 232.782 33.952 232.59 33.7C232.458 33.532 232.11 33.16 231.93 33.04C231.69 32.872 231.354 32.752 231.054 32.752H229.674C228.942 32.752 228.378 33.364 228.09 33.748C227.982 33.892 227.886 34.072 227.79 34.3L229.194 34.648C229.278 34.444 229.566 34.228 229.698 34.156ZM243.626 40V32.8H240.854V34.228H242.15V40H243.626Z" fill="white"/>
<defs>
<filter id="filter0_d" x="-20" y="-20" width="415" height="327" filterUnits="userSpaceOnUse" color-interpolation-filters="sRGB">
<feFlood flood-opacity="0" result="BackgroundImageFix"/>
<feColorMatrix in="SourceAlpha" type="matrix" values="0 0 0 0 0 0 0 0 0 0 0 0 0 0 0 0 0 0 127 0"/>
<feOffset/>
<feGaussianBlur stdDeviation="10"/>
<feColorMatrix type="matrix" values="0 0 0 0 0 0 0 0 0 0 0 0 0 0 0 0 0 0 0.2 0"/>
<feBlend mode="normal" in2="BackgroundImageFix" result="effect1_dropShadow"/>
<feBlend mode="normal" in="SourceGraphic" in2="effect1_dropShadow" result="shape"/>
</filter>
</defs>
</svg>
