<svg width="382" height="422" viewBox="0 0 382 422" fill="none" xmlns="http://www.w3.org/2000/svg">
<g filter="url(#filter0_d)">
<rect x="20" width="342" height="342" fill="#191919"/>
</g>
<mask id="mask0" mask-type="alpha" maskUnits="userSpaceOnUse" x="99" y="67" width="184" height="213">
<path d="M190.771 67.8199L282.542 120.804V226.772L190.771 279.756L99 226.772V120.804L190.771 67.8199Z" fill="white"/>
</mask>
<g mask="url(#mask0)">
<path d="M119.275 66.5432H98.8472V281.032H119.275V66.5432Z" fill="white"/>
<path d="M160.13 66.5432H139.702V281.032H160.13V66.5432Z" fill="white"/>
<path d="M200.985 66.5432H180.558V281.032H200.985V66.5432Z" fill="white"/>
<path d="M193 89.4325L182.786 71.7417L-2.9672 178.986L7.24657 196.677L193 89.4325Z" fill="white"/>
<path d="M378.124 172.419L367.911 154.729L182.158 261.973L192.371 279.664L378.124 172.419Z" fill="white"/>
<path d="M241.84 66.5432H221.412V281.032H241.84V66.5432Z" fill="white"/>
<path d="M282.695 66.5432H262.267V281.032H282.695V66.5432Z" fill="white"/>
</g>
<path d="M81.7609 358.67H54.6444C50.7834 358.67 47.9999 361.453 47.9999 365.134V388.57C47.9999 392.251 50.7834 395.034 54.6444 395.034H75.745C77.0021 395.034 77.451 395.663 77.451 396.74V409.58C77.451 410.748 77.0021 411.376 75.745 411.376H60.6603C59.4032 411.376 58.9543 410.748 58.9543 409.58V403.205H47.9999V415.058C47.9999 418.649 50.7834 421.523 54.6444 421.523H81.7609C85.7117 421.523 88.4054 418.649 88.4054 415.058V391.353C88.4054 387.672 85.7117 384.888 81.7609 384.888H60.6603C59.4032 384.888 58.9543 384.26 58.9543 383.092V370.612C58.9543 369.444 59.4032 368.816 60.6603 368.816H75.745C77.0021 368.816 77.451 369.444 77.451 370.612V376.179H88.4054V365.134C88.4054 361.453 85.7117 358.67 81.7609 358.67Z" fill="#191919"/>
<path d="M126.647 358.67V409.58C126.647 410.748 126.198 411.376 124.941 411.376H109.856C108.599 411.376 108.15 410.748 108.15 409.58V358.67H97.1957V415.058C97.1957 418.649 99.9792 421.523 103.84 421.523H130.957C134.907 421.523 137.601 418.649 137.601 415.058V358.67H126.647Z" fill="#191919"/>
<path d="M201.604 358.67H186.25L173.859 396.292L161.468 358.67H146.563V421.523H157.517V378.962L169.19 413.621H178.618L190.649 377.705V421.523H201.604V358.67Z" fill="#191919"/>
<path d="M265.614 358.67H250.26L237.869 396.292L225.478 358.67H210.573V421.523H221.527V378.962L233.2 413.621H242.628L254.66 377.705V421.523H265.614V358.67Z" fill="#191919"/>
<path d="M274.853 421.523H285.807V358.67H274.853V421.523Z" fill="#191919"/>
<path d="M333.367 358.67H292.962V368.816H307.777V421.523H318.731V368.816H333.367V358.67Z" fill="#191919"/>
<path d="M77.3521 309.254H69.3413L62.8764 328.883L56.4115 309.254H48.6349V342.047H54.3503V319.842L60.4404 337.924H65.3593L71.6368 319.186V342.047H77.3521V309.254Z" fill="white"/>
<path d="M103.128 309.254H88.9807C86.9663 309.254 85.5141 310.706 85.5141 312.627V338.674C85.5141 340.548 86.9663 342.047 88.9807 342.047H103.128C105.19 342.047 106.595 340.548 106.595 338.674V312.627C106.595 310.706 105.19 309.254 103.128 309.254ZM100.88 315.485V335.816C100.88 336.425 100.646 336.753 99.9898 336.753H92.1195C91.4636 336.753 91.2294 336.425 91.2294 335.816V315.485C91.2294 314.876 91.4636 314.548 92.1195 314.548H99.9898C100.646 314.548 100.88 314.876 100.88 315.485Z" fill="white"/>
<path d="M132.372 309.254H114.758V342.047H132.372C134.433 342.047 135.839 340.548 135.839 338.674V312.627C135.839 310.706 134.433 309.254 132.372 309.254ZM130.123 315.485V335.816C130.123 336.425 129.889 336.753 129.233 336.753H120.473V314.548H129.233C129.889 314.548 130.123 314.876 130.123 315.485Z" fill="white"/>
<path d="M162.878 314.548V309.254H143.999V342.047H162.878V336.753H149.714V328.274H159.552V322.933H149.714V314.548H162.878Z" fill="white"/>
<path d="M188.385 309.254H170.724V342.047H176.439V329.164H185.106C185.809 329.164 186.136 329.539 186.136 330.242V342.047H191.852V329.492C191.852 327.993 191.055 326.869 189.416 326.541C191.055 326.119 191.852 325.042 191.852 323.542V312.627C191.852 310.706 190.4 309.254 188.385 309.254ZM186.136 315.485V322.793C186.136 323.496 185.809 323.87 185.106 323.87H176.439V314.548H185.246C185.902 314.548 186.136 314.876 186.136 315.485Z" fill="white"/>
<path d="M216.967 309.254V330.71L206.661 309.254H200.102V342.047H205.724V320.451L216.124 342.047H222.589V309.254H216.967Z" fill="white"/>
<path d="M273.839 309.254L270.419 332.631L265.782 313.377H260.582L255.944 332.631L252.524 309.254H246.2L251.774 342.047H259.317L263.205 325.51L267.047 342.047H274.589L280.164 309.254H273.839Z" fill="white"/>
<path d="M305.607 314.548V309.254H286.728V342.047H305.607V336.753H292.443V328.274H302.281V322.933H292.443V314.548H305.607Z" fill="white"/>
<path d="M331.068 309.254H313.453V342.047H331.068C333.129 342.047 334.534 340.548 334.534 338.674V328.461C334.534 326.962 333.785 325.838 332.098 325.51C333.785 325.135 334.534 324.011 334.534 322.512V312.627C334.534 310.706 333.129 309.254 331.068 309.254ZM328.819 315.485V321.762C328.819 322.512 328.491 322.84 327.788 322.84H319.168V314.548H327.929C328.585 314.548 328.819 314.876 328.819 315.485ZM328.819 329.211V335.816C328.819 336.425 328.585 336.753 327.929 336.753H319.168V328.18H327.788C328.491 328.18 328.819 328.508 328.819 329.211Z" fill="white"/>
<path d="M91.4118 23.212V19.6C91.4118 19.336 91.3638 19.072 91.2078 18.844C91.0518 18.652 90.5958 18.136 90.3318 17.98C90.1278 17.86 89.8278 17.752 89.5398 17.752H87.7158C87.4158 17.752 87.1278 17.86 86.9238 17.98C86.6598 18.136 86.1918 18.652 86.0478 18.844C85.8918 19.072 85.8438 19.336 85.8438 19.6V23.212C85.8438 23.464 85.8918 23.728 86.0478 23.956C86.1918 24.16 86.6598 24.676 86.9238 24.832C87.1278 24.952 87.4158 25.06 87.7158 25.06H89.5398C89.8278 25.06 90.1278 24.952 90.3318 24.832C90.5958 24.676 91.0518 24.16 91.2078 23.956C91.3638 23.728 91.4118 23.464 91.4118 23.212ZM89.9478 23.212C89.8158 23.38 89.5998 23.584 89.5038 23.656H87.7398C87.6438 23.596 87.4398 23.392 87.3078 23.212V19.612C87.4518 19.408 87.6558 19.228 87.7518 19.156H89.5158C89.6358 19.228 89.8638 19.456 89.9478 19.6V23.212ZM104.108 25V17.8H102.644V22.096L100.34 17.8H98.8405V25H100.304V20.764L102.632 25H104.108ZM116.258 25V23.584H113.066V17.8H111.602V25H116.258ZM124.751 25V17.8H123.275V25H124.751ZM137.554 25V17.8H136.09V22.096L133.786 17.8H132.286V25H133.75V20.764L136.078 25H137.554ZM149.776 25V23.596H146.512V22.084H149.668V20.68H146.512V19.204H149.776V17.8H145.048V25H149.776ZM171.806 22.732V21.388H170.018V23.356C169.934 23.512 169.73 23.644 169.682 23.644H167.87C167.846 23.644 167.654 23.488 167.558 23.344V22.42C167.654 22.276 167.846 22.108 167.87 22.108H169.178V20.752H167.87C167.822 20.752 167.642 20.584 167.558 20.416V19.492C167.654 19.336 167.846 19.156 167.87 19.156H168.902C169.034 19.216 169.25 19.252 169.454 19.66L170.786 19.288C170.714 19.096 170.618 18.94 170.51 18.772C170.258 18.376 169.718 17.752 168.938 17.752H167.87C167.522 17.752 167.21 17.896 166.97 18.064C166.802 18.184 166.454 18.52 166.334 18.7C166.19 18.916 166.094 19.228 166.094 19.492V20.404C166.094 20.884 166.298 21.16 166.526 21.412C166.31 21.64 166.094 21.964 166.094 22.42V23.344C166.094 23.632 166.178 23.908 166.334 24.124C166.442 24.292 166.79 24.652 166.97 24.784C167.21 24.952 167.57 25.06 167.87 25.06H169.682C169.982 25.06 170.354 24.952 170.594 24.784C170.774 24.664 171.122 24.292 171.242 24.124C171.386 23.908 171.482 23.62 171.482 23.344V22.732H171.806ZM196.072 17.8H194.512C194.2 19.252 193.888 20.776 193.576 22.24L192.532 17.8H191.044C190.708 19.252 190.336 20.776 190 22.24L189.052 17.8H187.54L189.184 25H190.756C191.092 23.608 191.452 22.18 191.788 20.788L192.832 25H194.404L196.072 17.8ZM208.482 23.212V19.6C208.482 19.336 208.434 19.072 208.278 18.844C208.122 18.652 207.666 18.136 207.402 17.98C207.198 17.86 206.898 17.752 206.61 17.752H204.786C204.486 17.752 204.198 17.86 203.994 17.98C203.73 18.136 203.262 18.652 203.118 18.844C202.962 19.072 202.914 19.336 202.914 19.6V23.212C202.914 23.464 202.962 23.728 203.118 23.956C203.262 24.16 203.73 24.676 203.994 24.832C204.198 24.952 204.486 25.06 204.786 25.06H206.61C206.898 25.06 207.198 24.952 207.402 24.832C207.666 24.676 208.122 24.16 208.278 23.956C208.434 23.728 208.482 23.464 208.482 23.212ZM207.018 23.212C206.886 23.38 206.67 23.584 206.574 23.656H204.81C204.714 23.596 204.51 23.392 204.378 23.212V19.612C204.522 19.408 204.726 19.228 204.822 19.156H206.586C206.706 19.228 206.934 19.456 207.018 19.6V23.212ZM221.191 20.548V19.528C221.191 19.264 221.119 18.952 220.963 18.736C220.843 18.58 220.483 18.208 220.315 18.076C220.087 17.908 219.715 17.8 219.415 17.8H215.911V25H217.375V22.252H218.527L219.955 25H221.587C221.587 25 220.615 23.224 220.027 22.144C220.123 22.096 220.219 22.048 220.315 21.976C220.483 21.856 220.855 21.496 220.963 21.328C221.119 21.1 221.191 20.836 221.191 20.548ZM219.727 20.56C219.655 20.68 219.451 20.848 219.415 20.848H217.375V19.204H219.415C219.535 19.264 219.667 19.396 219.727 19.492V20.56ZM233.352 25V23.584H230.16V17.8H228.696V25H233.352ZM245.661 23.188V19.636C245.661 19.384 245.625 19.132 245.457 18.892C245.313 18.7 244.869 18.184 244.605 18.016C244.377 17.872 244.065 17.8 243.813 17.8H240.321V25H243.813C244.089 25 244.377 24.88 244.581 24.772C244.845 24.616 245.301 24.16 245.469 23.92C245.613 23.692 245.661 23.404 245.661 23.188ZM244.197 23.14C244.077 23.368 243.921 23.5 243.753 23.596H241.785V19.204H243.753C243.933 19.312 244.089 19.432 244.197 19.696V23.14ZM261.134 17.8H259.574C259.262 19.252 258.95 20.776 258.638 22.24L257.594 17.8H256.106C255.77 19.252 255.398 20.776 255.062 22.24L254.114 17.8H252.602L254.246 25H255.818C256.154 23.608 256.514 22.18 256.85 20.788L257.894 25H259.466L261.134 17.8ZM269.525 25V17.8H268.049V25H269.525ZM282.399 23.188V19.636C282.399 19.384 282.363 19.132 282.195 18.892C282.051 18.7 281.607 18.184 281.343 18.016C281.115 17.872 280.803 17.8 280.551 17.8H277.059V25H280.551C280.827 25 281.115 24.88 281.319 24.772C281.583 24.616 282.039 24.16 282.207 23.92C282.351 23.692 282.399 23.404 282.399 23.188ZM280.935 23.14C280.815 23.368 280.659 23.5 280.491 23.596H278.523V19.204H280.491C280.671 19.312 280.827 19.432 280.935 19.696V23.14ZM294.561 25V23.596H291.297V22.084H294.453V20.68H291.297V19.204H294.561V17.8H289.833V25H294.561ZM138.951 40V32.8H137.367C136.839 33.868 136.311 34.984 135.783 36.064L134.175 32.8H132.579V40H134.043V35.68L135.279 38.284H136.239C136.647 37.42 137.079 36.544 137.487 35.668V40H138.951ZM152.489 40L150.005 32.8H148.385L145.889 40H147.449C147.605 39.556 147.785 39.064 147.941 38.62H150.449L150.929 40H152.489ZM150.005 37.216H148.385C148.649 36.448 148.925 35.668 149.189 34.9L150.005 37.216ZM164.706 35.548V34.528C164.706 34.264 164.634 33.952 164.478 33.736C164.358 33.58 163.998 33.208 163.83 33.076C163.602 32.908 163.23 32.8 162.93 32.8H159.426V40H160.89V37.252H162.042L163.47 40H165.102C165.102 40 164.13 38.224 163.542 37.144C163.638 37.096 163.734 37.048 163.83 36.976C163.998 36.856 164.37 36.496 164.478 36.328C164.634 36.1 164.706 35.836 164.706 35.548ZM163.242 35.56C163.17 35.68 162.966 35.848 162.93 35.848H160.89V34.204H162.93C163.05 34.264 163.182 34.396 163.242 34.492V35.56ZM177.624 34.528C177.528 34.276 177.408 34.024 177.216 33.76C176.928 33.364 176.376 32.752 175.644 32.752H174.072C173.784 32.752 173.484 32.872 173.292 32.98C173.016 33.148 172.548 33.652 172.404 33.844C172.248 34.072 172.2 34.324 172.2 34.588V38.224C172.2 38.464 172.26 38.74 172.404 38.968C172.572 39.196 173.028 39.676 173.28 39.832C173.484 39.952 173.784 40.06 174.072 40.06H175.644C176.376 40.06 176.94 39.448 177.228 39.04C177.384 38.824 177.528 38.572 177.636 38.272L176.268 37.936C176.1 38.236 175.908 38.488 175.656 38.656H174.132C173.844 38.488 173.664 38.224 173.664 38.212V34.636C173.772 34.468 174.012 34.24 174.132 34.156H175.632C175.968 34.384 176.112 34.588 176.268 34.912L177.624 34.528ZM190.196 40V32.8H188.732V35.692H186.332V32.8H184.868V40H186.332V37.096H188.732V40H190.196ZM208.323 34.156H209.679C209.715 34.156 209.883 34.3 209.967 34.456V35.2C209.967 35.248 209.943 35.296 209.895 35.32C209.091 35.716 208.251 36.124 207.447 36.52C206.931 36.772 206.511 37.252 206.511 37.876V40H211.335V38.596H207.975V37.912C207.975 37.852 208.023 37.84 208.083 37.804C208.887 37.408 209.703 37.012 210.507 36.616C210.999 36.376 211.431 35.896 211.431 35.236V34.48C211.431 34.372 211.407 33.952 211.215 33.7C211.083 33.532 210.735 33.16 210.555 33.04C210.315 32.872 209.979 32.752 209.679 32.752H208.299C207.567 32.752 207.003 33.364 206.715 33.748C206.607 33.892 206.511 34.072 206.415 34.3L207.819 34.648C207.903 34.444 208.191 34.228 208.323 34.156ZM223.691 38.212V34.6C223.691 34.336 223.643 34.072 223.487 33.844C223.343 33.652 222.887 33.148 222.599 32.98H222.611C222.407 32.86 222.119 32.752 221.831 32.752H220.415C220.115 32.752 219.827 32.86 219.623 32.98C219.359 33.136 218.891 33.652 218.747 33.844C218.591 34.072 218.543 34.336 218.543 34.6V38.212C218.543 38.464 218.591 38.728 218.747 38.956C218.891 39.16 219.359 39.676 219.623 39.832C219.827 39.952 220.115 40.06 220.415 40.06H221.831C222.119 40.06 222.407 39.952 222.611 39.832H222.599C222.887 39.664 223.343 39.16 223.487 38.956C223.643 38.728 223.691 38.464 223.691 38.212ZM222.227 38.212C222.095 38.404 221.891 38.596 221.795 38.656H220.439C220.331 38.596 220.127 38.392 220.007 38.212V34.612C220.151 34.408 220.355 34.228 220.451 34.156H221.807C221.927 34.228 222.143 34.444 222.227 34.6V38.212ZM232.698 34.156H234.054C234.09 34.156 234.258 34.3 234.342 34.456V35.2C234.342 35.248 234.318 35.296 234.27 35.32C233.466 35.716 232.626 36.124 231.822 36.52C231.306 36.772 230.886 37.252 230.886 37.876V40H235.71V38.596H232.35V37.912C232.35 37.852 232.398 37.84 232.458 37.804C233.262 37.408 234.078 37.012 234.882 36.616C235.374 36.376 235.806 35.896 235.806 35.236V34.48C235.806 34.372 235.782 33.952 235.59 33.7C235.458 33.532 235.11 33.16 234.93 33.04C234.69 32.872 234.354 32.752 234.054 32.752H232.674C231.942 32.752 231.378 33.364 231.09 33.748C230.982 33.892 230.886 34.072 230.79 34.3L232.194 34.648C232.278 34.444 232.566 34.228 232.698 34.156ZM246.626 40V32.8H243.854V34.228H245.15V40H246.626Z" fill="white"/>
<defs>
<filter id="filter0_d" x="0" y="-20" width="382" height="382" filterUnits="userSpaceOnUse" color-interpolation-filters="sRGB">
<feFlood flood-opacity="0" result="BackgroundImageFix"/>
<feColorMatrix in="SourceAlpha" type="matrix" values="0 0 0 0 0 0 0 0 0 0 0 0 0 0 0 0 0 0 127 0"/>
<feOffset/>
<feGaussianBlur stdDeviation="10"/>
<feColorMatrix type="matrix" values="0 0 0 0 0 0 0 0 0 0 0 0 0 0 0 0 0 0 0.2 0"/>
<feBlend mode="normal" in2="BackgroundImageFix" result="effect1_dropShadow"/>
<feBlend mode="normal" in="SourceGraphic" in2="effect1_dropShadow" result="shape"/>
</filter>
</defs>
</svg>
