<svg width="6" height="8" viewBox="0 0 6 8" fill="none" xmlns="http://www.w3.org/2000/svg">
<path d="M5.64706 2.82353C5.64706 1.26588 4.38118 0 2.82353 0C1.26588 0 0 1.26588 0 2.82353C0 4.94118 2.82353 8 2.82353 8C2.82353 8 5.64706 4.94118 5.64706 2.82353ZM1.88235 2.82353C1.88235 2.30588 2.30588 1.88235 2.82353 1.88235C3.34118 1.88235 3.76471 2.30588 3.76471 2.82353C3.76471 3.07314 3.66555 3.31254 3.48904 3.48904C3.31254 3.66555 3.07314 3.76471 2.82353 3.76471C2.57391 3.76471 2.33452 3.66555 2.15802 3.48904C1.98151 3.31254 1.88235 3.07314 1.88235 2.82353Z" fill="white"/>
</svg>
