<svg width="120" height="120" viewBox="0 0 120 120" fill="none" xmlns="http://www.w3.org/2000/svg">
<g filter="url(#filter0_f)">
<circle cx="60" cy="60" r="16" fill="#16FF11"/>
</g>
<path d="M49.927 34.0027C49.0791 34.0027 48.2321 34.3234 47.5966 34.9586L28.9533 53.5987C27.6822 54.8697 27.6822 56.9886 28.9533 58.2596L33.6173 62.9236C34.7025 64.0088 36.4035 64.1614 37.6698 63.3933C38.1179 64.2887 38.7343 65.3406 39.527 66.3545C39.4996 66.3794 39.467 66.3982 39.4401 66.4256L38.2781 67.5876C36.3615 69.5042 36.3551 72.6622 38.2717 74.5788C39.1673 75.4743 40.3345 75.9352 41.5195 75.9919C41.5786 77.178 42.0376 78.3477 42.9326 79.2427C43.8275 80.1377 44.9962 80.5955 46.1803 80.6526C46.2389 81.8396 46.701 83.008 47.5966 83.9037C48.4922 84.7992 49.6594 85.2601 50.8444 85.3168C50.9035 86.5028 51.3624 87.6726 52.2574 88.5676C54.174 90.4842 57.3353 90.4748 59.2519 88.5553L60.4139 87.3933L61.5791 88.5553C63.4957 90.4715 66.6569 90.4718 68.5735 88.5553C69.478 87.6507 69.8779 86.4525 69.9286 85.2559C71.1278 85.2061 72.328 84.8006 73.2344 83.8943C74.1389 82.9899 74.5387 81.7917 74.5895 80.595C75.7886 80.5452 76.9888 80.1398 77.8952 79.2336C78.8005 78.3283 79.2034 77.1288 79.2535 75.931C80.4513 75.8812 81.6507 75.4782 82.556 74.5727C84.4725 72.656 84.4726 69.4981 82.556 67.5815L81.2814 66.3069C82.0679 65.3032 82.6882 64.2642 83.1386 63.3809C84.4067 64.1617 86.1199 64.0112 87.2104 62.9207L91.8712 58.2566C93.1422 56.9855 93.1422 54.8669 91.8712 53.5958L73.2311 34.9559C71.9601 33.6849 69.8381 33.6849 68.5671 34.9559L63.9062 39.6167C62.8193 40.7037 62.6674 42.4087 63.4395 43.6756C62.5184 44.1365 61.4316 44.7713 60.3913 45.5972C59.3571 44.7832 58.2846 44.1494 57.3753 43.6885C58.1571 42.4203 58.0124 40.7076 56.9214 39.6167L52.2574 34.9559C51.6219 34.3204 50.7749 34 49.927 34L49.927 34.0027Z" fill="white"/>
<path d="M49.927 34.0027C49.0791 34.0027 48.2321 34.3234 47.5966 34.9586L28.9533 53.5987C27.6822 54.8697 27.6822 56.9886 28.9533 58.2596L33.6173 62.9236C34.7025 64.0088 36.4035 64.1614 37.6698 63.3933C38.1179 64.2887 38.7343 65.3406 39.527 66.3545C39.4996 66.3794 39.467 66.3982 39.4401 66.4256L38.2781 67.5876C36.3615 69.5042 36.3551 72.6622 38.2717 74.5788C39.1673 75.4743 40.3345 75.9352 41.5195 75.9919C41.5786 77.178 42.0376 78.3477 42.9326 79.2427C43.8275 80.1377 44.9962 80.5955 46.1803 80.6526C46.2389 81.8396 46.701 83.008 47.5966 83.9037C48.4922 84.7992 49.6594 85.2601 50.8444 85.3168C50.9035 86.5028 51.3624 87.6726 52.2574 88.5676C54.174 90.4842 57.3353 90.4748 59.2519 88.5553L60.4139 87.3933L61.5791 88.5553C63.4957 90.4715 66.6569 90.4718 68.5735 88.5553C69.478 87.6507 69.8779 86.4525 69.9286 85.2559C71.1278 85.2061 72.328 84.8006 73.2344 83.8943C74.1389 82.9899 74.5387 81.7917 74.5895 80.595C75.7886 80.5452 76.9888 80.1398 77.8952 79.2336C78.8005 78.3283 79.2034 77.1288 79.2535 75.931C80.4512 75.8812 81.6507 75.4782 82.556 74.5727C84.4725 72.656 84.4726 69.4981 82.556 67.5815L81.2814 66.3069C82.0679 65.3032 82.6882 64.2642 83.1386 63.3809C84.4067 64.1617 86.1199 64.0112 87.2104 62.9207L91.8712 58.2566C93.1422 56.9855 93.1422 54.8669 91.8712 53.5958L73.2311 34.9559C71.9601 33.6849 69.8381 33.6849 68.5671 34.9559L63.9062 39.6167C62.8193 40.7037 62.6674 42.4087 63.4395 43.6756C62.5184 44.1365 61.4316 44.7713 60.3913 45.5972C59.3571 44.7832 58.2846 44.1494 57.3753 43.6885C58.1571 42.4203 58.0124 40.7077 56.9214 39.6167L52.2574 34.9559C51.6219 34.3204 50.7749 34 49.927 34L49.927 34.0027ZM49.927 37.2891L54.5878 41.9498L35.9477 60.5931L31.2869 55.9292L49.927 37.2891ZM70.9007 37.2891L89.5408 55.9292L84.8767 60.5931L66.2366 41.9498L70.9007 37.2891ZM65.8472 46.2245L80.5571 60.9343C80.1845 61.6693 79.6336 62.6908 78.8157 63.8474L67.4051 52.4367C66.134 51.1657 64.0153 51.1658 62.7442 52.4367L58.0834 57.0974C57.4175 57.7633 56.4188 57.7632 55.753 57.0974C55.0872 56.4316 55.0873 55.4328 55.753 54.7672L61.579 48.941C62.8981 47.622 64.7524 46.7028 65.8472 46.2245ZM54.9708 46.237C55.7431 46.5815 56.8556 47.1328 57.9515 47.9107L53.4226 52.4396C51.506 54.3561 51.5061 57.514 53.4226 59.4308C55.3392 61.3472 58.4972 61.3472 60.4138 59.4308L65.0747 54.77L77.863 67.5583C77.8736 67.5667 77.8843 67.575 77.8952 67.5832L80.2256 69.9169C80.8914 70.5827 80.8914 71.5813 80.2256 72.2472C79.5598 72.913 78.5609 72.9129 77.8952 72.2472C77.8941 72.2461 77.893 72.245 77.8919 72.2439L72.0658 66.418C71.9123 66.2601 71.7286 66.1345 71.5257 66.0488C71.3228 65.9631 71.1048 65.919 70.8845 65.919C70.5559 65.919 70.2347 66.0173 69.9624 66.2013C69.69 66.3852 69.4788 66.6463 69.356 66.9512C69.2332 67.256 69.2043 67.5907 69.273 67.912C69.3418 68.2334 69.5051 68.5268 69.7419 68.7547L75.5582 74.5809C75.5657 74.5872 75.5732 74.5933 75.5808 74.5995C76.2259 75.2652 76.2235 76.2485 75.5646 76.9073C74.8989 77.5731 73.9 77.5731 73.2342 76.9073C73.2342 76.9062 73.2342 76.9052 73.2342 76.9041L67.405 71.0781C67.2518 70.9206 67.0686 70.7952 66.8663 70.7095C66.664 70.6239 66.4466 70.5796 66.2269 70.5791C65.8978 70.5773 65.5757 70.6739 65.3021 70.8567C65.0284 71.0395 64.8157 71.3 64.6914 71.6047C64.5671 71.9094 64.5369 72.2445 64.6046 72.5665C64.6723 72.8885 64.8349 73.1828 65.0714 73.4116L70.8974 79.241C70.9049 79.2473 70.9124 79.2535 70.9199 79.2596C71.5651 79.9253 71.5627 80.9087 70.9038 81.5675C70.2381 82.2333 69.2392 82.2333 68.5734 81.5675C68.5565 81.5526 68.5393 81.5381 68.5219 81.524L62.7473 75.7493C62.5745 75.5692 62.363 75.4307 62.1288 75.3442C61.8946 75.2578 61.6439 75.2259 61.3955 75.2505C61.0828 75.2816 60.7855 75.4013 60.5387 75.5957C60.2918 75.7901 60.1056 76.0509 60.0021 76.3475C59.8986 76.6442 59.8821 76.9642 59.9544 77.27C60.0268 77.5758 60.185 77.8545 60.4105 78.0733L66.2365 83.8995C66.2429 83.9058 66.2494 83.9119 66.2558 83.9181C66.9042 84.5837 66.9029 85.5692 66.243 86.2292C65.5772 86.895 64.5785 86.895 63.9126 86.2292L61.8268 84.1466C61.8918 82.8001 61.4332 81.4323 60.4138 80.4129C59.5188 79.518 58.3501 79.0578 57.166 78.9966C57.1074 77.8136 56.6453 76.6476 55.7497 75.752C54.8541 74.8564 53.6869 74.3932 52.5019 74.3326C52.4431 73.1499 51.9843 71.9834 51.0889 71.088C50.194 70.1931 49.0252 69.7328 47.8411 69.6717C47.7825 68.4887 47.3204 67.3227 46.4248 66.4271C45.4112 65.4134 44.0528 64.9492 42.7136 65.0077C41.5113 63.7038 40.6683 62.0148 40.219 60.9841L54.9708 46.237ZM42.9325 68.2504C43.351 68.2504 43.7713 68.4166 44.1042 68.7492C44.7699 69.4149 44.7603 70.4171 44.0944 71.0829L42.9325 72.2416C42.2667 72.9074 41.2678 72.9171 40.602 72.2542C39.9363 71.5885 39.9363 70.5798 40.602 69.914L41.764 68.752C42.0969 68.4194 42.5139 68.2531 42.9325 68.2531L42.9325 68.2504ZM47.5966 72.9144C48.0151 72.9144 48.4321 73.0807 48.765 73.4133C49.4307 74.0791 49.4212 75.0781 48.7553 75.7438L47.5965 76.9058C46.9308 77.5715 45.9286 77.581 45.2629 76.9182C44.5971 76.2524 44.5971 75.244 45.2629 74.5782L46.4249 73.4162C46.7577 73.0836 47.178 72.9172 47.5965 72.9172L47.5966 72.9144ZM52.2574 77.5753C52.6759 77.5753 53.0962 77.7415 53.429 78.0741C54.0948 78.7398 54.0853 79.742 53.4193 80.4078L52.2573 81.5665C51.5916 82.2323 50.5927 82.2419 49.9269 81.5791C49.2612 80.9133 49.2612 79.9047 49.9269 79.2389L51.0889 78.0769C51.4218 77.7443 51.8388 77.5779 52.2573 77.5779L52.2574 77.5753ZM56.9214 82.2393C57.34 82.2393 57.757 82.4056 58.0899 82.7382C58.7556 83.404 58.7493 84.4027 58.0834 85.0685L56.9215 86.2305C56.2557 86.8962 55.2536 86.9059 54.5878 86.2431C53.9221 85.5773 53.9221 84.5688 54.5878 83.9031L55.7498 82.7411C56.0827 82.4085 56.5029 82.2421 56.9215 82.2421L56.9214 82.2393Z" fill="black"/>
<defs>
<filter id="filter0_f" x="0" y="0" width="120" height="120" filterUnits="userSpaceOnUse" color-interpolation-filters="sRGB">
<feFlood flood-opacity="0" result="BackgroundImageFix"/>
<feBlend mode="normal" in="SourceGraphic" in2="BackgroundImageFix" result="shape"/>
<feGaussianBlur stdDeviation="22" result="effect1_foregroundBlur"/>
</filter>
</defs>
</svg>
