<svg width="382" height="462" viewBox="0 0 382 462" fill="none" xmlns="http://www.w3.org/2000/svg">
<g filter="url(#filter0_d)">
<rect x="20" y="40" width="342" height="342" fill="#191919"/>
</g>
<path d="M91.4117 63.212V59.6C91.4117 59.336 91.3638 59.072 91.2078 58.844C91.0518 58.652 90.5958 58.136 90.3317 57.98C90.1278 57.86 89.8277 57.752 89.5398 57.752H87.7158C87.4158 57.752 87.1277 57.86 86.9237 57.98C86.6598 58.136 86.1918 58.652 86.0478 58.844C85.8918 59.072 85.8438 59.336 85.8438 59.6V63.212C85.8438 63.464 85.8918 63.728 86.0478 63.956C86.1918 64.16 86.6598 64.676 86.9237 64.832C87.1277 64.952 87.4158 65.06 87.7158 65.06H89.5398C89.8277 65.06 90.1278 64.952 90.3317 64.832C90.5958 64.676 91.0518 64.16 91.2078 63.956C91.3638 63.728 91.4117 63.464 91.4117 63.212ZM89.9478 63.212C89.8158 63.38 89.5998 63.584 89.5037 63.656H87.7397C87.6437 63.596 87.4398 63.392 87.3077 63.212V59.612C87.4518 59.408 87.6557 59.228 87.7517 59.156H89.5157C89.6357 59.228 89.8638 59.456 89.9478 59.6V63.212Z" fill="white"/>
<path d="M104.108 65V57.8H102.644V62.096L100.34 57.8H98.8404V65H100.304V60.764L102.632 65H104.108Z" fill="white"/>
<path d="M116.258 65V63.584H113.066V57.8H111.602V65H116.258Z" fill="white"/>
<path d="M124.751 65V57.8H123.275V65H124.751Z" fill="white"/>
<path d="M137.554 65V57.8H136.09V62.096L133.786 57.8H132.286V65H133.75V60.764L136.078 65H137.554Z" fill="white"/>
<path d="M149.775 65V63.596H146.511V62.084H149.667V60.68H146.511V59.204H149.775V57.8H145.047V65H149.775Z" fill="white"/>
<path d="M171.806 62.732V61.388H170.018V63.356C169.934 63.512 169.73 63.644 169.682 63.644H167.87C167.846 63.644 167.654 63.488 167.558 63.344V62.42C167.654 62.276 167.846 62.108 167.87 62.108H169.178V60.752H167.87C167.822 60.752 167.642 60.584 167.558 60.416V59.492C167.654 59.336 167.846 59.156 167.87 59.156H168.902C169.034 59.216 169.25 59.252 169.454 59.66L170.786 59.288C170.714 59.096 170.618 58.94 170.51 58.772C170.258 58.376 169.718 57.752 168.938 57.752H167.87C167.522 57.752 167.21 57.896 166.97 58.064C166.802 58.184 166.454 58.52 166.334 58.7C166.19 58.916 166.094 59.228 166.094 59.492V60.404C166.094 60.884 166.298 61.16 166.526 61.412C166.31 61.64 166.094 61.964 166.094 62.42V63.344C166.094 63.632 166.178 63.908 166.334 64.124C166.442 64.292 166.79 64.652 166.97 64.784C167.21 64.952 167.57 65.06 167.87 65.06H169.682C169.982 65.06 170.354 64.952 170.594 64.784C170.774 64.664 171.122 64.292 171.242 64.124C171.386 63.908 171.482 63.62 171.482 63.344V62.732H171.806Z" fill="white"/>
<path d="M196.072 57.8H194.512C194.2 59.252 193.888 60.776 193.576 62.24L192.532 57.8H191.044C190.708 59.252 190.336 60.776 190 62.24L189.052 57.8H187.54L189.184 65H190.756C191.092 63.608 191.452 62.18 191.788 60.788L192.832 65H194.404L196.072 57.8Z" fill="white"/>
<path d="M208.482 63.212V59.6C208.482 59.336 208.434 59.072 208.278 58.844C208.122 58.652 207.666 58.136 207.402 57.98C207.198 57.86 206.898 57.752 206.61 57.752H204.786C204.486 57.752 204.198 57.86 203.994 57.98C203.73 58.136 203.262 58.652 203.118 58.844C202.962 59.072 202.914 59.336 202.914 59.6V63.212C202.914 63.464 202.962 63.728 203.118 63.956C203.262 64.16 203.73 64.676 203.994 64.832C204.198 64.952 204.486 65.06 204.786 65.06H206.61C206.898 65.06 207.198 64.952 207.402 64.832C207.666 64.676 208.122 64.16 208.278 63.956C208.434 63.728 208.482 63.464 208.482 63.212ZM207.018 63.212C206.886 63.38 206.67 63.584 206.574 63.656H204.81C204.714 63.596 204.51 63.392 204.378 63.212V59.612C204.522 59.408 204.726 59.228 204.822 59.156H206.586C206.706 59.228 206.934 59.456 207.018 59.6V63.212Z" fill="white"/>
<path d="M221.191 60.548V59.528C221.191 59.264 221.119 58.952 220.963 58.736C220.843 58.58 220.483 58.208 220.315 58.076C220.087 57.908 219.715 57.8 219.415 57.8H215.911V65H217.375V62.252H218.527L219.955 65H221.587C221.587 65 220.615 63.224 220.027 62.144C220.123 62.096 220.219 62.048 220.315 61.976C220.483 61.856 220.855 61.496 220.963 61.328C221.119 61.1 221.191 60.836 221.191 60.548ZM219.727 60.56C219.655 60.68 219.451 60.848 219.415 60.848H217.375V59.204H219.415C219.535 59.264 219.667 59.396 219.727 59.492V60.56Z" fill="white"/>
<path d="M233.352 65V63.584H230.16V57.8H228.696V65H233.352Z" fill="white"/>
<path d="M245.661 63.188V59.636C245.661 59.384 245.625 59.132 245.457 58.892C245.313 58.7 244.869 58.184 244.605 58.016C244.377 57.872 244.065 57.8 243.813 57.8H240.321V65H243.813C244.089 65 244.377 64.88 244.581 64.772C244.845 64.616 245.301 64.16 245.469 63.92C245.613 63.692 245.661 63.404 245.661 63.188ZM244.197 63.14C244.077 63.368 243.921 63.5 243.753 63.596H241.785V59.204H243.753C243.933 59.312 244.089 59.432 244.197 59.696V63.14Z" fill="white"/>
<path d="M261.134 57.8H259.574C259.262 59.252 258.95 60.776 258.638 62.24L257.594 57.8H256.106C255.77 59.252 255.398 60.776 255.062 62.24L254.114 57.8H252.602L254.246 65H255.818C256.154 63.608 256.514 62.18 256.85 60.788L257.894 65H259.466L261.134 57.8Z" fill="white"/>
<path d="M269.525 65V57.8H268.049V65H269.525Z" fill="white"/>
<path d="M282.399 63.188V59.636C282.399 59.384 282.363 59.132 282.195 58.892C282.051 58.7 281.607 58.184 281.343 58.016C281.115 57.872 280.803 57.8 280.551 57.8H277.059V65H280.551C280.827 65 281.115 64.88 281.319 64.772C281.583 64.616 282.039 64.16 282.207 63.92C282.351 63.692 282.399 63.404 282.399 63.188ZM280.935 63.14C280.815 63.368 280.659 63.5 280.491 63.596H278.523V59.204H280.491C280.671 59.312 280.827 59.432 280.935 59.696V63.14Z" fill="white"/>
<path d="M294.561 65V63.596H291.297V62.084H294.453V60.68H291.297V59.204H294.561V57.8H289.833V65H294.561Z" fill="white"/>
<path d="M99.9741 80V72.8H98.3901C97.8621 73.868 97.3341 74.984 96.8061 76.064L95.1981 72.8H93.6021V80H95.0661V75.68L96.3021 78.284H97.2621C97.6701 77.42 98.1021 76.544 98.5101 75.668V80H99.9741Z" fill="white"/>
<path d="M113.513 80L111.029 72.8H109.409L106.913 80H108.473C108.629 79.556 108.809 79.064 108.965 78.62H111.473L111.953 80H113.513ZM111.029 77.216H109.409C109.673 76.448 109.949 75.668 110.213 74.9L111.029 77.216Z" fill="white"/>
<path d="M125.73 75.548V74.528C125.73 74.264 125.658 73.952 125.502 73.736C125.382 73.58 125.022 73.208 124.854 73.076C124.626 72.908 124.254 72.8 123.954 72.8H120.45V80H121.914V77.252H123.066L124.494 80H126.126C126.126 80 125.154 78.224 124.566 77.144C124.662 77.096 124.758 77.048 124.854 76.976C125.022 76.856 125.394 76.496 125.502 76.328C125.658 76.1 125.73 75.836 125.73 75.548ZM124.266 75.56C124.194 75.68 123.99 75.848 123.954 75.848H121.914V74.204H123.954C124.074 74.264 124.206 74.396 124.266 74.492V75.56Z" fill="white"/>
<path d="M138.647 74.528C138.551 74.276 138.431 74.024 138.239 73.76C137.951 73.364 137.399 72.752 136.667 72.752H135.095C134.807 72.752 134.507 72.872 134.315 72.98C134.039 73.148 133.571 73.652 133.427 73.844C133.271 74.072 133.223 74.324 133.223 74.588V78.224C133.223 78.464 133.283 78.74 133.427 78.968C133.595 79.196 134.051 79.676 134.303 79.832C134.507 79.952 134.807 80.06 135.095 80.06H136.667C137.399 80.06 137.963 79.448 138.251 79.04C138.407 78.824 138.551 78.572 138.659 78.272L137.291 77.936C137.123 78.236 136.931 78.488 136.679 78.656H135.155C134.867 78.488 134.687 78.224 134.687 78.212V74.636C134.795 74.468 135.035 74.24 135.155 74.156H136.655C136.991 74.384 137.135 74.588 137.291 74.912L138.647 74.528Z" fill="white"/>
<path d="M151.219 80V72.8H149.755V75.692H147.355V72.8H145.891V80H147.355V77.096H149.755V80H151.219Z" fill="white"/>
<path d="M169.347 74.156H170.703C170.739 74.156 170.907 74.3 170.991 74.456V75.2C170.991 75.248 170.967 75.296 170.919 75.32C170.115 75.716 169.275 76.124 168.471 76.52C167.955 76.772 167.535 77.252 167.535 77.876V80H172.359V78.596H168.999V77.912C168.999 77.852 169.047 77.84 169.107 77.804C169.911 77.408 170.727 77.012 171.531 76.616C172.023 76.376 172.455 75.896 172.455 75.236V74.48C172.455 74.372 172.431 73.952 172.239 73.7C172.107 73.532 171.759 73.16 171.579 73.04C171.339 72.872 171.003 72.752 170.703 72.752H169.323C168.591 72.752 168.027 73.364 167.739 73.748C167.631 73.892 167.535 74.072 167.439 74.3L168.843 74.648C168.927 74.444 169.215 74.228 169.347 74.156Z" fill="white"/>
<path d="M181.534 74.156H182.89C182.926 74.156 183.094 74.3 183.178 74.456V75.2C183.178 75.248 183.154 75.296 183.106 75.32C182.302 75.716 181.462 76.124 180.658 76.52C180.142 76.772 179.722 77.252 179.722 77.876V80H184.546V78.596H181.186V77.912C181.186 77.852 181.234 77.84 181.294 77.804C182.098 77.408 182.914 77.012 183.718 76.616C184.21 76.376 184.642 75.896 184.642 75.236V74.48C184.642 74.372 184.618 73.952 184.426 73.7C184.294 73.532 183.946 73.16 183.766 73.04C183.526 72.872 183.19 72.752 182.89 72.752H181.51C180.778 72.752 180.214 73.364 179.926 73.748C179.818 73.892 179.722 74.072 179.626 74.3L181.03 74.648C181.114 74.444 181.402 74.228 181.534 74.156Z" fill="white"/>
<path d="M195.066 77.708V76.352H191.958V77.708H195.066Z" fill="white"/>
<path d="M204.304 74.156H205.66C205.696 74.156 205.864 74.3 205.948 74.456V75.2C205.948 75.248 205.924 75.296 205.876 75.32C205.072 75.716 204.232 76.124 203.428 76.52C202.912 76.772 202.492 77.252 202.492 77.876V80H207.316V78.596H203.956V77.912C203.956 77.852 204.004 77.84 204.064 77.804C204.868 77.408 205.684 77.012 206.488 76.616C206.98 76.376 207.412 75.896 207.412 75.236V74.48C207.412 74.372 207.388 73.952 207.196 73.7C207.064 73.532 206.716 73.16 206.536 73.04C206.296 72.872 205.96 72.752 205.66 72.752H204.28C203.548 72.752 202.984 73.364 202.696 73.748C202.588 73.892 202.492 74.072 202.396 74.3L203.8 74.648C203.884 74.444 204.172 74.228 204.304 74.156Z" fill="white"/>
<path d="M214.523 74.492V78.344C214.523 78.62 214.595 78.896 214.751 79.112C214.859 79.28 215.231 79.64 215.411 79.772C215.651 79.94 215.987 80.06 216.287 80.06H217.811C218.111 80.06 218.447 79.94 218.687 79.772C218.867 79.628 219.239 79.28 219.347 79.112C219.491 78.896 219.575 78.596 219.575 78.332V76.964C219.575 76.688 219.503 76.412 219.347 76.184C219.239 76.016 218.855 75.644 218.687 75.524C218.435 75.344 218.123 75.26 217.811 75.26H216.527C216.383 75.26 216.203 75.356 216.059 75.44C216.035 75.452 216.011 75.476 215.987 75.488V74.456C216.095 74.3 216.263 74.156 216.299 74.156H217.631C217.799 74.216 218.003 74.396 218.135 74.696L219.551 74.312C219.455 74.084 219.347 73.904 219.251 73.76C218.975 73.34 218.387 72.752 217.667 72.752H216.287C215.987 72.752 215.651 72.86 215.411 73.028C215.219 73.16 214.859 73.544 214.751 73.7C214.595 73.928 214.523 74.216 214.523 74.492ZM215.987 77.012C216.083 76.856 216.227 76.736 216.299 76.676C216.347 76.652 216.419 76.652 216.443 76.652H217.787C217.835 76.652 218.027 76.82 218.111 76.976V78.368C218.015 78.524 217.847 78.656 217.811 78.656H216.299C216.263 78.656 216.071 78.5 215.987 78.344V77.012Z" fill="white"/>
<path d="M229.123 78.908L227.743 78.488L226.567 80.996H228.163L229.123 78.908Z" fill="white"/>
<path d="M247.3 74.156H248.656C248.692 74.156 248.86 74.3 248.944 74.456V75.2C248.944 75.248 248.92 75.296 248.872 75.32C248.068 75.716 247.228 76.124 246.424 76.52C245.908 76.772 245.488 77.252 245.488 77.876V80H250.312V78.596H246.952V77.912C246.952 77.852 247 77.84 247.06 77.804C247.864 77.408 248.68 77.012 249.484 76.616C249.976 76.376 250.408 75.896 250.408 75.236V74.48C250.408 74.372 250.384 73.952 250.192 73.7C250.06 73.532 249.712 73.16 249.532 73.04C249.292 72.872 248.956 72.752 248.656 72.752H247.276C246.544 72.752 245.98 73.364 245.692 73.748C245.584 73.892 245.488 74.072 245.392 74.3L246.796 74.648C246.88 74.444 247.168 74.228 247.3 74.156Z" fill="white"/>
<path d="M262.667 78.212V74.6C262.667 74.336 262.619 74.072 262.463 73.844C262.319 73.652 261.863 73.148 261.575 72.98H261.587C261.383 72.86 261.095 72.752 260.807 72.752H259.391C259.091 72.752 258.803 72.86 258.599 72.98C258.335 73.136 257.867 73.652 257.723 73.844C257.567 74.072 257.519 74.336 257.519 74.6V78.212C257.519 78.464 257.567 78.728 257.723 78.956C257.867 79.16 258.335 79.676 258.599 79.832C258.803 79.952 259.091 80.06 259.391 80.06H260.807C261.095 80.06 261.383 79.952 261.587 79.832H261.575C261.863 79.664 262.319 79.16 262.463 78.956C262.619 78.728 262.667 78.464 262.667 78.212ZM261.203 78.212C261.071 78.404 260.867 78.596 260.771 78.656H259.415C259.307 78.596 259.103 78.392 258.983 78.212V74.612C259.127 74.408 259.331 74.228 259.427 74.156H260.783C260.903 74.228 261.119 74.444 261.203 74.6V78.212Z" fill="white"/>
<path d="M271.675 74.156H273.031C273.067 74.156 273.235 74.3 273.319 74.456V75.2C273.319 75.248 273.295 75.296 273.247 75.32C272.443 75.716 271.603 76.124 270.799 76.52C270.283 76.772 269.863 77.252 269.863 77.876V80H274.687V78.596H271.327V77.912C271.327 77.852 271.375 77.84 271.435 77.804C272.239 77.408 273.055 77.012 273.859 76.616C274.351 76.376 274.783 75.896 274.783 75.236V74.48C274.783 74.372 274.759 73.952 274.567 73.7C274.435 73.532 274.087 73.16 273.907 73.04C273.667 72.872 273.331 72.752 273.031 72.752H271.651C270.919 72.752 270.355 73.364 270.067 73.748C269.959 73.892 269.863 74.072 269.767 74.3L271.171 74.648C271.255 74.444 271.543 74.228 271.675 74.156Z" fill="white"/>
<path d="M285.602 80V72.8H282.83V74.228H284.126V80H285.602Z" fill="white"/>
<path d="M262.266 149.278L282.542 160.984V266.952L190.771 319.936L180.557 314.039V136.796L160.129 148.59V302.245L139.702 290.451V160.384L119.275 172.177V278.657L99 266.952V160.984L190.771 108L200.984 113.897V291.283L221.411 279.49V125.69L241.839 137.484V267.696L262.266 255.902V149.278Z" fill="white"/>
<path d="M81.761 398.669H54.6445C50.7835 398.669 48 401.453 48 405.134V428.569C48 432.251 50.7835 435.034 54.6445 435.034H75.7451C77.0021 435.034 77.4511 435.663 77.4511 436.74V449.58C77.4511 450.748 77.0021 451.376 75.7451 451.376H60.6604C59.4033 451.376 58.9544 450.748 58.9544 449.58V443.205H48V455.058C48 458.649 50.7835 461.522 54.6445 461.522H81.761C85.7118 461.522 88.4055 458.649 88.4055 455.058V431.353C88.4055 427.672 85.7118 424.888 81.761 424.888H60.6604C59.4033 424.888 58.9544 424.26 58.9544 423.092V410.611C58.9544 409.444 59.4033 408.816 60.6604 408.816H75.7451C77.0021 408.816 77.4511 409.444 77.4511 410.611V416.178H88.4055V405.134C88.4055 401.453 85.7118 398.669 81.761 398.669Z" fill="#191919"/>
<path d="M126.647 398.669V449.58C126.647 450.748 126.198 451.376 124.941 451.376H109.856C108.599 451.376 108.15 450.748 108.15 449.58V398.669H97.1958V455.058C97.1958 458.649 99.9792 461.522 103.84 461.522H130.957C134.908 461.522 137.601 458.649 137.601 455.058V398.669H126.647Z" fill="#191919"/>
<path d="M201.604 398.669H186.25L173.859 436.291L161.468 398.669H146.563V461.522H157.517V418.962L169.19 453.621H178.618L190.65 417.705V461.522H201.604V398.669Z" fill="#191919"/>
<path d="M265.614 398.669H250.26L237.869 436.291L225.478 398.669H210.573V461.522H221.527V418.962L233.2 453.621H242.628L254.66 417.705V461.522H265.614V398.669Z" fill="#191919"/>
<path d="M274.853 461.522H285.807V398.669H274.853V461.522Z" fill="#191919"/>
<path d="M333.367 398.669H292.962V408.816H307.777V461.522H318.731V408.816H333.367V398.669Z" fill="#191919"/>
<path d="M77.3519 349.254H69.3411L62.8762 368.883L56.4114 349.254H48.6348V382.047H54.3501V359.841L60.4402 377.924H65.3591L71.6366 359.185V382.047H77.3519V349.254Z" fill="white"/>
<path d="M103.128 349.254H88.9806C86.9661 349.254 85.5139 350.706 85.5139 352.627V378.674C85.5139 380.548 86.9661 382.047 88.9806 382.047H103.128C105.19 382.047 106.595 380.548 106.595 378.674V352.627C106.595 350.706 105.19 349.254 103.128 349.254ZM100.88 355.485V375.816C100.88 376.425 100.645 376.753 99.9896 376.753H92.1193C91.4634 376.753 91.2292 376.425 91.2292 375.816V355.485C91.2292 354.876 91.4634 354.548 92.1193 354.548H99.9896C100.645 354.548 100.88 354.876 100.88 355.485Z" fill="white"/>
<path d="M132.372 349.254H114.757V382.047H132.372C134.433 382.047 135.838 380.548 135.838 378.674V352.627C135.838 350.706 134.433 349.254 132.372 349.254ZM130.123 355.485V375.816C130.123 376.425 129.889 376.753 129.233 376.753H120.473V354.548H129.233C129.889 354.548 130.123 354.876 130.123 355.485Z" fill="white"/>
<path d="M162.878 354.548V349.254H143.999V382.047H162.878V376.753H149.714V368.274H159.552V362.933H149.714V354.548H162.878Z" fill="white"/>
<path d="M188.385 349.254H170.724V382.047H176.439V369.164H185.106C185.808 369.164 186.136 369.539 186.136 370.241V382.047H191.852V369.492C191.852 367.993 191.055 366.868 189.416 366.54C191.055 366.119 191.852 365.041 191.852 363.542V352.627C191.852 350.706 190.399 349.254 188.385 349.254ZM186.136 355.485V362.793C186.136 363.495 185.808 363.87 185.106 363.87H176.439V354.548H185.246C185.902 354.548 186.136 354.876 186.136 355.485Z" fill="white"/>
<path d="M216.967 349.254V370.71L206.661 349.254H200.102V382.047H205.724V360.45L216.124 382.047H222.589V349.254H216.967Z" fill="white"/>
<path d="M273.839 349.254L270.419 372.631L265.781 353.376H260.581L255.944 372.631L252.524 349.254H246.199L251.774 382.047H259.317L263.205 365.51L267.046 382.047H274.589L280.163 349.254H273.839Z" fill="white"/>
<path d="M305.607 354.548V349.254H286.728V382.047H305.607V376.753H292.443V368.274H302.281V362.933H292.443V354.548H305.607Z" fill="white"/>
<path d="M331.067 349.254H313.453V382.047H331.067C333.129 382.047 334.534 380.548 334.534 378.674V368.461C334.534 366.962 333.785 365.838 332.098 365.51C333.785 365.135 334.534 364.011 334.534 362.512V352.627C334.534 350.706 333.129 349.254 331.067 349.254ZM328.819 355.485V361.762C328.819 362.512 328.491 362.84 327.788 362.84H319.168V354.548H327.929C328.585 354.548 328.819 354.876 328.819 355.485ZM328.819 369.211V375.816C328.819 376.425 328.585 376.753 327.929 376.753H319.168V368.18H327.788C328.491 368.18 328.819 368.508 328.819 369.211Z" fill="white"/>
<defs>
<filter id="filter0_d" x="0" y="0" width="382" height="382" filterUnits="userSpaceOnUse" color-interpolation-filters="sRGB">
<feFlood flood-opacity="0" result="BackgroundImageFix"/>
<feColorMatrix in="SourceAlpha" type="matrix" values="0 0 0 0 0 0 0 0 0 0 0 0 0 0 0 0 0 0 127 0"/>
<feOffset dy="-20"/>
<feGaussianBlur stdDeviation="10"/>
<feColorMatrix type="matrix" values="0 0 0 0 0 0 0 0 0 0 0 0 0 0 0 0 0 0 0.2 0"/>
<feBlend mode="normal" in2="BackgroundImageFix" result="effect1_dropShadow"/>
<feBlend mode="normal" in="SourceGraphic" in2="effect1_dropShadow" result="shape"/>
</filter>
</defs>
</svg>
