<svg width="275" height="88" viewBox="0 0 275 88" fill="none" xmlns="http://www.w3.org/2000/svg">
<path d="M63.9251 22.6337L70.6218 26.5V61.5L40.3109 79L36.9373 77.0522V18.511L30.1903 22.4064V73.1569L23.4433 69.2615V26.3017L16.6965 30.197V65.3662L10 61.5V26.5L40.3109 9L43.6843 10.9476V69.5364L50.4311 65.6411V14.8429L57.178 18.7383V61.7458L63.9251 57.8504V22.6337Z" fill="white"/>
<path d="M40.75 2.70096L40 2.26795L39.25 2.70096L4.60898 22.701L3.85898 23.134V24V64V64.866L4.60898 65.299L39.25 85.299L40 85.732L40.75 85.299L75.391 65.299L76.141 64.866V64V24V23.134L75.391 22.701L40.75 2.70096Z" stroke="white" stroke-width="3"/>
<path d="M125.242 41.9233H109.195C106.91 41.9233 105.263 43.5234 105.263 45.6397V59.1116C105.263 61.2278 106.91 62.8279 109.195 62.8279H121.682C122.426 62.8279 122.692 63.1892 122.692 63.8086V71.1898C122.692 71.8608 122.426 72.2221 121.682 72.2221H112.755C112.011 72.2221 111.746 71.8608 111.746 71.1898V67.525H105.263V74.3383C105.263 76.403 106.91 78.0547 109.195 78.0547H125.242C127.58 78.0547 129.174 76.403 129.174 74.3383V60.7117C129.174 58.5954 127.58 56.9953 125.242 56.9953H112.755C112.011 56.9953 111.746 56.634 111.746 55.963V48.7883C111.746 48.1173 112.011 47.756 112.755 47.756H121.682C122.426 47.756 122.692 48.1173 122.692 48.7883V51.9885H129.174V45.6397C129.174 43.5234 127.58 41.9233 125.242 41.9233Z" fill="white"/>
<path d="M151.805 41.9233V71.1898C151.805 71.8608 151.539 72.2221 150.795 72.2221H141.868C141.124 72.2221 140.859 71.8608 140.859 71.1898V41.9233H134.376V74.3383C134.376 76.403 136.023 78.0547 138.308 78.0547H154.355C156.693 78.0547 158.287 76.403 158.287 74.3383V41.9233H151.805Z" fill="white"/>
<path d="M196.163 41.9233H187.077L179.744 63.5506L172.411 41.9233H163.59V78.0547H170.073V53.5886L176.981 73.5125H182.56L189.68 52.866V78.0547H196.163V41.9233Z" fill="white"/>
<path d="M234.043 41.9233H224.957L217.624 63.5506L210.291 41.9233H201.471V78.0547H207.953V53.5886L214.861 73.5125H220.44L227.56 52.866V78.0547H234.043V41.9233Z" fill="white"/>
<path d="M239.51 78.0547H245.993V41.9233H239.51V78.0547Z" fill="white"/>
<path d="M274.138 41.9233H250.227V47.756H258.994V78.0547H265.477V47.756H274.138V41.9233Z" fill="white"/>
<path d="M122.226 9.71826H117.494L113.676 21.2141L109.857 9.71826H105.263V28.9236H108.639V15.9189L112.237 26.5093H115.142L118.85 15.5347V28.9236H122.226V9.71826Z" fill="white"/>
<path d="M137.452 9.71826H129.095C127.905 9.71826 127.047 10.5688 127.047 11.6937V26.9482C127.047 28.0457 127.905 28.9236 129.095 28.9236H137.452C138.669 28.9236 139.499 28.0457 139.499 26.9482V11.6937C139.499 10.5688 138.669 9.71826 137.452 9.71826ZM136.123 13.3673V25.2746C136.123 25.6313 135.985 25.8233 135.598 25.8233H130.949C130.561 25.8233 130.423 25.6313 130.423 25.2746V13.3673C130.423 13.0106 130.561 12.8186 130.949 12.8186H135.598C135.985 12.8186 136.123 13.0106 136.123 13.3673Z" fill="white"/>
<path d="M154.725 9.71826H144.321V28.9236H154.725C155.943 28.9236 156.773 28.0457 156.773 26.9482V11.6937C156.773 10.5688 155.943 9.71826 154.725 9.71826ZM153.397 13.3673V25.2746C153.397 25.6313 153.259 25.8233 152.871 25.8233H147.697V12.8186H152.871C153.259 12.8186 153.397 13.0106 153.397 13.3673Z" fill="white"/>
<path d="M172.745 12.8186V9.71826H161.593V28.9236H172.745V25.8233H164.969V20.8574H170.78V17.7297H164.969V12.8186H172.745Z" fill="white"/>
<path d="M187.811 9.71826H177.379V28.9236H180.755V21.3787H185.874C186.289 21.3787 186.483 21.5982 186.483 22.0097V28.9236H189.859V21.5707C189.859 20.6928 189.388 20.0343 188.42 19.8422C189.388 19.5953 189.859 18.9643 189.859 18.0863V11.6937C189.859 10.5688 189.001 9.71826 187.811 9.71826ZM186.483 13.3673V17.6473C186.483 18.0589 186.289 18.2784 185.874 18.2784H180.755V12.8186H185.957C186.344 12.8186 186.483 13.0106 186.483 13.3673Z" fill="white"/>
<path d="M204.694 9.71826V22.2841L198.606 9.71826H194.732V28.9236H198.053V16.2755L204.196 28.9236H208.014V9.71826H204.694Z" fill="white"/>
<path d="M238.287 9.71826L236.267 23.409L233.528 12.1327H230.456L227.717 23.409L225.697 9.71826H221.961L225.254 28.9236H229.709L232.006 19.2386L234.275 28.9236H238.73L242.023 9.71826H238.287Z" fill="white"/>
<path d="M257.052 12.8186V9.71826H245.9V28.9236H257.052V25.8233H249.276V20.8574H255.087V17.7297H249.276V12.8186H257.052Z" fill="white"/>
<path d="M272.091 9.71826H261.686V28.9236H272.091C273.308 28.9236 274.138 28.0457 274.138 26.9482V20.9671C274.138 20.0892 273.696 19.4307 272.699 19.2386C273.696 19.0192 274.138 18.3607 274.138 17.4827V11.6937C274.138 10.5688 273.308 9.71826 272.091 9.71826ZM270.762 13.3673V17.0437C270.762 17.4827 270.569 17.6748 270.154 17.6748H265.062V12.8186H270.237C270.624 12.8186 270.762 13.0106 270.762 13.3673ZM270.762 21.4061V25.2746C270.762 25.6313 270.624 25.8233 270.237 25.8233H265.062V20.8025H270.154C270.569 20.8025 270.762 20.9946 270.762 21.4061Z" fill="white"/>
</svg>
