<svg width="382" height="462" viewBox="0 0 382 462" fill="none" xmlns="http://www.w3.org/2000/svg">
<g filter="url(#filter0_d)">
<rect x="20" y="40" width="342" height="342" fill="#191919"/>
</g>
<path d="M262.266 149.278L282.542 160.984V266.952L190.771 319.936L180.557 314.039V136.796L160.129 148.59V302.245L139.702 290.451V160.384L119.275 172.177V278.657L99 266.952V160.984L190.771 108L200.984 113.897V291.283L221.411 279.49V125.69L241.839 137.484V267.696L262.266 255.902V149.278Z" fill="white"/>
<path d="M81.761 398.669H54.6445C50.7835 398.669 48 401.453 48 405.134V428.569C48 432.251 50.7835 435.034 54.6445 435.034H75.7451C77.0021 435.034 77.4511 435.663 77.4511 436.74V449.58C77.4511 450.748 77.0021 451.376 75.7451 451.376H60.6604C59.4033 451.376 58.9544 450.748 58.9544 449.58V443.205H48V455.058C48 458.649 50.7835 461.522 54.6445 461.522H81.761C85.7118 461.522 88.4055 458.649 88.4055 455.058V431.353C88.4055 427.672 85.7118 424.888 81.761 424.888H60.6604C59.4033 424.888 58.9544 424.26 58.9544 423.092V410.611C58.9544 409.444 59.4033 408.816 60.6604 408.816H75.7451C77.0021 408.816 77.4511 409.444 77.4511 410.611V416.178H88.4055V405.134C88.4055 401.453 85.7118 398.669 81.761 398.669Z" fill="#191919"/>
<path d="M126.647 398.669V449.58C126.647 450.748 126.198 451.376 124.941 451.376H109.856C108.599 451.376 108.15 450.748 108.15 449.58V398.669H97.1958V455.058C97.1958 458.649 99.9792 461.522 103.84 461.522H130.957C134.908 461.522 137.601 458.649 137.601 455.058V398.669H126.647Z" fill="#191919"/>
<path d="M201.604 398.669H186.25L173.859 436.291L161.468 398.669H146.563V461.522H157.517V418.962L169.19 453.621H178.618L190.65 417.705V461.522H201.604V398.669Z" fill="#191919"/>
<path d="M265.614 398.669H250.26L237.869 436.291L225.478 398.669H210.573V461.522H221.527V418.962L233.2 453.621H242.628L254.66 417.705V461.522H265.614V398.669Z" fill="#191919"/>
<path d="M274.853 461.522H285.807V398.669H274.853V461.522Z" fill="#191919"/>
<path d="M333.367 398.669H292.962V408.816H307.777V461.522H318.731V408.816H333.367V398.669Z" fill="#191919"/>
<path d="M77.3519 349.254H69.3411L62.8762 368.883L56.4114 349.254H48.6348V382.047H54.3501V359.841L60.4402 377.924H65.3591L71.6366 359.185V382.047H77.3519V349.254Z" fill="white"/>
<path d="M103.128 349.254H88.9806C86.9661 349.254 85.5139 350.706 85.5139 352.627V378.674C85.5139 380.548 86.9661 382.047 88.9806 382.047H103.128C105.19 382.047 106.595 380.548 106.595 378.674V352.627C106.595 350.706 105.19 349.254 103.128 349.254ZM100.88 355.485V375.816C100.88 376.425 100.645 376.753 99.9896 376.753H92.1193C91.4634 376.753 91.2292 376.425 91.2292 375.816V355.485C91.2292 354.876 91.4634 354.548 92.1193 354.548H99.9896C100.645 354.548 100.88 354.876 100.88 355.485Z" fill="white"/>
<path d="M132.372 349.254H114.757V382.047H132.372C134.433 382.047 135.838 380.548 135.838 378.674V352.627C135.838 350.706 134.433 349.254 132.372 349.254ZM130.123 355.485V375.816C130.123 376.425 129.889 376.753 129.233 376.753H120.473V354.548H129.233C129.889 354.548 130.123 354.876 130.123 355.485Z" fill="white"/>
<path d="M162.878 354.548V349.254H143.999V382.047H162.878V376.753H149.714V368.274H159.552V362.933H149.714V354.548H162.878Z" fill="white"/>
<path d="M188.385 349.254H170.724V382.047H176.439V369.164H185.106C185.808 369.164 186.136 369.539 186.136 370.241V382.047H191.852V369.492C191.852 367.993 191.055 366.868 189.416 366.54C191.055 366.119 191.852 365.041 191.852 363.542V352.627C191.852 350.706 190.399 349.254 188.385 349.254ZM186.136 355.485V362.793C186.136 363.495 185.808 363.87 185.106 363.87H176.439V354.548H185.246C185.902 354.548 186.136 354.876 186.136 355.485Z" fill="white"/>
<path d="M216.967 349.254V370.71L206.661 349.254H200.102V382.047H205.724V360.45L216.124 382.047H222.589V349.254H216.967Z" fill="white"/>
<path d="M273.839 349.254L270.419 372.631L265.781 353.376H260.581L255.944 372.631L252.524 349.254H246.199L251.774 382.047H259.317L263.205 365.51L267.046 382.047H274.589L280.163 349.254H273.839Z" fill="white"/>
<path d="M305.607 354.548V349.254H286.728V382.047H305.607V376.753H292.443V368.274H302.281V362.933H292.443V354.548H305.607Z" fill="white"/>
<path d="M331.067 349.254H313.453V382.047H331.067C333.129 382.047 334.534 380.548 334.534 378.674V368.461C334.534 366.962 333.785 365.838 332.098 365.51C333.785 365.135 334.534 364.011 334.534 362.512V352.627C334.534 350.706 333.129 349.254 331.067 349.254ZM328.819 355.485V361.762C328.819 362.512 328.491 362.84 327.788 362.84H319.168V354.548H327.929C328.585 354.548 328.819 354.876 328.819 355.485ZM328.819 369.211V375.816C328.819 376.425 328.585 376.753 327.929 376.753H319.168V368.18H327.788C328.491 368.18 328.819 368.508 328.819 369.211Z" fill="white"/>
<path d="M91.4117 63.212V59.6C91.4117 59.336 91.3637 59.072 91.2077 58.844C91.0517 58.652 90.5957 58.136 90.3317 57.98C90.1277 57.86 89.8277 57.752 89.5397 57.752H87.7157C87.4157 57.752 87.1277 57.86 86.9237 57.98C86.6597 58.136 86.1917 58.652 86.0477 58.844C85.8917 59.072 85.8437 59.336 85.8437 59.6V63.212C85.8437 63.464 85.8917 63.728 86.0477 63.956C86.1917 64.16 86.6597 64.676 86.9237 64.832C87.1277 64.952 87.4157 65.06 87.7157 65.06H89.5397C89.8277 65.06 90.1277 64.952 90.3317 64.832C90.5957 64.676 91.0517 64.16 91.2077 63.956C91.3637 63.728 91.4117 63.464 91.4117 63.212ZM89.9477 63.212C89.8157 63.38 89.5997 63.584 89.5037 63.656H87.7397C87.6437 63.596 87.4397 63.392 87.3077 63.212V59.612C87.4517 59.408 87.6557 59.228 87.7517 59.156H89.5157C89.6357 59.228 89.8637 59.456 89.9477 59.6V63.212Z" fill="white"/>
<path d="M104.108 65V57.8H102.644V62.096L100.34 57.8H98.8403V65H100.304V60.764L102.632 65H104.108Z" fill="white"/>
<path d="M116.258 65V63.584H113.066V57.8H111.602V65H116.258Z" fill="white"/>
<path d="M124.751 65V57.8H123.275V65H124.751Z" fill="white"/>
<path d="M137.554 65V57.8H136.09V62.096L133.786 57.8H132.286V65H133.75V60.764L136.078 65H137.554Z" fill="white"/>
<path d="M149.775 65V63.596H146.511V62.084H149.667V60.68H146.511V59.204H149.775V57.8H145.047V65H149.775Z" fill="white"/>
<path d="M171.806 62.732V61.388H170.018V63.356C169.934 63.512 169.73 63.644 169.682 63.644H167.87C167.846 63.644 167.654 63.488 167.558 63.344V62.42C167.654 62.276 167.846 62.108 167.87 62.108H169.178V60.752H167.87C167.822 60.752 167.642 60.584 167.558 60.416V59.492C167.654 59.336 167.846 59.156 167.87 59.156H168.902C169.034 59.216 169.25 59.252 169.454 59.66L170.786 59.288C170.714 59.096 170.618 58.94 170.51 58.772C170.258 58.376 169.718 57.752 168.938 57.752H167.87C167.522 57.752 167.21 57.896 166.97 58.064C166.802 58.184 166.454 58.52 166.334 58.7C166.19 58.916 166.094 59.228 166.094 59.492V60.404C166.094 60.884 166.298 61.16 166.526 61.412C166.31 61.64 166.094 61.964 166.094 62.42V63.344C166.094 63.632 166.178 63.908 166.334 64.124C166.442 64.292 166.79 64.652 166.97 64.784C167.21 64.952 167.57 65.06 167.87 65.06H169.682C169.982 65.06 170.354 64.952 170.594 64.784C170.774 64.664 171.122 64.292 171.242 64.124C171.386 63.908 171.482 63.62 171.482 63.344V62.732H171.806Z" fill="white"/>
<path d="M196.072 57.8H194.512C194.2 59.252 193.888 60.776 193.576 62.24L192.532 57.8H191.044C190.708 59.252 190.336 60.776 190 62.24L189.052 57.8H187.54L189.184 65H190.756C191.092 63.608 191.452 62.18 191.788 60.788L192.832 65H194.404L196.072 57.8Z" fill="white"/>
<path d="M208.482 63.212V59.6C208.482 59.336 208.434 59.072 208.278 58.844C208.122 58.652 207.666 58.136 207.402 57.98C207.198 57.86 206.898 57.752 206.61 57.752H204.786C204.486 57.752 204.198 57.86 203.994 57.98C203.73 58.136 203.262 58.652 203.118 58.844C202.962 59.072 202.914 59.336 202.914 59.6V63.212C202.914 63.464 202.962 63.728 203.118 63.956C203.262 64.16 203.73 64.676 203.994 64.832C204.198 64.952 204.486 65.06 204.786 65.06H206.61C206.898 65.06 207.198 64.952 207.402 64.832C207.666 64.676 208.122 64.16 208.278 63.956C208.434 63.728 208.482 63.464 208.482 63.212ZM207.018 63.212C206.886 63.38 206.67 63.584 206.574 63.656H204.81C204.714 63.596 204.51 63.392 204.378 63.212V59.612C204.522 59.408 204.726 59.228 204.822 59.156H206.586C206.706 59.228 206.934 59.456 207.018 59.6V63.212Z" fill="white"/>
<path d="M221.191 60.548V59.528C221.191 59.264 221.119 58.952 220.963 58.736C220.843 58.58 220.483 58.208 220.315 58.076C220.087 57.908 219.715 57.8 219.415 57.8H215.911V65H217.375V62.252H218.527L219.955 65H221.587C221.587 65 220.615 63.224 220.027 62.144C220.123 62.096 220.219 62.048 220.315 61.976C220.483 61.856 220.855 61.496 220.963 61.328C221.119 61.1 221.191 60.836 221.191 60.548ZM219.727 60.56C219.655 60.68 219.451 60.848 219.415 60.848H217.375V59.204H219.415C219.535 59.264 219.667 59.396 219.727 59.492V60.56Z" fill="white"/>
<path d="M233.352 65V63.584H230.16V57.8H228.696V65H233.352Z" fill="white"/>
<path d="M245.661 63.188V59.636C245.661 59.384 245.625 59.132 245.457 58.892C245.313 58.7 244.869 58.184 244.605 58.016C244.377 57.872 244.065 57.8 243.813 57.8H240.321V65H243.813C244.089 65 244.377 64.88 244.581 64.772C244.845 64.616 245.301 64.16 245.469 63.92C245.613 63.692 245.661 63.404 245.661 63.188ZM244.197 63.14C244.077 63.368 243.921 63.5 243.753 63.596H241.785V59.204H243.753C243.933 59.312 244.089 59.432 244.197 59.696V63.14Z" fill="white"/>
<path d="M261.134 57.8H259.574C259.262 59.252 258.95 60.776 258.638 62.24L257.594 57.8H256.106C255.77 59.252 255.398 60.776 255.062 62.24L254.114 57.8H252.602L254.246 65H255.818C256.154 63.608 256.514 62.18 256.85 60.788L257.894 65H259.466L261.134 57.8Z" fill="white"/>
<path d="M269.524 65V57.8H268.048V65H269.524Z" fill="white"/>
<path d="M282.399 63.188V59.636C282.399 59.384 282.363 59.132 282.195 58.892C282.051 58.7 281.607 58.184 281.343 58.016C281.115 57.872 280.803 57.8 280.551 57.8H277.059V65H280.551C280.827 65 281.115 64.88 281.319 64.772C281.583 64.616 282.039 64.16 282.207 63.92C282.351 63.692 282.399 63.404 282.399 63.188ZM280.935 63.14C280.815 63.368 280.659 63.5 280.491 63.596H278.523V59.204H280.491C280.671 59.312 280.827 59.432 280.935 59.696V63.14Z" fill="white"/>
<path d="M294.561 65V63.596H291.297V62.084H294.453V60.68H291.297V59.204H294.561V57.8H289.833V65H294.561Z" fill="white"/>
<path d="M91.0912 80V72.8H89.5072C88.9792 73.868 88.4512 74.984 87.9232 76.064L86.3152 72.8H84.7192V80H86.1832V75.68L87.4192 78.284H88.3792C88.7872 77.42 89.2192 76.544 89.6272 75.668V80H91.0912Z" fill="white"/>
<path d="M104.63 80L102.146 72.8H100.526L98.03 80H99.59C99.746 79.556 99.926 79.064 100.082 78.62H102.59L103.07 80H104.63ZM102.146 77.216H100.526C100.79 76.448 101.066 75.668 101.33 74.9L102.146 77.216Z" fill="white"/>
<path d="M116.847 75.548V74.528C116.847 74.264 116.775 73.952 116.619 73.736C116.499 73.58 116.139 73.208 115.971 73.076C115.743 72.908 115.371 72.8 115.071 72.8H111.567V80H113.031V77.252H114.183L115.611 80H117.243C117.243 80 116.271 78.224 115.683 77.144C115.779 77.096 115.875 77.048 115.971 76.976C116.139 76.856 116.511 76.496 116.619 76.328C116.775 76.1 116.847 75.836 116.847 75.548ZM115.383 75.56C115.311 75.68 115.107 75.848 115.071 75.848H113.031V74.204H115.071C115.191 74.264 115.323 74.396 115.383 74.492V75.56Z" fill="white"/>
<path d="M129.764 74.528C129.668 74.276 129.548 74.024 129.356 73.76C129.068 73.364 128.516 72.752 127.784 72.752H126.212C125.924 72.752 125.624 72.872 125.432 72.98C125.156 73.148 124.688 73.652 124.544 73.844C124.388 74.072 124.34 74.324 124.34 74.588V78.224C124.34 78.464 124.4 78.74 124.544 78.968C124.712 79.196 125.168 79.676 125.42 79.832C125.624 79.952 125.924 80.06 126.212 80.06H127.784C128.516 80.06 129.08 79.448 129.368 79.04C129.524 78.824 129.668 78.572 129.776 78.272L128.408 77.936C128.24 78.236 128.048 78.488 127.796 78.656H126.272C125.984 78.488 125.804 78.224 125.804 78.212V74.636C125.912 74.468 126.152 74.24 126.272 74.156H127.772C128.108 74.384 128.252 74.588 128.408 74.912L129.764 74.528Z" fill="white"/>
<path d="M142.336 80V72.8H140.872V75.692H138.472V72.8H137.008V80H138.472V77.096H140.872V80H142.336Z" fill="white"/>
<path d="M160.464 74.156H161.82C161.856 74.156 162.024 74.3 162.108 74.456V75.2C162.108 75.248 162.084 75.296 162.036 75.32C161.232 75.716 160.392 76.124 159.588 76.52C159.072 76.772 158.652 77.252 158.652 77.876V80H163.476V78.596H160.116V77.912C160.116 77.852 160.164 77.84 160.224 77.804C161.028 77.408 161.844 77.012 162.648 76.616C163.14 76.376 163.572 75.896 163.572 75.236V74.48C163.572 74.372 163.548 73.952 163.356 73.7C163.224 73.532 162.876 73.16 162.696 73.04C162.456 72.872 162.12 72.752 161.82 72.752H160.44C159.708 72.752 159.144 73.364 158.856 73.748C158.748 73.892 158.652 74.072 158.556 74.3L159.96 74.648C160.044 74.444 160.332 74.228 160.464 74.156Z" fill="white"/>
<path d="M172.651 74.156H174.007C174.043 74.156 174.211 74.3 174.295 74.456V75.2C174.295 75.248 174.271 75.296 174.223 75.32C173.419 75.716 172.579 76.124 171.775 76.52C171.259 76.772 170.839 77.252 170.839 77.876V80H175.663V78.596H172.303V77.912C172.303 77.852 172.351 77.84 172.411 77.804C173.215 77.408 174.031 77.012 174.835 76.616C175.327 76.376 175.759 75.896 175.759 75.236V74.48C175.759 74.372 175.735 73.952 175.543 73.7C175.411 73.532 175.063 73.16 174.883 73.04C174.643 72.872 174.307 72.752 174.007 72.752H172.627C171.895 72.752 171.331 73.364 171.043 73.748C170.935 73.892 170.839 74.072 170.743 74.3L172.147 74.648C172.231 74.444 172.519 74.228 172.651 74.156Z" fill="white"/>
<path d="M195.066 77.708V76.352H191.958V77.708H195.066Z" fill="white"/>
<path d="M213.186 74.156H214.542C214.578 74.156 214.746 74.3 214.83 74.456V75.2C214.83 75.248 214.806 75.296 214.758 75.32C213.954 75.716 213.114 76.124 212.31 76.52C211.794 76.772 211.374 77.252 211.374 77.876V80H216.198V78.596H212.838V77.912C212.838 77.852 212.886 77.84 212.946 77.804C213.75 77.408 214.566 77.012 215.37 76.616C215.862 76.376 216.294 75.896 216.294 75.236V74.48C216.294 74.372 216.27 73.952 216.078 73.7C215.946 73.532 215.598 73.16 215.418 73.04C215.178 72.872 214.842 72.752 214.542 72.752H213.162C212.43 72.752 211.866 73.364 211.578 73.748C211.47 73.892 211.374 74.072 211.278 74.3L212.682 74.648C212.766 74.444 213.054 74.228 213.186 74.156Z" fill="white"/>
<path d="M228.566 73.904V72.8H223.622V74.204H226.838L223.922 80H225.59L228.566 73.904Z" fill="white"/>
<path d="M238.005 78.908L236.625 78.488L235.449 80.996H237.045L238.005 78.908Z" fill="white"/>
<path d="M256.182 74.156H257.538C257.574 74.156 257.742 74.3 257.826 74.456V75.2C257.826 75.248 257.802 75.296 257.754 75.32C256.95 75.716 256.11 76.124 255.306 76.52C254.79 76.772 254.37 77.252 254.37 77.876V80H259.194V78.596H255.834V77.912C255.834 77.852 255.882 77.84 255.942 77.804C256.746 77.408 257.562 77.012 258.366 76.616C258.858 76.376 259.29 75.896 259.29 75.236V74.48C259.29 74.372 259.266 73.952 259.074 73.7C258.942 73.532 258.594 73.16 258.414 73.04C258.174 72.872 257.838 72.752 257.538 72.752H256.158C255.426 72.752 254.862 73.364 254.574 73.748C254.466 73.892 254.37 74.072 254.274 74.3L255.678 74.648C255.762 74.444 256.05 74.228 256.182 74.156Z" fill="white"/>
<path d="M271.55 78.212V74.6C271.55 74.336 271.502 74.072 271.346 73.844C271.202 73.652 270.746 73.148 270.458 72.98H270.47C270.266 72.86 269.978 72.752 269.69 72.752H268.274C267.974 72.752 267.686 72.86 267.482 72.98C267.218 73.136 266.75 73.652 266.606 73.844C266.45 74.072 266.402 74.336 266.402 74.6V78.212C266.402 78.464 266.45 78.728 266.606 78.956C266.75 79.16 267.218 79.676 267.482 79.832C267.686 79.952 267.974 80.06 268.274 80.06H269.69C269.978 80.06 270.266 79.952 270.47 79.832H270.458C270.746 79.664 271.202 79.16 271.346 78.956C271.502 78.728 271.55 78.464 271.55 78.212ZM270.086 78.212C269.954 78.404 269.75 78.596 269.654 78.656H268.298C268.19 78.596 267.986 78.392 267.866 78.212V74.612C268.01 74.408 268.214 74.228 268.31 74.156H269.666C269.786 74.228 270.002 74.444 270.086 74.6V78.212Z" fill="white"/>
<path d="M280.557 74.156H281.913C281.949 74.156 282.117 74.3 282.201 74.456V75.2C282.201 75.248 282.177 75.296 282.129 75.32C281.325 75.716 280.485 76.124 279.681 76.52C279.165 76.772 278.745 77.252 278.745 77.876V80H283.569V78.596H280.209V77.912C280.209 77.852 280.257 77.84 280.317 77.804C281.121 77.408 281.937 77.012 282.741 76.616C283.233 76.376 283.665 75.896 283.665 75.236V74.48C283.665 74.372 283.641 73.952 283.449 73.7C283.317 73.532 282.969 73.16 282.789 73.04C282.549 72.872 282.213 72.752 281.913 72.752H280.533C279.801 72.752 279.237 73.364 278.949 73.748C278.841 73.892 278.745 74.072 278.649 74.3L280.053 74.648C280.137 74.444 280.425 74.228 280.557 74.156Z" fill="white"/>
<path d="M294.485 80V72.8H291.713V74.228H293.009V80H294.485Z" fill="white"/>
<defs>
<filter id="filter0_d" x="0" y="0" width="382" height="382" filterUnits="userSpaceOnUse" color-interpolation-filters="sRGB">
<feFlood flood-opacity="0" result="BackgroundImageFix"/>
<feColorMatrix in="SourceAlpha" type="matrix" values="0 0 0 0 0 0 0 0 0 0 0 0 0 0 0 0 0 0 127 0"/>
<feOffset dy="-20"/>
<feGaussianBlur stdDeviation="10"/>
<feColorMatrix type="matrix" values="0 0 0 0 0 0 0 0 0 0 0 0 0 0 0 0 0 0 0.2 0"/>
<feBlend mode="normal" in2="BackgroundImageFix" result="effect1_dropShadow"/>
<feBlend mode="normal" in="SourceGraphic" in2="effect1_dropShadow" result="shape"/>
</filter>
</defs>
</svg>
