<svg width="344" height="221" viewBox="0 0 344 221" fill="none" xmlns="http://www.w3.org/2000/svg">
<path d="M277.837 176.431C279.157 176.454 280.46 176.131 281.617 175.495C282.713 174.884 283.613 173.976 284.214 172.875C284.849 171.71 285.171 170.399 285.15 169.072C285.15 166.939 284.468 165.18 283.104 163.795C281.739 162.41 279.987 161.718 277.847 161.718C275.714 161.718 273.962 162.41 272.591 163.795C271.22 165.18 270.538 166.939 270.544 169.072C270.544 171.205 271.226 172.964 272.591 174.349C273.955 175.733 275.707 176.426 277.847 176.426L277.837 176.431ZM286.429 177.485C284.142 179.714 281.278 180.828 277.837 180.828C274.396 180.828 271.535 179.72 269.255 177.503C266.97 175.272 265.828 172.467 265.828 169.087C265.801 166.971 266.343 164.886 267.396 163.051C268.415 161.269 269.912 159.808 271.718 158.833C273.608 157.836 275.712 157.315 277.848 157.315C279.985 157.315 282.089 157.836 283.978 158.833C285.785 159.808 287.282 161.269 288.301 163.051C289.349 164.884 289.887 166.965 289.859 169.077C289.85 172.457 288.704 175.265 286.419 177.503L286.429 177.485Z" fill="#191B1E"/>
<path d="M251.668 176.433C252.988 176.456 254.292 176.133 255.449 175.497C256.544 174.886 257.444 173.978 258.045 172.878C258.679 171.712 259.001 170.402 258.979 169.074C258.979 166.941 258.296 165.182 256.932 163.797C255.568 162.413 253.816 161.72 251.676 161.72C249.542 161.72 247.79 162.413 246.419 163.797C245.048 165.182 244.366 166.941 244.373 169.074C244.373 171.208 245.055 172.967 246.419 174.351C247.783 175.736 249.536 176.428 251.676 176.428L251.668 176.433ZM260.258 177.487C257.967 179.716 255.104 180.831 251.668 180.831C248.232 180.831 245.375 179.722 243.097 177.505C240.812 175.275 239.669 172.47 239.669 169.09C239.641 166.978 240.179 164.897 241.227 163.063C242.241 161.278 243.735 159.813 245.539 158.833C247.429 157.836 249.533 157.315 251.669 157.315C253.806 157.315 255.91 157.836 257.799 158.833C259.606 159.808 261.103 161.269 262.122 163.051C263.17 164.884 263.708 166.965 263.68 169.077C263.678 172.459 262.535 175.268 260.25 177.505L260.258 177.487Z" fill="#191B1E"/>
<path d="M162.751 162.39C161.513 162.351 160.3 162.749 159.324 163.513C158.364 164.313 157.699 165.41 157.434 166.631H168.279C168.039 165.789 167.629 165.006 167.074 164.329C166.56 163.715 165.914 163.226 165.184 162.897C164.418 162.558 163.589 162.387 162.751 162.398V162.39ZM174.346 169.005C174.345 169.604 174.303 170.202 174.221 170.795H157.267C157.516 172.32 158.119 173.491 159.076 174.307C160.032 175.124 161.259 175.533 162.754 175.533C163.726 175.546 164.685 175.31 165.54 174.847C166.352 174.409 167.028 173.754 167.494 172.957H173.889C173.132 175.304 171.641 177.347 169.636 178.783C167.631 180.22 165.218 180.974 162.751 180.935C159.426 180.935 156.656 179.799 154.441 177.528C152.226 175.256 151.117 172.443 151.116 169.087C151.11 167.791 151.299 166.502 151.676 165.263C152.028 164.085 152.575 162.975 153.295 161.978C153.989 161.021 154.823 160.174 155.768 159.464C156.737 158.74 157.819 158.182 158.971 157.812C160.193 157.419 161.469 157.224 162.751 157.231C164.873 157.198 166.963 157.744 168.798 158.809C170.545 159.82 171.971 161.303 172.911 163.088C173.873 164.908 174.366 166.939 174.346 168.997V169.005Z" fill="#191B1E"/>
<path d="M227.38 175.85H237.1C237.727 175.85 238.328 176.099 238.771 176.542C239.214 176.985 239.463 177.586 239.463 178.213V180.295H222.581V157.684V151.207H224.996C225.622 151.209 226.222 151.459 226.665 151.902C227.108 152.344 227.357 152.944 227.359 153.571V157.684L227.38 175.85Z" fill="#191B1E"/>
<path d="M190.871 157.315C193.419 157.315 195.434 158.168 196.918 159.873C198.401 161.579 199.142 163.858 199.141 166.711V180.301H193.073V167.662C193.073 164.31 191.771 162.633 189.167 162.633C188.225 162.611 187.296 162.856 186.487 163.339C185.711 163.828 185.102 164.542 184.742 165.386C184.322 166.37 184.117 167.433 184.141 168.504V180.306H178.071V157.551H183.443V160.641C183.858 160.116 184.34 159.648 184.878 159.249C185.428 158.842 186.02 158.494 186.643 158.211C187.289 157.917 187.965 157.694 188.658 157.546C189.389 157.391 190.134 157.315 190.881 157.318" fill="#191B1E"/>
<path d="M144.646 157.854L139.285 172.897L133.757 157.854H127.317L136.418 180.295H142.027L150.962 157.854H144.646Z" fill="#191B1E"/>
<path d="M204.694 157.857H201.325V162.717H205.397V172.275C205.358 173.766 205.687 175.242 206.354 176.575C206.969 177.758 207.934 178.722 209.116 179.338C210.436 180.002 211.899 180.33 213.375 180.294H217.655V174.895H214.913C213.804 174.895 212.951 174.597 212.355 174.002C211.758 173.407 211.46 172.569 211.462 171.488V162.719H217.529V157.859H211.339V156.987V151.999H205.397V156.987V157.859L204.694 157.857Z" fill="#191B1E"/>
<path d="M114.327 174.435H125.92V180.295H108.009V151.207H125.464V157.024H114.327V162.758H124.382V168.452H114.327V174.435Z" fill="#191B1E"/>
<path d="M298.566 174.334C299.95 175.732 301.702 176.431 303.822 176.431C305.942 176.431 307.694 175.732 309.078 174.334C310.463 172.936 311.155 171.183 311.155 169.077C311.155 166.971 310.467 165.218 309.089 163.818C307.704 162.42 305.959 161.721 303.853 161.721C302.527 161.7 301.22 162.026 300.059 162.667C298.948 163.28 298.032 164.195 297.42 165.307C296.789 166.459 296.468 167.754 296.486 169.067C296.486 171.173 297.178 172.925 298.563 174.324L298.566 174.334ZM304.172 157.306C306.267 157.275 308.332 157.798 310.158 158.823C311.91 159.813 313.35 161.274 314.315 163.041C315.324 164.887 315.839 166.963 315.811 169.067C315.811 172.447 314.709 175.252 312.506 177.483C310.303 179.713 307.526 180.828 304.175 180.828C301.293 180.828 298.814 179.928 296.737 178.127V188.359H294.486C293.86 188.357 293.261 188.107 292.818 187.665C292.376 187.223 292.127 186.624 292.125 185.998V157.518H293.741C294.367 157.52 294.966 157.77 295.409 158.212C295.851 158.654 296.1 159.254 296.102 159.879V160.598C298.27 158.41 300.961 157.316 304.175 157.316L304.172 157.306Z" fill="#191B1E"/>
<path d="M70.3126 181.211L79.6464 165.006L70.3049 148.799L60.943 165.006L70.2845 181.213L70.3126 181.211ZM29 163.669H36.8195L51.6272 138.018H45.3705C44.8962 138.012 44.4286 138.131 44.0149 138.363C43.6211 138.614 43.2959 138.958 43.0684 139.366L29.0537 163.651L29 163.669ZM39.9018 163.669L43.8077 156.895H62.4803L58.5744 163.669H39.9018ZM58.5744 166.339L67.9159 182.546H49.2432L39.9018 166.339H58.5744ZM36.7607 166.339L47.2327 184.469C47.3412 184.697 47.5118 184.89 47.7248 185.026C47.9379 185.162 48.1849 185.235 48.4375 185.237H69.5248L71.6069 188.843L73.4281 192H45.414C44.9397 192.006 44.4721 191.887 44.0583 191.654C43.6649 191.405 43.3431 191.058 43.1247 190.647L29.11 166.359H36.9116L36.7607 166.339ZM45.2989 154.197L49.2125 147.426H67.8852L63.9716 154.197H45.2989ZM50.7677 144.763L54.6736 138H73.3463L69.4532 144.763H50.7677ZM71.8064 146.109L75.7123 139.335L89.7271 163.62C89.9718 164.026 90.1012 164.491 90.1012 164.965C90.1012 165.44 89.9718 165.905 89.7271 166.311L75.7123 190.596L71.8064 183.832L82.3271 165.618C82.4442 165.415 82.5059 165.184 82.5059 164.95C82.5059 164.716 82.4442 164.485 82.3271 164.282L71.8064 146.109Z" fill="url(#paint0_linear)"/>
<path d="M111.14 38.9069L116.497 42V70L92.2487 84L89.5498 82.4418V35.6088L84.1522 38.7251V79.3255L78.7546 76.2092V41.8414L73.3572 44.9576V73.093L68 70V42L92.2487 28L94.9474 29.5581V76.4291L100.345 73.3129V32.6743L105.742 35.7906V70.1966L111.14 67.0803V38.9069Z" fill="#191B1E"/>
<path d="M92.75 22.701L92 22.2679L91.25 22.701L63.5372 38.701L62.7872 39.134V40V72V72.866L63.5372 73.299L91.25 89.299L92 89.732L92.75 89.299L120.463 73.299L121.213 72.866V72V40V39.134L120.463 38.701L92.75 22.701Z" stroke="#191B1E" stroke-width="3"/>
<path d="M160.194 54.3379H147.356C145.528 54.3379 144.21 55.618 144.21 57.311V68.0885C144.21 69.7815 145.528 71.0616 147.356 71.0616H157.345C157.941 71.0616 158.153 71.3506 158.153 71.8461V77.751C158.153 78.2878 157.941 78.5769 157.345 78.5769H150.204C149.609 78.5769 149.396 78.2878 149.396 77.751V74.8192H144.21V80.2699C144.21 81.9216 145.528 83.243 147.356 83.243H160.194C162.064 83.243 163.339 81.9216 163.339 80.2699V69.3685C163.339 67.6755 162.064 66.3954 160.194 66.3954H150.204C149.609 66.3954 149.396 66.1064 149.396 65.5696V59.8299C149.396 59.2931 149.609 59.004 150.204 59.004H157.345C157.941 59.004 158.153 59.2931 158.153 59.8299V62.39H163.339V57.311C163.339 55.618 162.064 54.3379 160.194 54.3379Z" fill="#191B1E"/>
<path d="M181.444 54.3379V77.751C181.444 78.2878 181.231 78.5769 180.636 78.5769H173.494C172.899 78.5769 172.687 78.2878 172.687 77.751V54.3379H167.501V80.2699C167.501 81.9216 168.818 83.243 170.646 83.243H183.484C185.354 83.243 186.63 81.9216 186.63 80.2699V54.3379H181.444Z" fill="#191B1E"/>
<path d="M216.93 54.3379H209.661L203.795 71.6397L197.929 54.3379H190.872V83.243H196.058V63.6701L201.584 79.6092H206.048L211.744 63.092V83.243H216.93V54.3379Z" fill="#191B1E"/>
<path d="M247.234 54.3379H239.965L234.099 71.6397L228.233 54.3379H221.176V83.243H226.362V63.6701L231.889 79.6092H236.352L242.048 63.092V83.243H247.234V54.3379Z" fill="#191B1E"/>
<path d="M251.608 83.243H256.794V54.3379H251.608V83.243Z" fill="#191B1E"/>
<path d="M279.31 54.3379H260.181V59.004H267.195V83.243H272.381V59.004H279.31V54.3379Z" fill="#191B1E"/>
<path d="M157.781 28.5742H153.995L150.94 37.7709L147.885 28.5742H144.211V43.9385H146.911V33.5347L149.789 42.007H152.114L155.08 33.2274V43.9385H157.781V28.5742Z" fill="#191B1E"/>
<path d="M169.961 28.5742H163.276C162.324 28.5742 161.638 29.2546 161.638 30.1545V42.3582C161.638 43.2362 162.324 43.9385 163.276 43.9385H169.961C170.935 43.9385 171.599 43.2362 171.599 42.3582V30.1545C171.599 29.2546 170.935 28.5742 169.961 28.5742ZM168.899 31.4934V41.0193C168.899 41.3046 168.788 41.4583 168.478 41.4583H164.759C164.449 41.4583 164.338 41.3046 164.338 41.0193V31.4934C164.338 31.2081 164.449 31.0545 164.759 31.0545H168.478C168.788 31.0545 168.899 31.2081 168.899 31.4934Z" fill="#191B1E"/>
<path d="M183.78 28.5742H175.457V43.9385H183.78C184.754 43.9385 185.418 43.2362 185.418 42.3582V30.1545C185.418 29.2546 184.754 28.5742 183.78 28.5742ZM182.718 31.4934V41.0193C182.718 41.3046 182.607 41.4583 182.297 41.4583H178.157V31.0545H182.297C182.607 31.0545 182.718 31.2081 182.718 31.4934Z" fill="#191B1E"/>
<path d="M198.196 31.0545V28.5742H189.274V43.9385H198.196V41.4583H191.975V37.4855H196.624V34.9833H191.975V31.0545H198.196Z" fill="#191B1E"/>
<path d="M210.249 28.5742H201.903V43.9385H204.604V37.9025H208.699C209.031 37.9025 209.186 38.0781 209.186 38.4074V43.9385H211.887V38.0562C211.887 37.3538 211.511 36.827 210.736 36.6734C211.511 36.4759 211.887 35.971 211.887 35.2687V30.1545C211.887 29.2546 211.201 28.5742 210.249 28.5742ZM209.186 31.4934V34.9175C209.186 35.2467 209.031 35.4223 208.699 35.4223H204.604V31.0545H208.766C209.076 31.0545 209.186 31.2081 209.186 31.4934Z" fill="#191B1E"/>
<path d="M223.755 28.5742V38.6269L218.885 28.5742H215.786V43.9385H218.442V33.82L223.357 43.9385H226.412V28.5742H223.755Z" fill="#191B1E"/>
<path d="M250.63 28.5742L249.014 39.5268L246.822 30.5057H244.365L242.173 39.5268L240.557 28.5742H237.569L240.203 43.9385H243.767L245.604 36.1905L247.42 43.9385H250.984L253.618 28.5742H250.63Z" fill="#191B1E"/>
<path d="M265.641 31.0545V28.5742H256.72V43.9385H265.641V41.4583H259.421V37.4855H264.07V34.9833H259.421V31.0545H265.641Z" fill="#191B1E"/>
<path d="M277.673 28.5742H269.349V43.9385H277.673C278.647 43.9385 279.311 43.2362 279.311 42.3582V37.5733C279.311 36.8709 278.956 36.3442 278.16 36.1905C278.956 36.0149 279.311 35.4882 279.311 34.7858V30.1545C279.311 29.2546 278.647 28.5742 277.673 28.5742ZM276.61 31.4934V34.4346C276.61 34.7858 276.455 34.9394 276.123 34.9394H272.05V31.0545H276.189C276.499 31.0545 276.61 31.2081 276.61 31.4934ZM276.61 37.9245V41.0193C276.61 41.3046 276.499 41.4583 276.189 41.4583H272.05V37.4416H276.123C276.455 37.4416 276.61 37.5953 276.61 37.9245Z" fill="#191B1E"/>
<rect x="342.5" y="110.5" width="341" height="109" transform="rotate(-180 342.5 110.5)" stroke="#191B1E" stroke-width="3"/>
<rect x="1.5" y="110.5" width="341" height="109" stroke="#191B1E" stroke-width="3"/>
<rect x="171" y="109" width="9" height="3" fill="white"/>
<rect x="165" y="109" width="9" height="3" fill="white"/>
<rect y="112" width="9" height="3" fill="white"/>
<rect x="335" y="106" width="9" height="3" fill="white"/>
<path fill-rule="evenodd" clip-rule="evenodd" d="M171 112V115H174V112H177V109H174V106H171V109H168V112H171Z" fill="#191B1E"/>
<defs>
<linearGradient id="paint0_linear" x1="69.0204" y1="182.189" x2="49.0102" y2="148.005" gradientUnits="userSpaceOnUse">
<stop stop-color="#5951FE"/>
<stop offset="1" stop-color="#BB6BD9"/>
</linearGradient>
</defs>
</svg>
