<svg width="382" height="422" viewBox="0 0 382 422" fill="none" xmlns="http://www.w3.org/2000/svg">
<g filter="url(#filter0_d)">
<rect x="20" width="342" height="342" fill="#191919"/>
</g>
<path d="M262.266 109.278L282.542 120.984V226.952L190.771 279.936L180.557 274.039V96.7959L160.129 108.59V262.245L139.702 250.451V120.384L119.275 132.177V238.657L99 226.952V120.984L190.771 68L200.984 73.8967V251.283L221.411 239.49V85.6902L241.839 97.4841V227.696L262.266 215.902V109.278Z" fill="white"/>
<path d="M81.761 358.669H54.6445C50.7835 358.669 48 361.453 48 365.134V388.569C48 392.251 50.7835 395.034 54.6445 395.034H75.7451C77.0021 395.034 77.4511 395.663 77.4511 396.74V409.58C77.4511 410.748 77.0021 411.376 75.7451 411.376H60.6604C59.4033 411.376 58.9544 410.748 58.9544 409.58V403.205H48V415.058C48 418.649 50.7835 421.522 54.6445 421.522H81.761C85.7118 421.522 88.4055 418.649 88.4055 415.058V391.353C88.4055 387.672 85.7118 384.888 81.761 384.888H60.6604C59.4033 384.888 58.9544 384.26 58.9544 383.092V370.611C58.9544 369.444 59.4033 368.816 60.6604 368.816H75.7451C77.0021 368.816 77.4511 369.444 77.4511 370.611V376.178H88.4055V365.134C88.4055 361.453 85.7118 358.669 81.761 358.669Z" fill="#191919"/>
<path d="M126.647 358.669V409.58C126.647 410.748 126.198 411.376 124.941 411.376H109.856C108.599 411.376 108.15 410.748 108.15 409.58V358.669H97.1958V415.058C97.1958 418.649 99.9792 421.522 103.84 421.522H130.957C134.908 421.522 137.601 418.649 137.601 415.058V358.669H126.647Z" fill="#191919"/>
<path d="M201.604 358.669H186.25L173.859 396.291L161.468 358.669H146.563V421.522H157.517V378.962L169.19 413.621H178.618L190.65 377.705V421.522H201.604V358.669Z" fill="#191919"/>
<path d="M265.614 358.669H250.26L237.869 396.291L225.478 358.669H210.573V421.522H221.527V378.962L233.2 413.621H242.628L254.66 377.705V421.522H265.614V358.669Z" fill="#191919"/>
<path d="M274.853 421.522H285.807V358.669H274.853V421.522Z" fill="#191919"/>
<path d="M333.367 358.669H292.962V368.816H307.777V421.522H318.731V368.816H333.367V358.669Z" fill="#191919"/>
<path d="M77.3522 309.254H69.3413L62.8765 328.883L56.4116 309.254H48.635V342.047H54.3503V319.841L60.4404 337.924H65.3594L71.6368 319.185V342.047H77.3522V309.254Z" fill="white"/>
<path d="M103.129 309.254H88.9808C86.9664 309.254 85.5141 310.706 85.5141 312.627V338.674C85.5141 340.548 86.9664 342.047 88.9808 342.047H103.129C105.19 342.047 106.595 340.548 106.595 338.674V312.627C106.595 310.706 105.19 309.254 103.129 309.254ZM100.88 315.485V335.816C100.88 336.425 100.646 336.753 99.9898 336.753H92.1195C91.4637 336.753 91.2295 336.425 91.2295 335.816V315.485C91.2295 314.876 91.4637 314.548 92.1195 314.548H99.9898C100.646 314.548 100.88 314.876 100.88 315.485Z" fill="white"/>
<path d="M132.372 309.254H114.758V342.047H132.372C134.433 342.047 135.839 340.548 135.839 338.674V312.627C135.839 310.706 134.433 309.254 132.372 309.254ZM130.123 315.485V335.816C130.123 336.425 129.889 336.753 129.233 336.753H120.473V314.548H129.233C129.889 314.548 130.123 314.876 130.123 315.485Z" fill="white"/>
<path d="M162.878 314.548V309.254H143.999V342.047H162.878V336.753H149.714V328.274H159.552V322.933H149.714V314.548H162.878Z" fill="white"/>
<path d="M188.385 309.254H170.724V342.047H176.439V329.164H185.106C185.809 329.164 186.137 329.539 186.137 330.241V342.047H191.852V329.492C191.852 327.993 191.055 326.868 189.416 326.54C191.055 326.119 191.852 325.041 191.852 323.542V312.627C191.852 310.706 190.4 309.254 188.385 309.254ZM186.137 315.485V322.793C186.137 323.495 185.809 323.87 185.106 323.87H176.439V314.548H185.246C185.902 314.548 186.137 314.876 186.137 315.485Z" fill="white"/>
<path d="M216.967 309.254V330.71L206.661 309.254H200.102V342.047H205.724V320.45L216.124 342.047H222.589V309.254H216.967Z" fill="white"/>
<path d="M273.839 309.254L270.42 332.631L265.782 313.376H260.582L255.944 332.631L252.524 309.254H246.2L251.775 342.047H259.317L263.205 325.51L267.047 342.047H274.589L280.164 309.254H273.839Z" fill="white"/>
<path d="M305.607 314.548V309.254H286.728V342.047H305.607V336.753H292.443V328.274H302.281V322.933H292.443V314.548H305.607Z" fill="white"/>
<path d="M331.068 309.254H313.453V342.047H331.068C333.129 342.047 334.534 340.548 334.534 338.674V328.461C334.534 326.962 333.785 325.838 332.098 325.51C333.785 325.135 334.534 324.011 334.534 322.512V312.627C334.534 310.706 333.129 309.254 331.068 309.254ZM328.819 315.485V321.762C328.819 322.512 328.491 322.84 327.788 322.84H319.169V314.548H327.929C328.585 314.548 328.819 314.876 328.819 315.485ZM328.819 329.211V335.816C328.819 336.425 328.585 336.753 327.929 336.753H319.169V328.18H327.788C328.491 328.18 328.819 328.508 328.819 329.211Z" fill="white"/>
<path d="M91.4118 23.212V19.6C91.4118 19.336 91.3638 19.072 91.2078 18.844C91.0518 18.652 90.5958 18.136 90.3318 17.98C90.1278 17.86 89.8278 17.752 89.5398 17.752H87.7158C87.4158 17.752 87.1278 17.86 86.9238 17.98C86.6598 18.136 86.1918 18.652 86.0478 18.844C85.8918 19.072 85.8438 19.336 85.8438 19.6V23.212C85.8438 23.464 85.8918 23.728 86.0478 23.956C86.1918 24.16 86.6598 24.676 86.9238 24.832C87.1278 24.952 87.4158 25.06 87.7158 25.06H89.5398C89.8278 25.06 90.1278 24.952 90.3318 24.832C90.5958 24.676 91.0518 24.16 91.2078 23.956C91.3638 23.728 91.4118 23.464 91.4118 23.212ZM89.9478 23.212C89.8158 23.38 89.5998 23.584 89.5038 23.656H87.7398C87.6438 23.596 87.4398 23.392 87.3078 23.212V19.612C87.4518 19.408 87.6558 19.228 87.7518 19.156H89.5158C89.6358 19.228 89.8638 19.456 89.9478 19.6V23.212ZM104.108 25V17.8H102.644V22.096L100.34 17.8H98.8405V25H100.304V20.764L102.632 25H104.108ZM116.258 25V23.584H113.066V17.8H111.602V25H116.258ZM124.751 25V17.8H123.275V25H124.751ZM137.554 25V17.8H136.09V22.096L133.786 17.8H132.286V25H133.75V20.764L136.078 25H137.554ZM149.776 25V23.596H146.512V22.084H149.668V20.68H146.512V19.204H149.776V17.8H145.048V25H149.776ZM171.806 22.732V21.388H170.018V23.356C169.934 23.512 169.73 23.644 169.682 23.644H167.87C167.846 23.644 167.654 23.488 167.558 23.344V22.42C167.654 22.276 167.846 22.108 167.87 22.108H169.178V20.752H167.87C167.822 20.752 167.642 20.584 167.558 20.416V19.492C167.654 19.336 167.846 19.156 167.87 19.156H168.902C169.034 19.216 169.25 19.252 169.454 19.66L170.786 19.288C170.714 19.096 170.618 18.94 170.51 18.772C170.258 18.376 169.718 17.752 168.938 17.752H167.87C167.522 17.752 167.21 17.896 166.97 18.064C166.802 18.184 166.454 18.52 166.334 18.7C166.19 18.916 166.094 19.228 166.094 19.492V20.404C166.094 20.884 166.298 21.16 166.526 21.412C166.31 21.64 166.094 21.964 166.094 22.42V23.344C166.094 23.632 166.178 23.908 166.334 24.124C166.442 24.292 166.79 24.652 166.97 24.784C167.21 24.952 167.57 25.06 167.87 25.06H169.682C169.982 25.06 170.354 24.952 170.594 24.784C170.774 24.664 171.122 24.292 171.242 24.124C171.386 23.908 171.482 23.62 171.482 23.344V22.732H171.806ZM196.072 17.8H194.512C194.2 19.252 193.888 20.776 193.576 22.24L192.532 17.8H191.044C190.708 19.252 190.336 20.776 190 22.24L189.052 17.8H187.54L189.184 25H190.756C191.092 23.608 191.452 22.18 191.788 20.788L192.832 25H194.404L196.072 17.8ZM208.482 23.212V19.6C208.482 19.336 208.434 19.072 208.278 18.844C208.122 18.652 207.666 18.136 207.402 17.98C207.198 17.86 206.898 17.752 206.61 17.752H204.786C204.486 17.752 204.198 17.86 203.994 17.98C203.73 18.136 203.262 18.652 203.118 18.844C202.962 19.072 202.914 19.336 202.914 19.6V23.212C202.914 23.464 202.962 23.728 203.118 23.956C203.262 24.16 203.73 24.676 203.994 24.832C204.198 24.952 204.486 25.06 204.786 25.06H206.61C206.898 25.06 207.198 24.952 207.402 24.832C207.666 24.676 208.122 24.16 208.278 23.956C208.434 23.728 208.482 23.464 208.482 23.212ZM207.018 23.212C206.886 23.38 206.67 23.584 206.574 23.656H204.81C204.714 23.596 204.51 23.392 204.378 23.212V19.612C204.522 19.408 204.726 19.228 204.822 19.156H206.586C206.706 19.228 206.934 19.456 207.018 19.6V23.212ZM221.191 20.548V19.528C221.191 19.264 221.119 18.952 220.963 18.736C220.843 18.58 220.483 18.208 220.315 18.076C220.087 17.908 219.715 17.8 219.415 17.8H215.911V25H217.375V22.252H218.527L219.955 25H221.587C221.587 25 220.615 23.224 220.027 22.144C220.123 22.096 220.219 22.048 220.315 21.976C220.483 21.856 220.855 21.496 220.963 21.328C221.119 21.1 221.191 20.836 221.191 20.548ZM219.727 20.56C219.655 20.68 219.451 20.848 219.415 20.848H217.375V19.204H219.415C219.535 19.264 219.667 19.396 219.727 19.492V20.56ZM233.352 25V23.584H230.16V17.8H228.696V25H233.352ZM245.661 23.188V19.636C245.661 19.384 245.625 19.132 245.457 18.892C245.313 18.7 244.869 18.184 244.605 18.016C244.377 17.872 244.065 17.8 243.813 17.8H240.321V25H243.813C244.089 25 244.377 24.88 244.581 24.772C244.845 24.616 245.301 24.16 245.469 23.92C245.613 23.692 245.661 23.404 245.661 23.188ZM244.197 23.14C244.077 23.368 243.921 23.5 243.753 23.596H241.785V19.204H243.753C243.933 19.312 244.089 19.432 244.197 19.696V23.14ZM261.134 17.8H259.574C259.262 19.252 258.95 20.776 258.638 22.24L257.594 17.8H256.106C255.77 19.252 255.398 20.776 255.062 22.24L254.114 17.8H252.602L254.246 25H255.818C256.154 23.608 256.514 22.18 256.85 20.788L257.894 25H259.466L261.134 17.8ZM269.525 25V17.8H268.049V25H269.525ZM282.399 23.188V19.636C282.399 19.384 282.363 19.132 282.195 18.892C282.051 18.7 281.607 18.184 281.343 18.016C281.115 17.872 280.803 17.8 280.551 17.8H277.059V25H280.551C280.827 25 281.115 24.88 281.319 24.772C281.583 24.616 282.039 24.16 282.207 23.92C282.351 23.692 282.399 23.404 282.399 23.188ZM280.935 23.14C280.815 23.368 280.659 23.5 280.491 23.596H278.523V19.204H280.491C280.671 19.312 280.827 19.432 280.935 19.696V23.14ZM294.561 25V23.596H291.297V22.084H294.453V20.68H291.297V19.204H294.561V17.8H289.833V25H294.561ZM91.0914 40V32.8H89.5074C88.9794 33.868 88.4514 34.984 87.9234 36.064L86.3154 32.8H84.7194V40H86.1834V35.68L87.4194 38.284H88.3794C88.7874 37.42 89.2194 36.544 89.6274 35.668V40H91.0914ZM104.63 40L102.146 32.8H100.526L98.0301 40H99.5901C99.7461 39.556 99.9261 39.064 100.082 38.62H102.59L103.07 40H104.63ZM102.146 37.216H100.526C100.79 36.448 101.066 35.668 101.33 34.9L102.146 37.216ZM116.847 35.548V34.528C116.847 34.264 116.775 33.952 116.619 33.736C116.499 33.58 116.139 33.208 115.971 33.076C115.743 32.908 115.371 32.8 115.071 32.8H111.567V40H113.031V37.252H114.183L115.611 40H117.243C117.243 40 116.271 38.224 115.683 37.144C115.779 37.096 115.875 37.048 115.971 36.976C116.139 36.856 116.511 36.496 116.619 36.328C116.775 36.1 116.847 35.836 116.847 35.548ZM115.383 35.56C115.311 35.68 115.107 35.848 115.071 35.848H113.031V34.204H115.071C115.191 34.264 115.323 34.396 115.383 34.492V35.56ZM129.764 34.528C129.668 34.276 129.548 34.024 129.356 33.76C129.068 33.364 128.516 32.752 127.784 32.752H126.212C125.924 32.752 125.624 32.872 125.432 32.98C125.156 33.148 124.688 33.652 124.544 33.844C124.388 34.072 124.34 34.324 124.34 34.588V38.224C124.34 38.464 124.4 38.74 124.544 38.968C124.712 39.196 125.168 39.676 125.42 39.832C125.624 39.952 125.924 40.06 126.212 40.06H127.784C128.516 40.06 129.08 39.448 129.368 39.04C129.524 38.824 129.668 38.572 129.776 38.272L128.408 37.936C128.24 38.236 128.048 38.488 127.796 38.656H126.272C125.984 38.488 125.804 38.224 125.804 38.212V34.636C125.912 34.468 126.152 34.24 126.272 34.156H127.772C128.108 34.384 128.252 34.588 128.408 34.912L129.764 34.528ZM142.336 40V32.8H140.872V35.692H138.472V32.8H137.008V40H138.472V37.096H140.872V40H142.336ZM160.464 34.156H161.82C161.856 34.156 162.024 34.3 162.108 34.456V35.2C162.108 35.248 162.084 35.296 162.036 35.32C161.232 35.716 160.392 36.124 159.588 36.52C159.072 36.772 158.652 37.252 158.652 37.876V40H163.476V38.596H160.116V37.912C160.116 37.852 160.164 37.84 160.224 37.804C161.028 37.408 161.844 37.012 162.648 36.616C163.14 36.376 163.572 35.896 163.572 35.236V34.48C163.572 34.372 163.548 33.952 163.356 33.7C163.224 33.532 162.876 33.16 162.696 33.04C162.456 32.872 162.12 32.752 161.82 32.752H160.44C159.708 32.752 159.144 33.364 158.856 33.748C158.748 33.892 158.652 34.072 158.556 34.3L159.96 34.648C160.044 34.444 160.332 34.228 160.464 34.156ZM172.651 34.156H174.007C174.043 34.156 174.211 34.3 174.295 34.456V35.2C174.295 35.248 174.271 35.296 174.223 35.32C173.419 35.716 172.579 36.124 171.775 36.52C171.259 36.772 170.839 37.252 170.839 37.876V40H175.663V38.596H172.303V37.912C172.303 37.852 172.351 37.84 172.411 37.804C173.215 37.408 174.031 37.012 174.835 36.616C175.327 36.376 175.759 35.896 175.759 35.236V34.48C175.759 34.372 175.735 33.952 175.543 33.7C175.411 33.532 175.063 33.16 174.883 33.04C174.643 32.872 174.307 32.752 174.007 32.752H172.627C171.895 32.752 171.331 33.364 171.043 33.748C170.935 33.892 170.839 34.072 170.743 34.3L172.147 34.648C172.231 34.444 172.519 34.228 172.651 34.156ZM195.066 37.708V36.352H191.958V37.708H195.066ZM213.187 34.156H214.543C214.579 34.156 214.747 34.3 214.831 34.456V35.2C214.831 35.248 214.807 35.296 214.759 35.32C213.955 35.716 213.115 36.124 212.311 36.52C211.795 36.772 211.375 37.252 211.375 37.876V40H216.199V38.596H212.839V37.912C212.839 37.852 212.887 37.84 212.947 37.804C213.751 37.408 214.567 37.012 215.371 36.616C215.863 36.376 216.295 35.896 216.295 35.236V34.48C216.295 34.372 216.271 33.952 216.079 33.7C215.947 33.532 215.599 33.16 215.419 33.04C215.179 32.872 214.843 32.752 214.543 32.752H213.163C212.431 32.752 211.867 33.364 211.579 33.748C211.471 33.892 211.375 34.072 211.279 34.3L212.683 34.648C212.767 34.444 213.055 34.228 213.187 34.156ZM228.566 33.904V32.8H223.622V34.204H226.838L223.922 40H225.59L228.566 33.904ZM238.006 38.908L236.626 38.488L235.45 40.996H237.046L238.006 38.908ZM256.183 34.156H257.539C257.575 34.156 257.743 34.3 257.827 34.456V35.2C257.827 35.248 257.803 35.296 257.755 35.32C256.951 35.716 256.111 36.124 255.307 36.52C254.791 36.772 254.371 37.252 254.371 37.876V40H259.195V38.596H255.835V37.912C255.835 37.852 255.883 37.84 255.943 37.804C256.747 37.408 257.563 37.012 258.367 36.616C258.859 36.376 259.291 35.896 259.291 35.236V34.48C259.291 34.372 259.267 33.952 259.075 33.7C258.943 33.532 258.595 33.16 258.415 33.04C258.175 32.872 257.839 32.752 257.539 32.752H256.159C255.427 32.752 254.863 33.364 254.575 33.748C254.467 33.892 254.371 34.072 254.275 34.3L255.679 34.648C255.763 34.444 256.051 34.228 256.183 34.156ZM271.55 38.212V34.6C271.55 34.336 271.502 34.072 271.346 33.844C271.202 33.652 270.746 33.148 270.458 32.98H270.47C270.266 32.86 269.978 32.752 269.69 32.752H268.274C267.974 32.752 267.686 32.86 267.482 32.98C267.218 33.136 266.75 33.652 266.606 33.844C266.45 34.072 266.402 34.336 266.402 34.6V38.212C266.402 38.464 266.45 38.728 266.606 38.956C266.75 39.16 267.218 39.676 267.482 39.832C267.686 39.952 267.974 40.06 268.274 40.06H269.69C269.978 40.06 270.266 39.952 270.47 39.832H270.458C270.746 39.664 271.202 39.16 271.346 38.956C271.502 38.728 271.55 38.464 271.55 38.212ZM270.086 38.212C269.954 38.404 269.75 38.596 269.654 38.656H268.298C268.19 38.596 267.986 38.392 267.866 38.212V34.612C268.01 34.408 268.214 34.228 268.31 34.156H269.666C269.786 34.228 270.002 34.444 270.086 34.6V38.212ZM280.558 34.156H281.914C281.95 34.156 282.118 34.3 282.202 34.456V35.2C282.202 35.248 282.178 35.296 282.13 35.32C281.326 35.716 280.486 36.124 279.682 36.52C279.166 36.772 278.746 37.252 278.746 37.876V40H283.57V38.596H280.21V37.912C280.21 37.852 280.258 37.84 280.318 37.804C281.122 37.408 281.938 37.012 282.742 36.616C283.234 36.376 283.666 35.896 283.666 35.236V34.48C283.666 34.372 283.642 33.952 283.45 33.7C283.318 33.532 282.97 33.16 282.79 33.04C282.55 32.872 282.214 32.752 281.914 32.752H280.534C279.802 32.752 279.238 33.364 278.95 33.748C278.842 33.892 278.746 34.072 278.65 34.3L280.054 34.648C280.138 34.444 280.426 34.228 280.558 34.156ZM294.485 40V32.8H291.713V34.228H293.009V40H294.485Z" fill="white"/>
<defs>
<filter id="filter0_d" x="0" y="-20" width="382" height="382" filterUnits="userSpaceOnUse" color-interpolation-filters="sRGB">
<feFlood flood-opacity="0" result="BackgroundImageFix"/>
<feColorMatrix in="SourceAlpha" type="matrix" values="0 0 0 0 0 0 0 0 0 0 0 0 0 0 0 0 0 0 127 0"/>
<feOffset/>
<feGaussianBlur stdDeviation="10"/>
<feColorMatrix type="matrix" values="0 0 0 0 0 0 0 0 0 0 0 0 0 0 0 0 0 0 0.2 0"/>
<feBlend mode="normal" in2="BackgroundImageFix" result="effect1_dropShadow"/>
<feBlend mode="normal" in="SourceGraphic" in2="effect1_dropShadow" result="shape"/>
</filter>
</defs>
</svg>
