<svg width="7" height="8" viewBox="0 0 7 8" fill="none" xmlns="http://www.w3.org/2000/svg">
<path d="M2 2.3125V1.6875C2 1.58438 2.08437 1.5 2.1875 1.5H2.8125C2.91563 1.5 3 1.58438 3 1.6875V2.3125C3 2.41563 2.91563 2.5 2.8125 2.5H2.1875C2.08437 2.5 2 2.41563 2 2.3125ZM4.1875 2.5H4.8125C4.91563 2.5 5 2.41563 5 2.3125V1.6875C5 1.58438 4.91563 1.5 4.8125 1.5H4.1875C4.08437 1.5 4 1.58438 4 1.6875V2.3125C4 2.41563 4.08437 2.5 4.1875 2.5ZM2.1875 4H2.8125C2.91563 4 3 3.91563 3 3.8125V3.1875C3 3.08437 2.91563 3 2.8125 3H2.1875C2.08437 3 2 3.08437 2 3.1875V3.8125C2 3.91563 2.08437 4 2.1875 4ZM4.1875 4H4.8125C4.91563 4 5 3.91563 5 3.8125V3.1875C5 3.08437 4.91563 3 4.8125 3H4.1875C4.08437 3 4 3.08437 4 3.1875V3.8125C4 3.91563 4.08437 4 4.1875 4ZM3 5.3125V4.6875C3 4.58437 2.91563 4.5 2.8125 4.5H2.1875C2.08437 4.5 2 4.58437 2 4.6875V5.3125C2 5.41563 2.08437 5.5 2.1875 5.5H2.8125C2.91563 5.5 3 5.41563 3 5.3125ZM4.1875 5.5H4.8125C4.91563 5.5 5 5.41563 5 5.3125V4.6875C5 4.58437 4.91563 4.5 4.8125 4.5H4.1875C4.08437 4.5 4 4.58437 4 4.6875V5.3125C4 5.41563 4.08437 5.5 4.1875 5.5ZM7 7.4375V8H0V7.4375C0 7.33437 0.084375 7.25 0.1875 7.25H0.492188V0.375C0.492188 0.167187 0.659375 0 0.867188 0H6.13281C6.34062 0 6.50781 0.167187 6.50781 0.375V7.25H6.8125C6.91563 7.25 7 7.33437 7 7.4375ZM1.24219 7.23438H3V6.1875C3 6.08437 3.08437 6 3.1875 6H3.8125C3.91563 6 4 6.08437 4 6.1875V7.23438H5.75781V0.765625L1.25 0.75L1.24219 7.23438Z" fill="white"/>
</svg>
