<svg width="194" height="138" viewBox="0 0 194 138" fill="none" xmlns="http://www.w3.org/2000/svg">
<path d="M35.2419 6.212V2.6C35.2419 2.336 35.1939 2.072 35.0379 1.844C34.8819 1.652 34.4259 1.136 34.1619 0.98C33.9579 0.86 33.6579 0.752 33.3699 0.752H31.5459C31.2459 0.752 30.9579 0.86 30.7539 0.98C30.4899 1.136 30.0219 1.652 29.8779 1.844C29.7219 2.072 29.6739 2.336 29.6739 2.6V6.212C29.6739 6.464 29.7219 6.728 29.8779 6.956C30.0219 7.16 30.4899 7.676 30.7539 7.832C30.9579 7.952 31.2459 8.06 31.5459 8.06H33.3699C33.6579 8.06 33.9579 7.952 34.1619 7.832C34.4259 7.676 34.8819 7.16 35.0379 6.956C35.1939 6.728 35.2419 6.464 35.2419 6.212ZM33.7779 6.212C33.6459 6.38 33.4299 6.584 33.3339 6.656H31.5699C31.4739 6.596 31.2699 6.392 31.1379 6.212V2.612C31.2819 2.408 31.4859 2.228 31.5819 2.156H33.3459C33.4659 2.228 33.6939 2.456 33.7779 2.6V6.212ZM47.9506 3.548V2.528C47.9506 2.264 47.8786 1.952 47.7226 1.736C47.6026 1.58 47.2426 1.208 47.0746 1.076C46.8466 0.908 46.4746 0.8 46.1746 0.8H42.6706V8H44.1346V5.252H45.2866L46.7146 8H48.3466C48.3466 8 47.3746 6.224 46.7866 5.144C46.8826 5.096 46.9786 5.048 47.0746 4.976C47.2426 4.856 47.6146 4.496 47.7226 4.328C47.8786 4.1 47.9506 3.836 47.9506 3.548ZM46.4866 3.56C46.4146 3.68 46.2106 3.848 46.1746 3.848H44.1346V2.204H46.1746C46.2946 2.264 46.4266 2.396 46.4866 2.492V3.56ZM56.5357 0.968C56.2717 1.124 55.8037 1.64 55.6597 1.832C55.5037 2.06 55.4557 2.324 55.4557 2.588V6.236C55.4557 6.476 55.5157 6.752 55.6597 6.98C55.8277 7.22 56.2837 7.676 56.5357 7.832C56.7397 7.952 57.0277 8.06 57.3277 8.06H59.1397C59.3197 8.06 59.4637 7.976 59.6077 7.892C59.6437 7.868 59.7277 7.808 59.7637 7.796L59.8117 8.012H61.2637L61.1197 7.16C61.0717 6.872 61.0357 6.62 61.0357 6.476V3.776H57.9277V5.144H59.5717V6.224C59.5717 6.308 59.2957 6.572 59.1157 6.656H57.3637C57.1717 6.56 56.9197 6.32 56.9197 6.26V2.624C57.0517 2.42 57.2797 2.228 57.3877 2.156H59.1397C59.4757 2.384 59.6197 2.588 59.7757 2.912L61.1317 2.528C61.0357 2.276 60.9157 2.024 60.7237 1.76C60.4357 1.364 59.8837 0.752 59.1517 0.752H57.3277C57.0397 0.752 56.7397 0.848 56.5357 0.968ZM74.593 8L72.109 0.8H70.489L67.993 8H69.553C69.709 7.556 69.889 7.064 70.045 6.62H72.553L73.033 8H74.593ZM72.109 5.216H70.489C70.753 4.448 71.029 3.668 71.293 2.9L72.109 5.216ZM86.7979 8V0.8H85.3339V5.096L83.0299 0.8H81.5299V8H82.9939V3.764L85.3219 8H86.7979ZM95.8157 8V0.8H94.3397V8H95.8157ZM108.294 8V6.596H105.246L108.294 1.88V0.8H103.35V2.204H106.386L103.302 6.932V8H108.294ZM120.125 8V6.596H116.861V5.084H120.017V3.68H116.861V2.204H120.125V0.8H115.397V8H120.125ZM132.925 6.188V2.636C132.925 2.384 132.889 2.132 132.721 1.892C132.577 1.7 132.133 1.184 131.869 1.016C131.641 0.872 131.329 0.8 131.077 0.8H127.585V8H131.077C131.353 8 131.641 7.88 131.845 7.772C132.109 7.616 132.565 7.16 132.733 6.92C132.877 6.692 132.925 6.404 132.925 6.188ZM131.461 6.14C131.341 6.368 131.185 6.5 131.017 6.596H129.049V2.204H131.017C131.197 2.312 131.353 2.432 131.461 2.696V6.14ZM154.509 6.284V5.42C154.509 4.94 154.341 4.664 154.113 4.412C154.329 4.172 154.509 3.872 154.509 3.404V2.54C154.509 2.288 154.461 1.988 154.293 1.736C154.185 1.592 153.837 1.22 153.657 1.088C153.417 0.92 153.069 0.8 152.745 0.8H149.241V8H152.745C153.045 8 153.417 7.892 153.657 7.724C153.837 7.592 154.185 7.22 154.293 7.064C154.449 6.836 154.509 6.56 154.509 6.284ZM153.045 6.284C152.949 6.452 152.769 6.596 152.733 6.596H150.705V5.072H152.721C152.757 5.072 152.937 5.228 153.045 5.408V6.284ZM153.045 3.416C152.961 3.56 152.769 3.716 152.733 3.716H150.705V2.204H152.721C152.757 2.204 152.937 2.36 153.045 2.54V3.416ZM167.406 0.8H165.75L164.226 3.332L162.726 0.8H161.07L163.482 4.88V8H164.958V4.88L167.406 0.8Z" fill="#4F4F4F"/>
<path fill-rule="evenodd" clip-rule="evenodd" d="M82.1985 32.0002H88.6392L73.5877 58.0009H65.6606L79.9293 33.2834C80.1508 32.8895 80.4742 32.5625 80.8656 32.3367C81.257 32.1109 81.702 31.9947 82.1539 32.0002H82.1985ZM91.7753 32.0002L87.8118 38.8472H106.782L110.746 32.0002H91.7753ZM86.2462 41.582L82.2827 48.424H101.243L105.207 41.582H86.2462ZM80.7171 51.1836L76.7536 58.0257H95.7141L99.6776 51.1836H80.7171ZM113.104 33.3478L127.373 58.0653C127.604 58.4534 127.726 58.8968 127.726 59.3485C127.726 59.8003 127.604 60.2436 127.373 60.6317L120.214 73.0177L113.104 85.369L109.141 78.527L119.797 60.1016C119.929 59.884 119.998 59.6347 119.998 59.3807C119.998 59.1267 119.929 58.8775 119.797 58.6598C117.89 55.3404 109.998 41.6861 109.155 40.2295L113.119 33.3825L113.104 33.3478ZM107.575 75.7872L98.0971 59.3683L107.575 42.9494L117.053 59.3683L107.575 75.7872ZM110.746 86.7315L106.782 79.8895H85.4783C85.2236 79.8927 84.9728 79.8272 84.7522 79.6999C84.5316 79.5726 84.3494 79.3882 84.2248 79.1661L73.5877 60.7357H65.6606L79.9293 85.4483C80.15 85.8429 80.4732 86.1705 80.8648 86.3964C81.2564 86.6223 81.7018 86.7381 82.1539 86.7315H110.746ZM76.7734 60.7357L86.2561 77.1546H105.217L95.7339 60.7357H76.7734Z" fill="black"/>
<path fill-rule="evenodd" clip-rule="evenodd" d="M158.085 126.615C159.315 126.638 160.529 126.339 161.608 125.748C162.628 125.18 163.466 124.335 164.026 123.31C164.615 122.224 164.914 121.004 164.893 119.768C164.923 118.863 164.77 117.961 164.441 117.117C164.112 116.273 163.615 115.504 162.98 114.858C161.655 113.614 159.905 112.922 158.088 112.922C156.27 112.922 154.521 113.614 153.195 114.858C151.963 116.197 151.279 117.951 151.279 119.771C151.279 121.59 151.963 123.344 153.195 124.683C153.834 125.324 154.597 125.826 155.439 126.159C156.28 126.491 157.181 126.646 158.085 126.615ZM166.077 127.606C163.899 129.61 161.047 130.723 158.088 130.723C155.128 130.723 152.276 129.61 150.099 127.606C149.053 126.592 148.229 125.372 147.681 124.022C147.133 122.673 146.871 121.224 146.913 119.768C146.887 117.802 147.388 115.866 148.365 114.16C149.313 112.501 150.706 111.142 152.388 110.236C154.144 109.311 156.1 108.828 158.085 108.828C160.071 108.828 162.026 109.311 163.783 110.236C165.463 111.143 166.857 112.502 167.806 114.16C168.78 115.867 169.281 117.803 169.257 119.768C169.299 121.223 169.038 122.671 168.491 124.019C167.943 125.367 167.121 126.587 166.077 127.601V127.606Z" fill="black"/>
<path fill-rule="evenodd" clip-rule="evenodd" d="M133.724 126.614C134.954 126.636 136.168 126.338 137.247 125.747C138.267 125.179 139.105 124.334 139.665 123.309C140.254 122.223 140.553 121.002 140.532 119.767C140.563 118.861 140.409 117.959 140.08 117.115C139.752 116.271 139.254 115.503 138.619 114.857C137.294 113.613 135.545 112.921 133.727 112.921C131.909 112.921 130.16 113.613 128.834 114.857C127.602 116.196 126.918 117.949 126.918 119.769C126.918 121.589 127.602 123.342 128.834 124.681C129.473 125.322 130.237 125.825 131.078 126.157C131.919 126.49 132.82 126.645 133.724 126.614ZM141.716 127.605C139.538 129.609 136.687 130.722 133.727 130.722C130.767 130.722 127.916 129.609 125.738 127.605C124.691 126.592 123.866 125.373 123.317 124.024C122.767 122.676 122.505 121.227 122.547 119.772C122.521 117.806 123.022 115.869 123.999 114.163C124.947 112.505 126.34 111.146 128.022 110.239C129.779 109.315 131.734 108.831 133.719 108.831C135.705 108.831 137.66 109.315 139.417 110.239C141.098 111.147 142.491 112.506 143.44 114.163C144.427 115.865 144.942 117.799 144.931 119.767C144.969 121.224 144.702 122.673 144.149 124.022C143.595 125.37 142.767 126.589 141.716 127.6V127.605Z" fill="black"/>
<path fill-rule="evenodd" clip-rule="evenodd" d="M50.9607 113.54C49.8062 113.506 48.6759 113.875 47.7651 114.586C46.8736 115.332 46.255 116.353 46.0063 117.489H56.1034C55.8818 116.703 55.5006 115.971 54.9837 115.339C54.5036 114.767 53.9007 114.312 53.2199 114.006C52.5087 113.691 51.7384 113.532 50.9607 113.54ZM61.7514 119.694C61.7496 120.249 61.7115 120.803 61.6375 121.353H45.8428C45.9887 122.612 46.5874 123.774 47.5273 124.623C48.4889 125.413 49.7077 125.82 50.9508 125.768C51.855 125.78 52.7471 125.56 53.542 125.129C54.2988 124.719 54.9279 124.109 55.3602 123.365H61.3055C60.6041 125.552 59.2177 127.455 57.3512 128.793C55.4847 130.132 53.2373 130.834 50.9409 130.796C49.5011 130.834 48.0693 130.571 46.7369 130.024C45.4045 129.477 44.2006 128.659 43.2021 127.621C42.1854 126.586 41.3873 125.358 40.8553 124.009C40.3234 122.66 40.0684 121.218 40.1056 119.768C40.1028 118.563 40.2798 117.364 40.6308 116.211C40.9534 115.116 41.4557 114.083 42.1171 113.154C42.7648 112.264 43.5412 111.476 44.4209 110.815C45.3203 110.144 46.3248 109.627 47.3935 109.284C48.5323 108.922 49.7209 108.739 50.9161 108.744C52.8923 108.72 54.8377 109.234 56.5443 110.231C58.1659 111.168 59.4925 112.541 60.3741 114.194C61.2824 115.885 61.7557 117.775 61.7514 119.694Z" fill="black"/>
<path fill-rule="evenodd" clip-rule="evenodd" d="M111.118 126.075H120.16C120.743 126.075 121.302 126.307 121.715 126.719C122.128 127.132 122.359 127.691 122.359 128.275V130.217H106.654V109.151V103.136H108.903C109.486 103.139 110.044 103.371 110.456 103.783C110.868 104.195 111.1 104.753 111.103 105.336V109.151L111.118 126.075Z" fill="black"/>
<path fill-rule="evenodd" clip-rule="evenodd" d="M77.1302 108.824C79.505 108.824 81.3811 109.617 82.7584 111.202C84.1357 112.788 84.826 114.911 84.8293 117.574V130.227H79.1813V118.456C79.1813 115.334 77.9691 113.774 75.5448 113.774C74.6736 113.757 73.8153 113.985 73.0676 114.433C72.3474 114.884 71.7821 115.544 71.4475 116.325C71.0527 117.241 70.86 118.231 70.8827 119.228V130.217H65.2148V109.042H70.2089V111.916C70.5925 111.426 71.0409 110.991 71.5416 110.623C72.0519 110.233 72.6035 109.901 73.1865 109.632C73.7859 109.357 74.414 109.149 75.0592 109.012C75.7408 108.876 76.4351 108.812 77.1302 108.824Z" fill="black"/>
<path fill-rule="evenodd" clip-rule="evenodd" d="M39.9821 109.324L31.6637 130.212H26.4418L17.9697 109.324H23.9646L29.1122 123.33L34.1013 109.324H39.9821Z" fill="black"/>
<path fill-rule="evenodd" clip-rule="evenodd" d="M89.9969 109.324H86.8657V113.853H90.6559V122.77C90.6207 124.157 90.9251 125.531 91.5427 126.774C92.1171 127.873 93.0144 128.771 94.114 129.345C95.342 129.963 96.7032 130.269 98.0775 130.237H102.041V125.183H99.4896C99.0572 125.211 98.6237 125.152 98.2145 125.01C97.8052 124.868 97.4285 124.646 97.1065 124.356C96.8188 124.04 96.5974 123.671 96.4553 123.268C96.3131 122.865 96.2532 122.439 96.2791 122.012V113.853H101.927V109.324H96.185V108.517V103.869H90.6559V108.517V109.324H89.9969Z" fill="black"/>
<path fill-rule="evenodd" clip-rule="evenodd" d="M5.88088 124.762H16.6716V130.212H0V103.136H16.2455V108.551H5.88088V113.892H15.2397V119.188H5.88088V124.762Z" fill="black"/>
<path fill-rule="evenodd" clip-rule="evenodd" d="M177.383 124.663C178.703 125.915 180.455 126.614 182.275 126.614C184.096 126.614 185.847 125.915 187.167 124.663C188.409 123.336 189.1 121.587 189.1 119.77C189.1 117.953 188.409 116.204 187.167 114.878C186.533 114.234 185.773 113.727 184.934 113.391C184.095 113.054 183.196 112.894 182.292 112.921C181.062 112.906 179.849 113.213 178.775 113.812C177.729 114.385 176.87 115.244 176.298 116.29C175.71 117.361 175.41 118.566 175.426 119.787C175.399 120.692 175.557 121.593 175.89 122.434C176.223 123.276 176.724 124.041 177.363 124.682L177.383 124.663ZM182.604 108.808C184.553 108.779 186.474 109.267 188.173 110.22C189.803 111.143 191.143 112.502 192.043 114.144C192.981 115.863 193.46 117.795 193.435 119.753C193.478 121.199 193.228 122.64 192.699 123.987C192.171 125.334 191.374 126.56 190.358 127.591C189.348 128.619 188.136 129.428 186.798 129.966C185.46 130.504 184.026 130.76 182.585 130.717C180.04 130.772 177.566 129.874 175.649 128.2V137.717H173.553C172.97 137.715 172.412 137.482 172 137.07C171.588 136.658 171.356 136.1 171.353 135.518V109.012H172.869C173.452 109.014 174.01 109.247 174.422 109.659C174.834 110.071 175.066 110.629 175.069 111.211V111.88C176.042 110.879 177.213 110.091 178.507 109.564C179.8 109.038 181.189 108.786 182.585 108.823L182.604 108.808Z" fill="black"/>
</svg>
