<svg width="120" height="120" viewBox="0 0 120 120" fill="none" xmlns="http://www.w3.org/2000/svg">
<g filter="url(#filter0_f)">
<circle cx="60" cy="60" r="16" fill="#16FF11"/>
</g>
<circle cx="61.5" cy="61.5" r="25.5" fill="white"/>
<path d="M88.7461 32.832V29.5881L85.1912 32.7431V37.8089H90.2348L93.3897 34.254H90.1681C89.791 34.2539 89.4293 34.1041 89.1626 33.8375C88.896 33.5708 88.7462 33.2091 88.7461 32.832Z" fill="white"/>
<path d="M89.9903 25.0111C89.7007 25.0471 89.4292 25.1712 89.2126 25.3666L82.8137 31.0545C82.6651 31.1893 82.5467 31.3541 82.4663 31.5379C82.3859 31.7217 82.3453 31.9204 82.3471 32.121V38.631L80.3031 40.6751C75.3852 36.235 68.8651 33.543 61.7285 33.543C46.4313 33.543 34 45.9743 34 61.2715C34 76.5686 46.4313 89 61.7285 89C77.0257 89 89.457 76.5686 89.457 61.2715C89.457 54.1296 86.7486 47.616 82.3027 42.6969L84.3468 40.6529H90.879C91.0813 40.6519 91.2811 40.6079 91.465 40.5236C91.6489 40.4393 91.8127 40.3167 91.9455 40.1641L97.6334 33.7652C97.812 33.5597 97.9279 33.3073 97.9673 33.0379C98.0067 32.7685 97.9679 32.4935 97.8556 32.2455C97.7433 31.9975 97.5622 31.7869 97.3337 31.6388C97.1053 31.4907 96.8391 31.4113 96.5669 31.41H91.59V26.4331C91.5915 26.2304 91.5498 26.0298 91.4675 25.8446C91.3851 25.6594 91.2642 25.4939 91.1127 25.3592C90.9612 25.2246 90.7827 25.1239 90.5891 25.0638C90.3955 25.0038 90.1913 24.9858 89.9903 25.0111ZM88.746 29.5881V32.832C88.7461 33.2091 88.8959 33.5708 89.1626 33.8375C89.4292 34.1041 89.7909 34.2539 90.168 34.254H93.3896L90.2347 37.8089H85.1911V32.7431L88.746 29.5881ZM61.7285 36.3869C68.0926 36.3869 73.8845 38.7776 78.2811 42.6969L74.7485 46.2297C71.2554 43.203 66.7029 41.3638 61.7285 41.3638C50.7507 41.3638 41.8209 50.2936 41.8209 61.2715C41.8209 72.2493 50.7507 81.1791 61.7285 81.1791C72.7064 81.1791 81.6362 72.2493 81.6362 61.2715C81.6362 56.291 79.8037 51.7241 76.7703 48.2293L80.3031 44.6966C84.2291 49.0948 86.6131 54.9013 86.6131 61.2715C86.6131 75.0317 75.4887 86.1561 61.7285 86.1561C47.9683 86.1561 36.8439 75.0317 36.8439 61.2715C36.8439 47.5113 47.9683 36.3869 61.7285 36.3869ZM61.7285 44.2078C65.9326 44.2078 69.7783 45.7187 72.7488 48.2293L69.1939 51.7843C67.1356 50.1602 64.5443 49.1847 61.7285 49.1847C55.07 49.1847 49.6417 54.613 49.6417 61.2715C49.6417 67.93 55.07 73.3583 61.7285 73.3583C68.387 73.3583 73.8153 67.93 73.8153 61.2715C73.8153 58.4492 72.8465 55.8445 71.2158 53.784L74.7707 50.229C77.2879 53.2012 78.7922 57.0612 78.7922 61.2715C78.7922 70.7123 71.1694 78.3352 61.7285 78.3352C52.2877 78.3352 44.6648 70.7123 44.6648 61.2715C44.6648 51.8306 52.2877 44.2078 61.7285 44.2078ZM61.7285 52.0287C63.7691 52.0287 65.6464 52.695 67.172 53.8061L63.0172 57.9832C62.6153 57.8236 62.1835 57.7166 61.7285 57.7166C59.782 57.7166 58.1736 59.325 58.1736 61.2715C58.1736 63.218 59.782 64.8264 61.7285 64.8264C63.675 64.8264 65.2834 63.218 65.2834 61.2715C65.2834 60.8165 65.1764 60.3847 65.0168 59.9828L69.1939 55.8058C70.3113 57.334 70.9713 59.2245 70.9713 61.2715C70.9713 66.3929 66.85 70.5143 61.7285 70.5143C56.607 70.5143 52.4857 66.3929 52.4857 61.2715C52.4857 56.1499 56.607 52.0287 61.7285 52.0287Z" fill="black"/>
<defs>
<filter id="filter0_f" x="0" y="0" width="120" height="120" filterUnits="userSpaceOnUse" color-interpolation-filters="sRGB">
<feFlood flood-opacity="0" result="BackgroundImageFix"/>
<feBlend mode="normal" in="SourceGraphic" in2="BackgroundImageFix" result="shape"/>
<feGaussianBlur stdDeviation="22" result="effect1_foregroundBlur"/>
</filter>
</defs>
</svg>
