<svg width="12" height="10" viewBox="0 0 12 10" fill="none" xmlns="http://www.w3.org/2000/svg">
<path fill-rule="evenodd" clip-rule="evenodd" d="M12 1.18382C11.5591 1.38462 11.0843 1.52041 10.5864 1.58108C11.0949 1.26905 11.4851 0.774289 11.669 0.184906C11.1928 0.473819 10.6667 0.684001 10.1046 0.796677C9.65663 0.306247 9.01637 0 8.3078 0C6.94911 0 5.8468 1.13037 5.8468 2.52438C5.8468 2.72228 5.86793 2.91441 5.91019 3.09932C3.86406 2.99386 2.05036 1.98989 0.835357 0.460815C0.623349 0.834958 0.502197 1.26905 0.502197 1.73131C0.502197 2.60672 0.936786 3.37956 1.59747 3.83243C1.19458 3.82015 0.814226 3.70531 0.481773 3.51752V3.54857C0.481773 4.77212 1.33051 5.7927 2.45747 6.02383C2.2511 6.08306 2.03346 6.11267 1.80877 6.11267C1.65029 6.11267 1.49533 6.09751 1.34531 6.06789C1.65874 7.07042 2.56735 7.80065 3.645 7.82015C2.8026 8.49765 1.74044 8.90141 0.587425 8.90141C0.388799 8.90141 0.192287 8.88985 0 8.86674C1.08963 9.5818 2.38422 10 3.7739 10C8.30287 10 10.7787 6.15385 10.7787 2.81762C10.7787 2.70784 10.7765 2.59805 10.7723 2.49043C11.2534 2.13434 11.6711 1.69014 12 1.18382Z" fill="black"/>
</svg>
