<svg width="120" height="120" viewBox="0 0 120 120" fill="none" xmlns="http://www.w3.org/2000/svg">
<g filter="url(#filter0_f)">
<circle cx="60" cy="60.001" r="16" fill="#16FF11"/>
</g>
<path d="M90.7171 76.085L87.3683 70.2919V38.1691C87.3683 37.5287 86.8331 37 86.168 37H32.8167C32.1516 37 31.6164 37.5287 31.6164 38.1691V70.2919L28.1529 76.2637C28.1376 76.2935 28.1376 76.3158 28.1223 76.3382C28.107 76.3754 28.0994 76.4052 28.0917 76.4424C28.0382 76.5615 28.0076 76.6881 28 76.8222C28 76.8371 28 76.837 28 76.8445V81.1409C28 81.7888 28.5428 82.31 29.208 82.31H89.7691C90.4342 82.31 90.9694 81.7888 90.9694 81.1409V76.9487C90.9771 76.919 91 76.8743 91 76.8445C91 76.5615 90.893 76.286 90.7171 76.085Z" fill="white"/>
<path d="M90.7171 76.085L87.3683 70.2919V38.1691C87.3683 37.5287 86.8331 37 86.168 37H32.8167C32.1516 37 31.6164 37.5287 31.6164 38.1691V70.2919L28.1529 76.2637C28.1376 76.2935 28.1376 76.3158 28.1223 76.3382C28.107 76.3754 28.0994 76.4052 28.0917 76.4424C28.0382 76.5615 28.0076 76.6881 28 76.8222C28 76.8371 28 76.837 28 76.8445V81.1409C28 81.7888 28.5428 82.31 29.208 82.31H89.7691C90.4342 82.31 90.9694 81.7888 90.9694 81.1409V76.9487C90.9771 76.919 91 76.8743 91 76.8445C91 76.5615 90.893 76.286 90.7171 76.085ZM34.0248 39.3381H84.9523V69.4132H68.8506V59.0332C71.0067 58.1993 72.5358 56.1516 72.5358 53.7539C72.5358 51.6168 71.3201 49.7627 69.5464 48.7873V53.605L66.6945 55.2133L63.8351 53.605V48.7873C62.046 49.7627 60.8456 51.6094 60.8456 53.7539C60.8456 56.1516 62.3748 58.1993 64.5232 59.0332V69.4207H54.4768V59.0332C56.6329 58.1993 58.1544 56.1516 58.1544 53.7539C58.1544 50.6042 55.5319 48.0576 52.3131 48.0576C49.079 48.0576 46.4642 50.6042 46.4642 53.7539C46.4642 56.1516 47.9933 58.1993 50.1494 59.0332V69.4207H34.0248V39.3381ZM52.3131 56.9558L49.4536 55.3548V52.1381L52.3131 50.5372L55.1649 52.1381V55.3548L52.3131 56.9558ZM33.5201 71.7588H85.4646L87.7124 75.668H31.2647L33.5201 71.7588ZM88.5687 79.9719H30.4084V78.0135H51.9614C51.9614 78.6614 52.4966 79.19 53.1694 79.19H65.8C66.4575 79.19 67.0004 78.6614 67.0004 78.0135H88.5534V79.9719H88.5687Z" fill="black"/>
<defs>
<filter id="filter0_f" x="0" y="0.000976562" width="120" height="120" filterUnits="userSpaceOnUse" color-interpolation-filters="sRGB">
<feFlood flood-opacity="0" result="BackgroundImageFix"/>
<feBlend mode="normal" in="SourceGraphic" in2="BackgroundImageFix" result="shape"/>
<feGaussianBlur stdDeviation="22" result="effect1_foregroundBlur"/>
</filter>
</defs>
</svg>
