<svg width="21" height="24" viewBox="0 0 21 24" fill="none" xmlns="http://www.w3.org/2000/svg">
<path d="M1.04496 17.4843L1.91113 17.9844L11.5606 1.27149L10.6944 0.771397L1.04496 17.4843Z" fill="white"/>
<path d="M20.1461 16.1475H0.847168V17.1476H20.1461V16.1475Z" fill="white"/>
<path d="M1.22973 16.7098L10.8828 22.2832L11.3829 21.417L1.72982 15.8437L1.22973 16.7098Z" fill="white"/>
<path d="M9.61449 2.18639L19.2676 7.75977L19.7677 6.8936L10.1146 1.32022L9.61449 2.18639Z" fill="white"/>
<path d="M1.23135 6.88774L1.73145 7.75391L11.3845 2.18053L10.8844 1.31436L1.23135 6.88774Z" fill="white"/>
<path d="M9.43989 1.26954L19.0894 17.9824L19.9555 17.4823L10.3061 0.76944L9.43989 1.26954Z" fill="white"/>
<path d="M2.61299 6.22168H1.61279V17.3684H2.61299V6.22168Z" fill="white"/>
<path d="M19.3874 6.22168H18.3872V17.3684H19.3874V6.22168Z" fill="white"/>
<path d="M10.2756 21.1018L10.7124 21.8584L19.108 17.0111L18.6711 16.2545L10.2756 21.1018Z" fill="white"/>
<path d="M20.7137 17.6939C20.1352 18.7001 18.8458 19.0436 17.8396 18.4651C16.8334 17.8867 16.49 16.5973 17.0684 15.5911C17.6468 14.5849 18.9362 14.2414 19.9424 14.8198C20.9547 15.4043 21.2981 16.6877 20.7137 17.6939Z" fill="white"/>
<path d="M3.92607 7.99956C3.34764 9.00578 2.05824 9.34922 1.05202 8.77079C0.0457961 8.19237 -0.297644 6.90296 0.280782 5.89674C0.859207 4.89052 2.14861 4.54708 3.15483 5.12551C4.16105 5.70996 4.5045 6.99334 3.92607 7.99956Z" fill="white"/>
<path d="M0.287129 17.6939C-0.291297 16.6877 0.0521437 15.4043 1.05836 14.8198C2.06458 14.2414 3.34797 14.5849 3.93242 15.5911C4.51084 16.5973 4.1674 17.8807 3.16118 18.4651C2.14894 19.0436 0.865555 18.7001 0.287129 17.6939Z" fill="white"/>
<path d="M17.0733 7.99956C16.4948 6.99334 16.8383 5.70996 17.8445 5.12551C18.8507 4.54708 20.1341 4.89052 20.7186 5.89674C21.297 6.90296 20.9535 8.18634 19.9473 8.77079C18.9411 9.34922 17.6517 9.00578 17.0733 7.99956Z" fill="white"/>
<path d="M10.4993 23.5933C9.33643 23.5933 8.39648 22.6534 8.39648 21.4905C8.39648 20.3276 9.33643 19.3877 10.4993 19.3877C11.6622 19.3877 12.6021 20.3276 12.6021 21.4905C12.6021 22.6474 11.6622 23.5933 10.4993 23.5933Z" fill="white"/>
<path d="M10.4993 4.20564C9.33643 4.20564 8.39648 3.2657 8.39648 2.10282C8.39648 0.939942 9.33643 0 10.4993 0C11.6622 0 12.6021 0.939942 12.6021 2.10282C12.6021 3.2657 11.6622 4.20564 10.4993 4.20564Z" fill="white"/>
</svg>
