<svg width="43" height="42" viewBox="0 0 43 42" fill="none" xmlns="http://www.w3.org/2000/svg">
<path d="M21.4742 0C9.63385 0 0 9.63385 0 21.4742C0 30.3081 5.53765 38.3529 13.7757 41.4908C14.1193 41.6277 14.5058 41.6062 14.8386 41.4451C15.1715 41.2814 15.4238 40.9915 15.5339 40.6372L19.5603 27.7795C19.7509 27.1702 19.4878 26.5099 18.9295 26.2038C17.1874 25.2429 16.1056 23.431 16.1056 21.4742C16.1056 18.5134 18.5134 16.1056 21.4742 16.1056C24.4349 16.1056 26.8427 18.5134 26.8427 21.4742C26.8427 23.431 25.7609 25.2429 24.0189 26.2065C23.4605 26.5125 23.1948 27.1729 23.388 27.7822L27.4145 40.6399C27.5245 40.9942 27.7768 41.2841 28.1097 41.4478C28.2949 41.5364 28.4962 41.582 28.6948 41.582C28.8559 41.582 29.0196 41.5525 29.1727 41.4935C37.4134 38.3529 42.9483 30.3081 42.9483 21.4742C42.9483 9.63385 33.3145 0 21.4742 0Z" fill="white"/>
</svg>
