<svg width="21" height="19" viewBox="0 0 21 19" fill="none" xmlns="http://www.w3.org/2000/svg">
<path d="M21 9.38512C21 7.98917 19.2578 6.66623 16.5868 5.84584C17.2032 3.11406 16.9293 0.94066 15.7222 0.244829C15.4439 0.0816099 15.1186 0.00429519 14.7634 0.00429519V0.962136C14.9603 0.962136 15.1186 1.00079 15.2513 1.07381C15.8335 1.40884 16.086 2.68453 15.8891 4.32532C15.842 4.72907 15.765 5.1543 15.6708 5.58812C14.8318 5.38195 13.9158 5.22303 12.9527 5.11994C12.3748 4.32532 11.7756 3.60372 11.172 2.97231C12.5675 1.67085 13.8773 0.957841 14.7676 0.957841V0C13.5905 0 12.0495 0.841869 10.4914 2.30225C8.93335 0.85046 7.39238 0.0171812 6.21525 0.0171812V0.975022C7.10131 0.975022 8.41541 1.68374 9.81084 2.97661C9.21158 3.60801 8.61231 4.32532 8.04301 5.11994C7.07562 5.22303 6.1596 5.38195 5.32063 5.59242C5.22218 5.16289 5.14941 4.74625 5.09804 4.34679C4.89686 2.70601 5.14513 1.43032 5.72299 1.09099C5.85141 1.01368 6.01835 0.979318 6.21525 0.979318V0.0214764C5.85569 0.0214764 5.53037 0.0987906 5.24786 0.26201C4.04505 0.957841 3.77538 3.12694 4.39605 5.85013C1.73359 6.67482 0 7.99346 0 9.38512C0 10.7811 1.74215 12.104 4.41317 12.9244C3.79678 15.6562 4.07073 17.8296 5.27782 18.5254C5.55605 18.6886 5.88137 18.766 6.24093 18.766C7.41806 18.766 8.95903 17.9241 10.5171 16.4637C12.0752 17.9155 13.6162 18.7488 14.7933 18.7488C15.1529 18.7488 15.4782 18.6715 15.7607 18.5082C16.9635 17.8124 17.2332 15.6433 16.6125 12.9201C19.2664 12.0997 21 10.7768 21 9.38512ZM15.4162 6.55996C15.2628 7.12374 15.0722 7.705 14.8566 8.28627C14.6867 7.93663 14.5084 7.587 14.3136 7.23737C14.123 6.88774 13.9199 6.54685 13.7168 6.2147C14.3053 6.30648 14.8732 6.42011 15.4162 6.55996ZM13.4442 11.0783C13.1129 11.6548 12.773 12.2014 12.4203 12.7096C11.7873 12.7651 11.1458 12.795 10.5 12.795C9.85847 12.795 9.21694 12.7651 8.58815 12.7138C8.23552 12.2057 7.89139 11.6633 7.56 11.0911C7.23711 10.5317 6.94396 9.96374 6.6763 9.39152C6.93971 8.81929 7.23711 8.24707 7.55575 7.68766C7.88714 7.11116 8.22702 6.56456 8.57965 6.05639C9.21269 6.00088 9.85422 5.97098 10.5 5.97098C11.1415 5.97098 11.7831 6.00088 12.4118 6.05212C12.7645 6.56029 13.1086 7.10262 13.44 7.67485C13.7629 8.23426 14.056 8.80221 14.3237 9.37443C14.056 9.94666 13.7629 10.5189 13.4442 11.0783ZM14.9277 10.4797C15.1663 11.0604 15.3696 11.6412 15.5376 12.2045C14.9586 12.3432 14.3487 12.4602 13.7168 12.5513C13.9333 12.2175 14.1499 11.8752 14.3532 11.5241C14.5565 11.1774 14.7465 10.8264 14.9277 10.4797ZM10.5673 15.1102C10.159 14.7081 9.75071 14.2599 9.34682 13.7698C9.74193 13.7866 10.1458 13.7991 10.5541 13.7991C10.9668 13.7991 11.3751 13.7908 11.7746 13.7698C11.3795 14.2599 10.9712 14.7081 10.5673 15.1102ZM7.28324 12.6731C6.69466 12.5813 6.1268 12.4677 5.58382 12.3278C5.73718 11.7641 5.92784 11.1828 6.14338 10.6015C6.31332 10.9512 6.49156 11.3008 6.68637 11.6504C6.88118 12.0001 7.08013 12.341 7.28324 12.6731ZM10.5541 3.6557C10.9624 4.05783 11.3707 4.50604 11.7746 4.99613C11.3795 4.97937 10.9756 4.96681 10.5673 4.96681C10.1546 4.96681 9.74632 4.97519 9.34682 4.99613C9.74193 4.50604 10.1502 4.05783 10.5541 3.6557ZM7.40462 6.2147C7.18807 6.5491 6.97152 6.89219 6.76823 7.24397C6.56493 7.5914 6.37489 7.93883 6.1937 8.28627C5.95505 7.70432 5.75175 7.12237 5.58382 6.55779C6.16276 6.42316 6.77264 6.3059 7.40462 6.2147ZM3.44964 11.6239C1.94466 10.9727 0.971098 10.1188 0.971098 9.44175C0.971098 8.76467 1.94466 7.90645 3.44964 7.25956C3.81525 7.09999 4.21488 6.95767 4.62726 6.82398C4.86959 7.66926 5.18844 8.54903 5.58382 9.45037C5.19269 10.3474 4.87809 11.2229 4.64002 12.0638C4.21913 11.9301 3.8195 11.7835 3.44964 11.6239ZM5.79486 17.6751C5.21868 17.3401 4.96872 16.0643 5.1636 14.4234C5.21021 14.0196 5.28647 13.5944 5.37967 13.1605C6.21005 13.3667 7.11669 13.5257 8.06993 13.6287C8.64188 14.4234 9.235 15.1451 9.83237 15.7765C8.45123 17.078 7.15482 17.7911 6.2736 17.7911C6.08295 17.7868 5.92196 17.7481 5.79486 17.6751ZM15.8335 14.414C16.0327 16.0595 15.7869 17.3388 15.2148 17.6791C15.0876 17.7566 14.9223 17.7911 14.7274 17.7911C13.8502 17.7911 12.5492 17.0804 11.1676 15.7838C11.7609 15.1506 12.3542 14.4312 12.9179 13.6344C13.8756 13.531 14.7825 13.3716 15.6131 13.1605C15.7106 13.5956 15.7869 14.0134 15.8335 14.414ZM16.3591 6.82398C16.7796 6.95767 17.1789 7.1043 17.5526 7.26387C19.0562 7.91508 20.0289 8.76898 20.0289 9.44606C20.0247 10.1231 19.052 10.9814 17.5484 11.6283C17.1831 11.7878 16.7839 11.9301 16.3719 12.0638C16.1298 11.2186 15.8112 10.3388 15.4162 9.43744C15.8069 8.54041 16.1213 7.66495 16.3591 6.82398ZM10.4393 7.43327C11.512 7.43327 12.3815 8.30618 12.3815 9.38298C12.3815 10.4598 11.512 11.3327 10.4393 11.3327C9.36666 11.3327 8.49711 10.4598 8.49711 9.38298C8.49711 8.30618 9.36666 7.43327 10.4393 7.43327Z" fill="white"/>
</svg>
