<svg width="21" height="14" viewBox="0 0 21 14" fill="none" xmlns="http://www.w3.org/2000/svg">
<path d="M17.5 12.25C18.4625 12.25 19.2412 11.4625 19.2412 10.5L19.25 1.75C19.25 0.7875 18.4625 0 17.5 0H3.5C2.5375 0 1.75 0.7875 1.75 1.75V10.5C1.75 11.4625 2.5375 12.25 3.5 12.25H0V14H21V12.25H17.5ZM3.5 1.75H17.5V10.5H3.5V1.75Z" fill="white"/>
<path d="M5.82008 6.63285L7.14008 5.94785V5.02285L4.58008 6.43785V6.82785L7.14008 8.25285V7.32285L5.82008 6.63285Z" fill="white"/>
<path d="M9.7718 8.64785H10.1118V8.26285C11.0668 8.23285 11.6518 7.72285 11.6518 6.91785C11.6518 6.49785 11.4818 6.17285 11.1468 5.94285C10.9268 5.79285 10.6918 5.71285 10.1118 5.60285V4.77785C10.3518 4.81285 10.4818 4.94785 10.5168 5.22285L11.5418 5.04785C11.4468 4.61785 11.2418 4.33285 10.9168 4.16285C10.6768 4.03785 10.4368 3.97285 10.1118 3.95285V3.67285H9.7718V3.94785C9.5318 3.95285 9.3118 3.99785 9.0968 4.08285C8.6268 4.26285 8.3218 4.69285 8.3218 5.19285C8.3218 5.64285 8.5518 6.01785 8.9468 6.21785C9.1518 6.32285 9.3818 6.39285 9.7718 6.47285V7.41785C9.6168 7.39785 9.5168 7.35285 9.4318 7.26285C9.3418 7.16285 9.3018 7.05785 9.2818 6.84785L8.2518 7.03285C8.2768 7.21285 8.2968 7.30285 8.3268 7.39785C8.4168 7.63785 8.5618 7.82785 8.7668 7.96285C9.0168 8.13285 9.3268 8.22285 9.7718 8.25285V8.64785ZM9.7718 5.54285C9.6168 5.50285 9.5618 5.48285 9.5118 5.45285C9.3968 5.38785 9.3368 5.28785 9.3368 5.15785C9.3368 4.93285 9.4918 4.79285 9.7718 4.77285V5.54285ZM10.1118 6.52285C10.2868 6.56285 10.3418 6.58285 10.4218 6.62285C10.5468 6.68785 10.6118 6.80285 10.6118 6.96285C10.6118 7.24785 10.4468 7.39785 10.1118 7.42285V6.52285Z" fill="white"/>
<path d="M13.2785 4.00785L11.4785 8.88285H12.3735L14.1685 4.00785H13.2785Z" fill="white"/>
<path d="M15.28 6.63285L13.96 7.32285V8.25285L16.52 6.82785V6.43785L13.96 5.02285V5.94785L15.28 6.63285Z" fill="white"/>
</svg>
