<svg width="17" height="23" viewBox="0 0 17 23" fill="none" xmlns="http://www.w3.org/2000/svg">
<path d="M4.46677 2.07849V1.08601H5.929V0H3.37012V3.0695H5.929V2.07849H4.46677ZM8.55939 1.08601H9.58168V0H7.02254V1.08601C7.36492 1.42506 7.54348 1.58734 8.03865 2.07771C7.74918 2.07771 7.02254 2.07874 7.02254 2.07869V3.0695H9.58168V2.07849L8.55939 1.08601ZM12.1865 1.08601H13.2087V0H10.6495V1.08601C10.9919 1.42506 11.1705 1.58734 11.6657 2.07771C11.3763 2.07771 10.6495 2.07874 10.6495 2.07869V3.0695H13.2088V2.07849L12.1865 1.08601Z" fill="white"/>
<path fill-rule="evenodd" clip-rule="evenodd" d="M8.28966 23L15.025 21.2041L16.5794 4.5293H0L1.55425 21.2041L8.28966 23ZM3.0293 7.91992H13.447H13.4476L13.242 9.93358L13.2415 9.93358L8.28358 12.0327L8.27786 12.0352H13.0668L12.5184 18.2797L8.29168 19.5015L4.04188 18.2571L3.76769 15.1122H5.86962L6.00669 16.7412L8.26884 17.3068L10.6221 16.6508L10.782 14.0262L3.63062 14.0036L3.63056 14.0029L3.62276 14.0062L3.46289 12.0377L8.28358 10.0495L8.56472 9.93358H3.28059L3.0293 7.91992Z" fill="white"/>
</svg>
