<svg width="21" height="21" viewBox="0 0 21 21" fill="none" xmlns="http://www.w3.org/2000/svg">
<path d="M10.5 1.69355C15.367 1.69355 19.3065 5.63228 19.3065 10.5C19.3065 15.367 15.3677 19.3065 10.5 19.3065C5.63304 19.3065 1.69355 15.3677 1.69355 10.5C1.69355 5.63304 5.63228 1.69355 10.5 1.69355ZM10.5 0C4.70099 0 0 4.70099 0 10.5C0 16.299 4.70099 21 10.5 21C16.299 21 21 16.299 21 10.5C21 4.70099 16.299 0 10.5 0ZM10.5 2.37097C6.01045 2.37097 2.37097 6.01045 2.37097 10.5C2.37097 14.9896 6.01045 18.629 10.5 18.629C14.9896 18.629 18.629 14.9896 18.629 10.5C18.629 6.01045 14.9896 2.37097 10.5 2.37097ZM10.5 4.23387C11.3418 4.23387 12.0242 4.91629 12.0242 5.75806C12.0242 6.59984 11.3418 7.28226 10.5 7.28226C9.65822 7.28226 8.97581 6.59984 8.97581 5.75806C8.97581 4.91629 9.65822 4.23387 10.5 4.23387ZM15.485 8.38404C14.2694 8.67105 13.1347 8.92377 12.0073 9.05329C12.0433 13.3305 12.5283 14.2631 13.0673 15.6421C13.2205 16.0341 13.0268 16.4761 12.6348 16.6292C12.2427 16.7823 11.8007 16.5887 11.6476 16.1966C11.279 15.2521 10.9242 14.4762 10.7051 12.871H10.295C10.0762 14.4735 9.72198 15.2507 9.35245 16.1966C9.1994 16.5885 8.75759 16.7824 8.36532 16.6292C7.97327 16.4761 7.77961 16.0341 7.93275 15.6421C8.471 14.2643 8.95671 13.3329 8.99278 9.05329C7.86535 8.92381 6.73071 8.67109 5.51504 8.38404C5.15093 8.29805 4.92543 7.93322 5.01142 7.56906C5.09741 7.20491 5.4622 6.97945 5.8264 7.06544C9.91996 8.03199 11.0884 8.03004 15.1737 7.06544C15.5378 6.97949 15.9027 7.20491 15.9887 7.56906C16.0746 7.93322 15.8491 8.29809 15.485 8.38404Z" fill="white"/>
</svg>
