<svg width="94" height="112" viewBox="0 0 94 112" fill="none" xmlns="http://www.w3.org/2000/svg">
<path fill-rule="evenodd" clip-rule="evenodd" d="M41.464 4.98321C56.314 -4.47679 76.854 -0.0667897 87.254 14.8132V14.8932C89.722 18.3485 91.4753 22.2618 92.4112 26.4036C93.347 30.5455 93.4466 34.8324 92.704 39.0132C91.9783 43.0034 90.4545 46.806 88.224 50.1932C91.4821 56.4028 92.5765 63.5217 91.334 70.4232C90.5885 74.5115 89.0018 78.4003 86.6745 81.8432C84.3471 85.286 81.3298 88.2078 77.814 90.4232L51.734 106.973C36.884 116.433 16.344 112.023 5.94396 97.1432C3.47392 93.6889 1.71936 89.7757 0.783433 85.6335C-0.152498 81.4914 -0.25092 77.2039 0.493955 73.0232C1.2115 69.0323 2.73225 65.2287 4.96396 61.8432C1.7077 55.6293 0.616819 48.5069 1.86396 41.6032C2.60355 37.5129 4.18786 33.6217 6.51576 30.1781C8.84366 26.7344 11.864 23.814 15.384 21.6032L41.464 4.98321ZM26.4973 97.9535C30.4743 99.4287 34.8081 99.6485 38.9139 98.5831C40.7883 98.079 42.5754 97.2934 44.214 96.2531L70.3039 79.633C72.4235 78.299 74.2414 76.5374 75.6413 74.4608C77.0412 72.3841 77.9924 70.0382 78.434 67.573C78.8808 65.0595 78.8209 62.482 78.2576 59.992C77.6943 57.5019 76.6391 55.1495 75.1539 53.073C72.7385 49.5881 69.3112 46.9291 65.3354 45.4553C61.3597 43.9816 57.0272 43.7644 52.924 44.833C51.0466 45.3285 49.2582 46.1147 47.6239 47.163L37.6239 53.503C37.1276 53.8132 36.5886 54.049 36.0239 54.203C34.7948 54.5128 33.5005 54.4415 32.3128 53.9986C31.1251 53.5556 30.1001 52.762 29.3739 51.723C28.9264 51.0951 28.6075 50.3848 28.4359 49.6331C28.2643 48.8813 28.2432 48.103 28.3739 47.343C28.5091 46.6014 28.7966 45.8959 29.2183 45.2711C29.64 44.6463 30.1867 44.1158 30.8239 43.713L56.9139 27.123C57.4083 26.8092 57.9479 26.5731 58.5139 26.423C59.7375 26.101 61.03 26.1591 62.2197 26.5896C63.4094 27.0201 64.4399 27.8026 65.174 28.833C65.974 29.9608 66.3494 31.3352 66.2339 32.713L66.144 33.713L67.144 34.003C70.8084 35.1127 74.2575 36.8373 77.3439 39.103L78.674 40.103L79.174 38.603C79.4309 37.8067 79.6379 36.9951 79.7939 36.173C80.242 33.6595 80.1826 31.0818 79.6193 28.5916C79.056 26.1014 78.0001 23.749 76.5139 21.673C74.0989 18.1874 70.672 15.5272 66.6965 14.0518C62.7209 12.5764 58.3883 12.3569 54.284 13.423C52.4234 13.9258 50.6498 14.7081 49.0239 15.743L22.9039 32.363C20.7844 33.6971 18.9665 35.4587 17.5666 37.5353C16.1667 39.612 15.2155 41.9579 14.7739 44.423C14.3228 46.9346 14.3779 49.511 14.936 52.0009C15.4941 54.4909 16.544 56.8443 18.0239 58.923C20.4393 62.4 23.8618 65.0537 27.8309 66.5269C31.7999 68.0001 36.1249 68.2221 40.2239 67.163C42.0947 66.6624 43.8784 65.8801 45.5139 64.843L55.5139 58.493C56.0083 58.1792 56.5479 57.9431 57.1139 57.793C58.3503 57.4722 59.6553 57.538 60.8532 57.9814C62.0511 58.4248 63.0844 59.2246 63.8139 60.273C64.2638 60.8979 64.584 61.6064 64.7557 62.357C64.9274 63.1075 64.9473 63.8848 64.8139 64.6431C64.6819 65.387 64.3957 66.0952 63.9738 66.722C63.5518 67.3489 63.0035 67.8806 62.3639 68.2831L36.3239 84.9031C35.8286 85.2151 35.2893 85.4511 34.7239 85.6031C33.4876 85.9239 32.1826 85.8581 30.9847 85.4147C29.7868 84.9713 28.7535 84.1715 28.0239 83.123C27.2233 82.0059 26.8377 80.6442 26.9339 79.273L27.0239 78.273L26.0239 77.983C22.3726 76.8825 18.934 75.1717 15.854 72.923L14.514 71.923L14.0239 73.423C13.7587 74.2102 13.5515 75.0156 13.404 75.8331C12.9545 78.3459 13.0123 80.9233 13.5739 83.4135C14.1355 85.9036 15.1895 88.2563 16.674 90.3331C19.0916 93.8184 22.5203 96.4782 26.4973 97.9535Z" fill="white"/>
</svg>
